G04 #@! TF.FileFunction,Copper,L1,Top,Signal*
%FSLAX46Y46*%
G04 Gerber Fmt 4.6, Leading zero omitted, Abs format (unit mm)*
G04 Created by KiCad (PCBNEW 4.0.7-e2-6376~61~ubuntu18.04.1) date Tue May 29 09:04:43 2018*
%MOMM*%
%LPD*%
G01*
G04 APERTURE LIST*
%ADD10C,0.100000*%
%ADD11C,0.150000*%
%ADD12R,1.800000X1.600000*%
%ADD13O,1.800000X1.600000*%
%ADD14R,2.000000X1.700000*%
%ADD15R,1.600000X2.000000*%
%ADD16C,8.000000*%
%ADD17C,7.000000*%
%ADD18R,1.700000X2.000000*%
%ADD19O,5.500000X5.500000*%
%ADD20O,1.700000X1.700000*%
%ADD21R,1.700000X1.700000*%
%ADD22R,1.500000X2.600000*%
%ADD23C,6.000000*%
%ADD24R,1.350000X1.350000*%
%ADD25C,1.350000*%
%ADD26R,2.000000X1.600000*%
%ADD27R,1.750000X0.550000*%
%ADD28C,2.000000*%
%ADD29R,2.000000X2.000000*%
%ADD30O,6.000000X5.000000*%
%ADD31C,4.000000*%
%ADD32R,6.000000X5.000000*%
%ADD33R,1.600000X2.200000*%
%ADD34O,1.600000X2.200000*%
%ADD35O,1.600000X2.400000*%
%ADD36O,2.500000X3.000000*%
%ADD37O,3.000000X2.500000*%
%ADD38R,2.500000X3.000000*%
%ADD39R,0.550000X1.750000*%
%ADD40C,1.440000*%
%ADD41C,3.000000*%
%ADD42R,3.000000X3.000000*%
%ADD43R,3.500000X1.800000*%
%ADD44C,0.600000*%
%ADD45C,1.000000*%
%ADD46C,0.800000*%
%ADD47C,0.700000*%
%ADD48C,0.500000*%
%ADD49C,0.250000*%
%ADD50C,1.200000*%
%ADD51C,0.400000*%
%ADD52C,0.254000*%
G04 APERTURE END LIST*
D10*
D11*
X-4000000Y48500000D02*
G75*
G03X1000000Y43500000I5000000J0D01*
G01*
X5500000Y39000000D02*
G75*
G03X1000000Y43500000I-4500000J0D01*
G01*
X-150000000Y-500000D02*
G75*
G03X-155000000Y4500000I-5000000J0D01*
G01*
X-159500000Y9000000D02*
G75*
G03X-155000000Y4500000I4500000J0D01*
G01*
X-5500000Y-11000000D02*
G75*
G03X-2500000Y-8000000I0J3000000D01*
G01*
X1000000Y-4500000D02*
G75*
G03X-2500000Y-8000000I0J-3500000D01*
G01*
X1000000Y-4500000D02*
G75*
G03X5500000Y0I0J4500000D01*
G01*
X-155000000Y52500000D02*
G75*
G03X-151500000Y56000000I0J3500000D01*
G01*
X-155000000Y52500000D02*
G75*
G03X-159500000Y48000000I0J-4500000D01*
G01*
X-148500000Y59000000D02*
G75*
G03X-151500000Y56000000I0J-3000000D01*
G01*
X-147000000Y-11000000D02*
X-5500000Y-11000000D01*
X5500000Y0D02*
X5500000Y39000000D01*
X-150000000Y-8000000D02*
X-150000000Y-500000D01*
X-150000000Y-8000000D02*
G75*
G03X-147000000Y-11000000I3000000J0D01*
G01*
X-4000000Y56000000D02*
X-4000000Y48500000D01*
X-4000000Y56000000D02*
G75*
G03X-7000000Y59000000I-3000000J0D01*
G01*
X-159500000Y48000000D02*
X-159500000Y9000000D01*
X-7000000Y59000000D02*
X-148500000Y59000000D01*
D12*
X-14594000Y44023000D03*
D13*
X-14594000Y41483000D03*
X-6974000Y38943000D03*
X-14594000Y38943000D03*
X-6974000Y41483000D03*
X-6974000Y44023000D03*
D14*
X-88476000Y54564000D03*
X-84476000Y54564000D03*
D15*
X-48376000Y35038000D03*
X-48376000Y39038000D03*
D16*
X1000000Y0D03*
D14*
X-80412000Y35260000D03*
X-84412000Y35260000D03*
D17*
X-155000000Y24000000D03*
X1000000Y24000000D03*
X-155000000Y9000000D03*
X1000000Y39000000D03*
D16*
X-155000000Y48000000D03*
D18*
X-75808000Y45198000D03*
X-75808000Y49198000D03*
X-78348000Y49198000D03*
X-78348000Y45198000D03*
X-32374000Y36562000D03*
X-32374000Y40562000D03*
D19*
X-40770000Y53827000D03*
X-40770000Y24827000D03*
X-145270000Y24827000D03*
D20*
X-144000000Y48987000D03*
X-146540000Y48987000D03*
X-144000000Y46447000D03*
X-146540000Y46447000D03*
X-144000000Y43907000D03*
X-146540000Y43907000D03*
X-144000000Y41367000D03*
X-146540000Y41367000D03*
X-144000000Y38827000D03*
X-146540000Y38827000D03*
X-144000000Y36287000D03*
X-146540000Y36287000D03*
X-144000000Y33747000D03*
X-146540000Y33747000D03*
D21*
X-144000000Y31207000D03*
D20*
X-146540000Y31207000D03*
D19*
X-145270000Y53827000D03*
D15*
X-53456000Y35038000D03*
X-53456000Y39038000D03*
D18*
X-49392000Y21830000D03*
X-49392000Y25830000D03*
X-50916000Y35038000D03*
X-50916000Y39038000D03*
D22*
X-8014000Y52532000D03*
X-11014000Y52532000D03*
X-8014000Y56342000D03*
X-11014000Y56342000D03*
D18*
X-39232000Y39038000D03*
X-39232000Y35038000D03*
X-41772000Y39038000D03*
X-41772000Y35038000D03*
X-73268000Y54278000D03*
X-73268000Y50278000D03*
D14*
X-77808000Y40848000D03*
X-73808000Y40848000D03*
D18*
X-65902000Y48944000D03*
X-65902000Y44944000D03*
X-46598000Y21830000D03*
X-46598000Y25830000D03*
X-45836000Y35038000D03*
X-45836000Y39038000D03*
D23*
X-134000000Y11000000D03*
X-20000000Y11000000D03*
D12*
X-12308000Y32212000D03*
D13*
X-9768000Y32212000D03*
X-7228000Y32212000D03*
D21*
X-21200000Y49520000D03*
D20*
X-23740000Y49520000D03*
X-26280000Y49520000D03*
X-28820000Y49520000D03*
X-31360000Y49520000D03*
X-33900000Y49520000D03*
X-36440000Y49520000D03*
X-38980000Y49520000D03*
X-41520000Y49520000D03*
X-44060000Y49520000D03*
X-46600000Y49520000D03*
X-49140000Y49520000D03*
X-51680000Y49520000D03*
X-54220000Y49520000D03*
X-56760000Y49520000D03*
D21*
X-21200000Y28880000D03*
D20*
X-23740000Y28880000D03*
X-26280000Y28880000D03*
X-28820000Y28880000D03*
X-31360000Y28880000D03*
X-33900000Y28880000D03*
X-36440000Y28880000D03*
X-38980000Y28880000D03*
X-41520000Y28880000D03*
X-44060000Y28880000D03*
X-46600000Y28880000D03*
X-49140000Y28880000D03*
X-51680000Y28880000D03*
X-54220000Y28880000D03*
X-56760000Y28880000D03*
D24*
X-16510000Y54610000D03*
D25*
X-18510000Y54610000D03*
X-20510000Y54610000D03*
X-22510000Y54610000D03*
D21*
X-11684000Y19304000D03*
D20*
X-11684000Y21844000D03*
X-11684000Y24384000D03*
D21*
X-59552000Y18750000D03*
D20*
X-62092000Y18750000D03*
X-64632000Y18750000D03*
D21*
X-7874000Y24384000D03*
D20*
X-5334000Y24384000D03*
X-7874000Y21844000D03*
X-5334000Y21844000D03*
D18*
X-8128000Y17494000D03*
X-8128000Y13494000D03*
X-5334000Y17494000D03*
X-5334000Y13494000D03*
D15*
X-85206000Y24243000D03*
X-85206000Y28243000D03*
X-87873000Y30275000D03*
X-87873000Y26275000D03*
X-64632000Y23894000D03*
X-64632000Y27894000D03*
D26*
X-73998000Y19766000D03*
X-69998000Y19766000D03*
D18*
X-82666000Y24243000D03*
X-82666000Y28243000D03*
D14*
X-69998000Y22306000D03*
X-73998000Y22306000D03*
X-68474000Y31958000D03*
X-72474000Y31958000D03*
X-78126000Y31450000D03*
X-82126000Y31450000D03*
D18*
X-62092000Y23894000D03*
X-62092000Y27894000D03*
D27*
X-68044000Y25259000D03*
X-68044000Y26529000D03*
X-68044000Y27799000D03*
X-68044000Y29069000D03*
X-75444000Y29069000D03*
X-75444000Y27799000D03*
X-75444000Y26529000D03*
X-75444000Y25259000D03*
D15*
X-88762000Y45198000D03*
X-88762000Y49198000D03*
D28*
X-21590000Y24050000D03*
D29*
X-21590000Y19050000D03*
D30*
X-92500000Y-6000000D03*
X-92500000Y4000000D03*
D31*
X-106500000Y-1000000D03*
D32*
X-92500000Y14000000D03*
D31*
X-106500000Y9000000D03*
D30*
X-61500000Y-6000000D03*
X-61500000Y4000000D03*
D31*
X-47500000Y-1000000D03*
D32*
X-61500000Y14000000D03*
D31*
X-47500000Y9000000D03*
D28*
X-59300000Y31580000D03*
X-59300000Y46820000D03*
X-18660000Y31580000D03*
D33*
X-21200000Y46820000D03*
D34*
X-23740000Y46820000D03*
X-56760000Y31580000D03*
X-26280000Y46820000D03*
X-54220000Y31580000D03*
X-28820000Y46820000D03*
X-51680000Y31580000D03*
X-31360000Y46820000D03*
X-49140000Y31580000D03*
X-33900000Y46820000D03*
X-46600000Y31580000D03*
X-36440000Y46820000D03*
X-44060000Y31580000D03*
X-38980000Y46820000D03*
D35*
X-41520000Y31580000D03*
D34*
X-41520000Y46820000D03*
X-38980000Y31580000D03*
X-44060000Y46820000D03*
X-36440000Y31580000D03*
X-46600000Y46820000D03*
X-33900000Y31580000D03*
X-49140000Y46820000D03*
X-31360000Y31580000D03*
X-51680000Y46820000D03*
X-28820000Y31580000D03*
X-54220000Y46820000D03*
X-26280000Y31580000D03*
X-56760000Y46820000D03*
X-23740000Y31580000D03*
X-21200000Y31580000D03*
D28*
X-18660000Y46820000D03*
D36*
X-118300000Y53400000D03*
X-133700000Y53400000D03*
X-128500000Y24000000D03*
X-123500000Y24000000D03*
D37*
X-92000000Y43500000D03*
X-92000000Y51500000D03*
X-92000000Y47500000D03*
D36*
X-113000000Y50000000D03*
D38*
X-113000000Y44000000D03*
D39*
X-85841000Y40958000D03*
X-84571000Y40958000D03*
X-83301000Y40958000D03*
X-82031000Y40958000D03*
X-82031000Y48358000D03*
X-83301000Y48358000D03*
X-84571000Y48358000D03*
X-85841000Y48358000D03*
D14*
X-73808000Y37800000D03*
X-77808000Y37800000D03*
X-81936000Y37800000D03*
X-85936000Y37800000D03*
D40*
X-92064000Y24084000D03*
X-92064000Y26624000D03*
X-92064000Y29164000D03*
X-34152000Y53802000D03*
X-31612000Y53802000D03*
X-29072000Y53802000D03*
D41*
X-100472000Y36076000D03*
D42*
X-110072000Y36076000D03*
D41*
X-100472000Y23776000D03*
X-110072000Y23776000D03*
D18*
X-68442000Y48944000D03*
X-68442000Y44944000D03*
X-70982000Y44976000D03*
X-70982000Y48976000D03*
D15*
X-34914000Y35038000D03*
X-34914000Y39038000D03*
D43*
X-80674000Y52024000D03*
X-85674000Y52024000D03*
X-7014000Y27894000D03*
X-12014000Y27894000D03*
X-10062000Y48849000D03*
X-15062000Y48849000D03*
D44*
X-34914000Y41102000D03*
X-66410000Y31958000D03*
X-73268000Y48246000D03*
X-55234000Y39102000D03*
X-67426000Y21544000D03*
X-80126000Y45166000D03*
X-6477000Y51562000D03*
X-11038000Y46944000D03*
X-11038000Y44658000D03*
X-11038000Y42880000D03*
X-68442000Y52056000D03*
X-72506000Y16718000D03*
X-106542000Y14178000D03*
D45*
X-111368000Y11892000D03*
D44*
X-35179000Y45085000D03*
X-39232000Y41356000D03*
X-37719000Y45085000D03*
D46*
X-40502000Y42372000D03*
X-45582000Y41388000D03*
D44*
X-51487500Y56786500D03*
X-52694000Y56786500D03*
X-53837000Y56786500D03*
X-61457000Y45864500D03*
X-61330000Y40118000D03*
X-141213000Y49484000D03*
X-50217500Y56786500D03*
X-26278000Y44785000D03*
X-28056000Y43007000D03*
X-62092000Y21544000D03*
X-91810000Y35514000D03*
X-90540000Y33482000D03*
X-84698000Y43388000D03*
X-84698000Y45960000D03*
D47*
X-92000000Y43500000D02*
X-89158000Y43500000D01*
X-88762000Y43896000D02*
X-88762000Y45198000D01*
X-89158000Y43500000D02*
X-88762000Y43896000D01*
D48*
X-82666000Y44658000D02*
X-85968000Y44658000D01*
X-82031000Y40958000D02*
X-82031000Y44023000D01*
X-82031000Y44023000D02*
X-82666000Y44658000D01*
X-86508000Y45198000D02*
X-88762000Y45198000D01*
X-85968000Y44658000D02*
X-86508000Y45198000D01*
X-82031000Y40958000D02*
X-77918000Y40958000D01*
X-77918000Y40958000D02*
X-77808000Y40848000D01*
X-32914000Y41102000D02*
X-34914000Y41102000D01*
X-34914000Y41102000D02*
X-34914000Y39038000D01*
X-32914000Y41102000D02*
X-32374000Y40562000D01*
X-68474000Y31958000D02*
X-66410000Y31958000D01*
X-70982000Y48976000D02*
X-71712000Y48246000D01*
X-71712000Y48246000D02*
X-73268000Y48246000D01*
X-73268000Y48246000D02*
X-73268000Y50278000D01*
X-68044000Y29069000D02*
X-67934000Y29179000D01*
X-67934000Y29179000D02*
X-67934000Y31482000D01*
X-67282000Y29037000D02*
X-67172000Y29147000D01*
X-53456000Y39038000D02*
X-53520000Y39102000D01*
X-53520000Y39102000D02*
X-55234000Y39102000D01*
X-69998000Y19766000D02*
X-68442000Y19766000D01*
X-67426000Y20782000D02*
X-67426000Y21544000D01*
X-68442000Y19766000D02*
X-67426000Y20782000D01*
X-50916000Y39038000D02*
X-53456000Y39038000D01*
X-48376000Y39038000D02*
X-50916000Y39038000D01*
X-45836000Y39038000D02*
X-48376000Y39038000D01*
X-78348000Y45198000D02*
X-80094000Y45198000D01*
X-80094000Y45198000D02*
X-80126000Y45166000D01*
D49*
X-6477000Y51562000D02*
X-6477000Y55245000D01*
X-8088500Y51562000D02*
X-6477000Y51562000D01*
X-6921500Y55689500D02*
X-8088500Y55689500D01*
X-6477000Y55245000D02*
X-6921500Y55689500D01*
X-8088500Y55689500D02*
X-8025000Y55753000D01*
D47*
X-88762000Y51516000D02*
X-88762000Y54278000D01*
X-88762000Y54278000D02*
X-88476000Y54564000D01*
X-85841000Y48358000D02*
X-86681000Y49198000D01*
X-86681000Y49198000D02*
X-88762000Y49198000D01*
X-92000000Y51500000D02*
X-91984000Y51516000D01*
X-91984000Y51516000D02*
X-88762000Y51516000D01*
X-88762000Y51516000D02*
X-88762000Y49198000D01*
X-10062000Y48849000D02*
X-11038000Y47873000D01*
X-11038000Y47873000D02*
X-11038000Y46944000D01*
X-13070000Y36449000D02*
X-11038000Y38481000D01*
X-11038000Y38481000D02*
X-11038000Y42880000D01*
D48*
X-68442000Y48976000D02*
X-68442000Y52056000D01*
X-68442000Y48976000D02*
X-66156000Y48976000D01*
D47*
X-146540000Y31207000D02*
X-146540000Y29509500D01*
X-145859500Y28829000D02*
X-141287500Y28829000D01*
X-146540000Y29509500D02*
X-145859500Y28829000D01*
X-28820000Y33981500D02*
X-26352500Y36449000D01*
X-26352500Y36449000D02*
X-13070000Y36449000D01*
X-13070000Y36449000D02*
X-13017500Y36449000D01*
X-28820000Y33981500D02*
X-28820000Y31580000D01*
X-13017500Y36449000D02*
X-13081000Y36449000D01*
D48*
X-21200000Y49520000D02*
X-21200000Y51553000D01*
X-21200000Y51553000D02*
X-22510000Y52863000D01*
X-22510000Y52863000D02*
X-22510000Y54610000D01*
D47*
X-11684000Y24384000D02*
X-11684000Y27564000D01*
X-11684000Y27564000D02*
X-12014000Y27894000D01*
D48*
X-75808000Y45198000D02*
X-75808000Y35260000D01*
X-75808000Y35260000D02*
X-75808000Y35514000D01*
X-75808000Y35514000D02*
X-75808000Y35260000D01*
D47*
X-80412000Y35260000D02*
X-75808000Y35260000D01*
X-75808000Y35260000D02*
X-65870000Y35260000D01*
X-42164000Y20891500D02*
X-45134500Y23862000D01*
X-36148000Y24050000D02*
X-21590000Y24050000D01*
X-36148000Y24050000D02*
X-39306500Y20891500D01*
X-42164000Y20891500D02*
X-39306500Y20891500D01*
X-59552000Y26148000D02*
X-59552000Y28942000D01*
X-57266000Y23862000D02*
X-59552000Y26148000D01*
X-45134500Y23862000D02*
X-57266000Y23862000D01*
X-65870000Y35260000D02*
X-59552000Y28942000D01*
D48*
X-75808000Y44944000D02*
X-75554000Y45198000D01*
D47*
X-21590000Y24050000D02*
X-21256000Y24384000D01*
X-21256000Y24384000D02*
X-15367000Y24384000D01*
X-15367000Y24384000D02*
X-11684000Y24384000D01*
D48*
X-84476000Y54564000D02*
X-76824000Y54564000D01*
X-76538000Y54278000D02*
X-73268000Y54278000D01*
X-76824000Y54564000D02*
X-76538000Y54278000D01*
X-73300000Y54310000D02*
X-73268000Y54278000D01*
X-31566000Y42880000D02*
X-37708000Y42880000D01*
X-61327000Y44436000D02*
X-62854000Y45963000D01*
X-62854000Y50246000D02*
X-64632000Y52024000D01*
X-62854000Y45963000D02*
X-62854000Y50246000D01*
X-73268000Y54278000D02*
X-66886000Y54278000D01*
X-64632000Y52024000D02*
X-66886000Y54278000D01*
X-30342000Y35260000D02*
X-31360000Y34242000D01*
X-31360000Y34242000D02*
X-31360000Y31580000D01*
X-31566000Y42880000D02*
X-30342000Y41656000D01*
X-30342000Y41656000D02*
X-30342000Y35260000D01*
X-39264000Y44436000D02*
X-61327000Y44436000D01*
X-37708000Y42880000D02*
X-39264000Y44436000D01*
X-73490000Y54056000D02*
X-73268000Y54278000D01*
X-83301000Y48358000D02*
X-83301000Y49611000D01*
X-83301000Y49611000D02*
X-81142000Y51770000D01*
X-81142000Y51770000D02*
X-80674000Y51770000D01*
X-39518000Y43420000D02*
X-36946000Y40848000D01*
X-63870000Y45166000D02*
X-63870000Y49992000D01*
X-63870000Y49992000D02*
X-67172000Y53294000D01*
X-71490000Y52278000D02*
X-81416000Y52278000D01*
X-70474000Y53294000D02*
X-71490000Y52278000D01*
X-67172000Y53294000D02*
X-70474000Y53294000D01*
X-39518000Y43420000D02*
X-62124000Y43420000D01*
X-62124000Y43420000D02*
X-63870000Y45166000D01*
X-36470000Y35038000D02*
X-34914000Y35038000D01*
X-36946000Y35514000D02*
X-36470000Y35038000D01*
X-36946000Y40848000D02*
X-36946000Y35514000D01*
X-34914000Y35038000D02*
X-32850000Y35038000D01*
X-32850000Y35038000D02*
X-32374000Y35514000D01*
X-32374000Y35514000D02*
X-32374000Y36562000D01*
X-33900000Y31580000D02*
X-33900000Y32722000D01*
X-33900000Y32722000D02*
X-34914000Y33736000D01*
X-34914000Y33736000D02*
X-34914000Y35038000D01*
D49*
X-33900000Y31575000D02*
X-33900000Y31580000D01*
D48*
X-39232000Y35038000D02*
X-39232000Y32974000D01*
X-38980000Y32722000D02*
X-38980000Y31580000D01*
X-39232000Y32974000D02*
X-38980000Y32722000D01*
X-38980000Y31580000D02*
X-38980000Y32013000D01*
X-41772000Y35038000D02*
X-41772000Y33228000D01*
X-41520000Y32976000D02*
X-41520000Y31580000D01*
X-41772000Y33228000D02*
X-41520000Y32976000D01*
X-41520000Y31580000D02*
X-41520000Y32330500D01*
X-44566000Y42388000D02*
X-43804000Y41626000D01*
X-44060000Y33226000D02*
X-44060000Y31580000D01*
X-43804000Y33482000D02*
X-44060000Y33226000D01*
X-43804000Y41626000D02*
X-43804000Y33482000D01*
X-65902000Y42388000D02*
X-65902000Y44976000D01*
X-44582000Y42388000D02*
X-44566000Y42388000D01*
X-44566000Y42388000D02*
X-65902000Y42388000D01*
X-65902000Y42388000D02*
X-72268000Y42388000D01*
X-72268000Y42388000D02*
X-73808000Y40848000D01*
X-44598000Y42404000D02*
X-44582000Y42388000D01*
X-44069000Y31589000D02*
X-44060000Y31580000D01*
X-45836000Y35038000D02*
X-48376000Y35038000D01*
X-46600000Y31580000D02*
X-46600000Y32464000D01*
X-46600000Y32464000D02*
X-45836000Y33228000D01*
X-45836000Y33228000D02*
X-45836000Y35038000D01*
X-46598000Y25830000D02*
X-46598000Y28878000D01*
X-46598000Y28878000D02*
X-46600000Y28880000D01*
D49*
X-46600000Y31580000D02*
X-46600000Y32591000D01*
D48*
X-84932000Y51262000D02*
X-84571000Y50901000D01*
X-84571000Y50901000D02*
X-84571000Y48358000D01*
D50*
X-99920000Y4000000D02*
X-92500000Y4000000D01*
X-101716000Y5796000D02*
X-99920000Y4000000D01*
X-101716000Y11892000D02*
X-101716000Y5796000D01*
X-104002000Y14178000D02*
X-101716000Y11892000D01*
X-106542000Y14178000D02*
X-104002000Y14178000D01*
X-92518000Y4018000D02*
X-92500000Y4000000D01*
X-109478000Y-6000000D02*
X-92500000Y-6000000D01*
X-111368000Y-4110000D02*
X-109478000Y-6000000D01*
X-111368000Y11892000D02*
X-111368000Y-4110000D01*
D49*
X-27439900Y51579500D02*
X-25717500Y53301900D01*
X-25717500Y53301900D02*
X-25717500Y55245000D01*
X-25717500Y55245000D02*
X-25019000Y55943500D01*
X-25019000Y55943500D02*
X-24257000Y55943500D01*
X-24257000Y55943500D02*
X-22796500Y57404000D01*
X-22796500Y57404000D02*
X-16256000Y57404000D01*
X-16256000Y57404000D02*
X-14668500Y55816500D01*
X-14668500Y55816500D02*
X-13462000Y55816500D01*
X-13462000Y55816500D02*
X-12763500Y55118000D01*
X-12763500Y55118000D02*
X-12763500Y53237000D01*
X-11088500Y51562000D02*
X-12763500Y53237000D01*
X-35179000Y50235000D02*
X-33834500Y51579500D01*
X-33834500Y51579500D02*
X-27439900Y51579500D01*
X-35179000Y45085000D02*
X-35179000Y50235000D01*
D48*
X-39232000Y41356000D02*
X-39232000Y39038000D01*
D49*
X-37681750Y50445250D02*
X-37681750Y45122250D01*
X-37681750Y45122250D02*
X-37719000Y45085000D01*
X-35999000Y52128000D02*
X-27755000Y52128000D01*
X-26860500Y56578500D02*
X-25527000Y57912000D01*
X-25527000Y57912000D02*
X-13311000Y57912000D01*
X-11088500Y55689500D02*
X-13311000Y57912000D01*
X-26860500Y53022500D02*
X-26860500Y56578500D01*
X-27755000Y52128000D02*
X-26860500Y53022500D01*
X-37681750Y50445250D02*
X-35999000Y52128000D01*
D48*
X-41772000Y41864000D02*
X-41772000Y39038000D01*
X-41264000Y42372000D02*
X-41772000Y41864000D01*
X-40502000Y42372000D02*
X-41264000Y42372000D01*
X-5334000Y13494000D02*
X-5256000Y13416000D01*
X-5256000Y13416000D02*
X-2402000Y13416000D01*
X-21590000Y19050000D02*
X-21336000Y19304000D01*
X-21336000Y19304000D02*
X-11684000Y19304000D01*
X-5334000Y13494000D02*
X-8128000Y13494000D01*
X-8128000Y13494000D02*
X-10446000Y13494000D01*
X-11684000Y14732000D02*
X-11684000Y19304000D01*
X-10446000Y13494000D02*
X-11684000Y14732000D01*
X-9768000Y32212000D02*
X-9768000Y30688000D01*
X-36440000Y27388000D02*
X-36440000Y28880000D01*
X-35930000Y26878000D02*
X-36440000Y27388000D01*
X-17896000Y26878000D02*
X-35930000Y26878000D01*
X-17134000Y27640000D02*
X-17896000Y26878000D01*
X-17134000Y28402000D02*
X-17134000Y27640000D01*
X-15610000Y29926000D02*
X-17134000Y28402000D01*
X-10530000Y29926000D02*
X-15610000Y29926000D01*
X-9768000Y30688000D02*
X-10530000Y29926000D01*
X-73808000Y37800000D02*
X-72284000Y37800000D01*
X-68696000Y41388000D02*
X-45582000Y41388000D01*
X-72284000Y37800000D02*
X-68696000Y41388000D01*
D49*
X-46600000Y51899000D02*
X-46600000Y49520000D01*
X-51487500Y56786500D02*
X-46600000Y51899000D01*
X-144000000Y43780000D02*
X-143678500Y43780000D01*
X-49140000Y53232500D02*
X-49140000Y49520000D01*
X-52694000Y56786500D02*
X-49140000Y53232500D01*
X-53837000Y56786500D02*
X-53900500Y56786500D01*
X-51680000Y54566000D02*
X-51680000Y49520000D01*
X-53900500Y56786500D02*
X-51680000Y54566000D01*
X-51741500Y49581500D02*
X-51680000Y49520000D01*
X-144000000Y46320000D02*
X-144000000Y46824000D01*
X-141911500Y55770500D02*
X-140641500Y57040500D01*
X-54220000Y55899500D02*
X-54220000Y49520000D01*
X-55361000Y57040500D02*
X-54220000Y55899500D01*
X-140641500Y57040500D02*
X-55361000Y57040500D01*
X-146540000Y46320000D02*
X-146536000Y46320000D01*
X-146536000Y46320000D02*
X-145277000Y47579000D01*
X-145277000Y47579000D02*
X-145277000Y49547500D01*
X-145277000Y49547500D02*
X-144451500Y50373000D01*
X-144451500Y50373000D02*
X-143880000Y50373000D01*
X-143880000Y50373000D02*
X-141911500Y52341500D01*
X-141911500Y52341500D02*
X-141911500Y55770500D01*
D48*
X-56760000Y31580000D02*
X-56760000Y35548000D01*
D49*
X-140895500Y54881500D02*
X-139752500Y56024500D01*
X-145150000Y35006000D02*
X-143054500Y35006000D01*
X-143054500Y35006000D02*
X-139816000Y38244500D01*
X-139816000Y38244500D02*
X-139816000Y51262000D01*
X-139816000Y51262000D02*
X-140895500Y52341500D01*
X-140895500Y52341500D02*
X-140895500Y54881500D01*
X-145150000Y35006000D02*
X-146536000Y33620000D01*
X-67299000Y56024500D02*
X-61457000Y50182500D01*
X-139752500Y56024500D02*
X-67299000Y56024500D01*
X-61457000Y50182500D02*
X-61457000Y45864500D01*
D48*
X-56760000Y35548000D02*
X-61330000Y40118000D01*
D49*
X-146540000Y33620000D02*
X-146536000Y33620000D01*
X-141213000Y39324000D02*
X-141213000Y49484000D01*
X-44060000Y50629000D02*
X-44060000Y49520000D01*
X-50217500Y56786500D02*
X-44060000Y50629000D01*
X-145150000Y37546000D02*
X-142991000Y37546000D01*
X-146536000Y36160000D02*
X-145150000Y37546000D01*
X-142991000Y37546000D02*
X-141213000Y39324000D01*
X-146540000Y36160000D02*
X-146536000Y36160000D01*
X-140355750Y38784250D02*
X-142980000Y36160000D01*
X-144000000Y36160000D02*
X-142980000Y36160000D01*
X-141403500Y52087500D02*
X-141403500Y55326000D01*
X-140355750Y51039750D02*
X-141403500Y52087500D01*
X-140355750Y51039750D02*
X-140355750Y38784250D01*
X-144000000Y36160000D02*
X-143615000Y36160000D01*
X-144000000Y36160000D02*
X-143869000Y36160000D01*
X-141403500Y55326000D02*
X-140197000Y56532500D01*
X-140197000Y56532500D02*
X-57901000Y56532500D01*
X-57901000Y56532500D02*
X-56760000Y55391500D01*
X-56760000Y55391500D02*
X-56760000Y49520000D01*
X-145171500Y32448500D02*
X-144000000Y33620000D01*
X-147447000Y32448500D02*
X-145171500Y32448500D01*
X-148082000Y33083500D02*
X-147447000Y32448500D01*
X-148082000Y51816000D02*
X-148082000Y33083500D01*
X-148452000Y52186000D02*
X-148082000Y51816000D01*
X-144000000Y33620000D02*
X-144000000Y33616000D01*
X-148452000Y55643500D02*
X-148452000Y52186000D01*
X-148452000Y55643500D02*
X-146547000Y57548500D01*
X-146547000Y57548500D02*
X-33326500Y57548500D01*
X-33326500Y57548500D02*
X-31460000Y55682000D01*
X-31460000Y53500000D02*
X-31460000Y55682000D01*
D51*
X-14594000Y44023000D02*
X-15991000Y44023000D01*
X-30342000Y44912000D02*
X-31360000Y45930000D01*
X-27675000Y44912000D02*
X-30342000Y44912000D01*
X-26405000Y43642000D02*
X-27675000Y44912000D01*
X-16372000Y43642000D02*
X-26405000Y43642000D01*
X-15991000Y44023000D02*
X-16372000Y43642000D01*
X-31360000Y45930000D02*
X-31360000Y46820000D01*
D49*
X-33141502Y51129498D02*
X-27166002Y51129498D01*
X-33900000Y50371000D02*
X-33141502Y51129498D01*
X-33900000Y49520000D02*
X-33900000Y50371000D01*
X-11849100Y50393600D02*
X-6804100Y50393600D01*
X-13271500Y51816000D02*
X-11849100Y50393600D01*
X-13271500Y54794998D02*
X-13271500Y51816000D01*
X-13721502Y55245000D02*
X-13271500Y54794998D01*
X-14859000Y55245000D02*
X-13721502Y55245000D01*
X-16446500Y56832500D02*
X-14859000Y55245000D01*
X-22606000Y56832500D02*
X-16446500Y56832500D01*
X-24003000Y55435500D02*
X-22606000Y56832500D01*
X-24765000Y55435500D02*
X-24003000Y55435500D01*
X-25267498Y54933002D02*
X-24765000Y55435500D01*
X-25267498Y53028002D02*
X-25267498Y54933002D01*
X-27166002Y51129498D02*
X-25267498Y53028002D01*
X-5259500Y41102000D02*
X-6974000Y39387500D01*
X-6804100Y50393600D02*
X-5259500Y48849000D01*
X-5259500Y48849000D02*
X-5259500Y41102000D01*
D51*
X-14594000Y38943000D02*
X-15483000Y38943000D01*
X-15483000Y38943000D02*
X-16499000Y39959000D01*
X-16499000Y39959000D02*
X-16499000Y41864000D01*
X-16499000Y41864000D02*
X-17388000Y42753000D01*
X-17388000Y42753000D02*
X-26532000Y42753000D01*
X-26532000Y42753000D02*
X-28056000Y44277000D01*
X-28056000Y44277000D02*
X-35803000Y44277000D01*
X-35803000Y44277000D02*
X-36440000Y44914000D01*
X-36440000Y44914000D02*
X-36440000Y46820000D01*
X-38980000Y46820000D02*
X-38980000Y45168000D01*
X-6974000Y45166000D02*
X-6974000Y44023000D01*
X-7736000Y45928000D02*
X-6974000Y45166000D01*
X-15991000Y45928000D02*
X-7736000Y45928000D01*
X-17134000Y44785000D02*
X-15991000Y45928000D01*
X-26278000Y44785000D02*
X-17134000Y44785000D01*
X-30088000Y43007000D02*
X-28056000Y43007000D01*
X-30723000Y43642000D02*
X-30088000Y43007000D01*
X-37454000Y43642000D02*
X-30723000Y43642000D01*
X-38980000Y45168000D02*
X-37454000Y43642000D01*
D49*
X-6921500Y44520000D02*
X-6974000Y44467500D01*
D48*
X-49392000Y25830000D02*
X-49140000Y26082000D01*
X-49140000Y26082000D02*
X-49140000Y28880000D01*
X-50916000Y35038000D02*
X-53456000Y35038000D01*
X-49140000Y31580000D02*
X-50916000Y33356000D01*
X-50916000Y33356000D02*
X-50916000Y35038000D01*
D47*
X-15062000Y48849000D02*
X-16510000Y50297000D01*
X-16510000Y50297000D02*
X-16510000Y54610000D01*
D48*
X-62092000Y18750000D02*
X-62092000Y20560000D01*
X-57012000Y21036000D02*
X-61108000Y21036000D01*
X-57012000Y21036000D02*
X-55742000Y19766000D01*
X-55742000Y19766000D02*
X-47106000Y19766000D01*
X-47106000Y19766000D02*
X-46598000Y20274000D01*
X-46598000Y21830000D02*
X-46598000Y20274000D01*
X-64632000Y21576000D02*
X-64632000Y23894000D01*
X-63616000Y20560000D02*
X-64632000Y21576000D01*
X-61584000Y20560000D02*
X-62092000Y20560000D01*
X-62092000Y20560000D02*
X-63616000Y20560000D01*
X-61108000Y21036000D02*
X-61584000Y20560000D01*
X-64632000Y23894000D02*
X-65680000Y23894000D01*
X-67045000Y25259000D02*
X-68044000Y25259000D01*
X-65680000Y23894000D02*
X-67045000Y25259000D01*
X-64632000Y23894000D02*
X-62092000Y23894000D01*
X-61806000Y21830000D02*
X-49392000Y21830000D01*
X-62092000Y21544000D02*
X-61806000Y21830000D01*
X-7874000Y21844000D02*
X-8128000Y21590000D01*
X-8128000Y21590000D02*
X-8128000Y17494000D01*
X-5334000Y21844000D02*
X-5334000Y17494000D01*
D47*
X-7874000Y24384000D02*
X-7874000Y27034000D01*
X-7874000Y27034000D02*
X-7014000Y27894000D01*
D48*
X-7874000Y24384000D02*
X-5334000Y24384000D01*
X-87492000Y33228000D02*
X-89778000Y35514000D01*
X-75444000Y29069000D02*
X-79269000Y29069000D01*
X-80888000Y33228000D02*
X-86222000Y33228000D01*
X-80126000Y32466000D02*
X-80888000Y33228000D01*
X-80126000Y29926000D02*
X-80126000Y32466000D01*
X-79269000Y29069000D02*
X-80126000Y29926000D01*
X-86222000Y33228000D02*
X-87492000Y33228000D01*
X-89778000Y35514000D02*
X-91810000Y35514000D01*
X-75460000Y29053000D02*
X-75444000Y29069000D01*
X-75476000Y26497000D02*
X-79745000Y26497000D01*
X-79745000Y26497000D02*
X-81999000Y24243000D01*
X-75476000Y26497000D02*
X-75444000Y26529000D01*
X-82666000Y24243000D02*
X-81999000Y24243000D01*
X-85206000Y24243000D02*
X-82666000Y24243000D01*
X-92064000Y24084000D02*
X-91556000Y23576000D01*
X-91556000Y23576000D02*
X-85873000Y23576000D01*
X-85873000Y23576000D02*
X-85206000Y24243000D01*
X-90032000Y28910000D02*
X-90032000Y32974000D01*
X-89365000Y28243000D02*
X-85206000Y28243000D01*
X-89365000Y28243000D02*
X-90032000Y28910000D01*
X-90032000Y32974000D02*
X-90540000Y33482000D01*
X-75476000Y27767000D02*
X-79999000Y27767000D01*
X-80475000Y28243000D02*
X-79999000Y27767000D01*
X-80475000Y28243000D02*
X-82666000Y28243000D01*
X-75476000Y27767000D02*
X-75444000Y27799000D01*
X-82666000Y28243000D02*
X-85206000Y28243000D01*
X-66664000Y33990000D02*
X-77078000Y33990000D01*
X-78126000Y32942000D02*
X-78126000Y31450000D01*
X-77078000Y33990000D02*
X-78126000Y32942000D01*
X-64632000Y27894000D02*
X-65997000Y26529000D01*
X-65997000Y26529000D02*
X-68044000Y26529000D01*
X-64632000Y27894000D02*
X-62092000Y27894000D01*
X-66664000Y33990000D02*
X-64632000Y31958000D01*
X-64632000Y31958000D02*
X-64632000Y27894000D01*
X-66664000Y33990000D02*
X-66664000Y33990000D01*
X-82126000Y31450000D02*
X-86698000Y31450000D01*
X-86698000Y31450000D02*
X-87873000Y30275000D01*
X-87873000Y26275000D02*
X-89683000Y26275000D01*
X-90032000Y26624000D02*
X-92064000Y26624000D01*
X-89683000Y26275000D02*
X-90032000Y26624000D01*
X-68044000Y27799000D02*
X-71744000Y27799000D01*
X-71744000Y27799000D02*
X-71744000Y27894000D01*
X-69998000Y22306000D02*
X-71744000Y24052000D01*
X-71744000Y29418000D02*
X-71744000Y31228000D01*
X-71744000Y24052000D02*
X-71744000Y27894000D01*
X-71744000Y27894000D02*
X-71744000Y29418000D01*
X-71744000Y31228000D02*
X-72474000Y31958000D01*
D47*
X-85936000Y37800000D02*
X-85936000Y36784000D01*
X-85936000Y36784000D02*
X-84412000Y35260000D01*
D48*
X-85936000Y37800000D02*
X-85841000Y37895000D01*
X-85841000Y37895000D02*
X-85841000Y40958000D01*
X-85936000Y38308000D02*
X-85841000Y38403000D01*
X-81936000Y37800000D02*
X-78316000Y37800000D01*
X-78316000Y37800000D02*
X-77808000Y38308000D01*
X-81936000Y37800000D02*
X-83301000Y39165000D01*
X-83301000Y39165000D02*
X-83301000Y40958000D01*
X-75808000Y49198000D02*
X-78348000Y49198000D01*
X-82031000Y48358000D02*
X-81191000Y49198000D01*
X-81191000Y49198000D02*
X-78348000Y49198000D01*
X-70982000Y44976000D02*
X-72030000Y44976000D01*
X-84571000Y43261000D02*
X-84698000Y43388000D01*
X-84571000Y43261000D02*
X-84571000Y40958000D01*
X-81142000Y45960000D02*
X-84698000Y45960000D01*
X-79872000Y47230000D02*
X-81142000Y45960000D01*
X-74284000Y47230000D02*
X-79872000Y47230000D01*
X-72030000Y44976000D02*
X-74284000Y47230000D01*
X-70982000Y44976000D02*
X-68696000Y44976000D01*
D52*
G36*
X-64746493Y-100957D02*
X-64716092Y-141171D01*
X-64672439Y-166390D01*
X-64632000Y-173000D01*
X-57647000Y-173000D01*
X-57647000Y-9571000D01*
X-96255000Y-9571000D01*
X-96255000Y-427000D01*
X-89524000Y-427000D01*
X-89474590Y-416994D01*
X-89432965Y-388553D01*
X-89412180Y-360211D01*
X-85892143Y6177000D01*
X-67759912Y6177000D01*
X-64746493Y-100957D01*
X-64746493Y-100957D01*
G37*
X-64746493Y-100957D02*
X-64716092Y-141171D01*
X-64672439Y-166390D01*
X-64632000Y-173000D01*
X-57647000Y-173000D01*
X-57647000Y-9571000D01*
X-96255000Y-9571000D01*
X-96255000Y-427000D01*
X-89524000Y-427000D01*
X-89474590Y-416994D01*
X-89432965Y-388553D01*
X-89412180Y-360211D01*
X-85892143Y6177000D01*
X-67759912Y6177000D01*
X-64746493Y-100957D01*
G36*
X-95239000Y45420000D02*
X-95228994Y45370590D01*
X-95201803Y45330197D01*
X-94043232Y44171626D01*
X-94176827Y43500000D01*
X-94033340Y42778642D01*
X-93624723Y42167104D01*
X-93461000Y42057708D01*
X-93461000Y22560000D01*
X-93450994Y22510590D01*
X-93422553Y22468965D01*
X-93380159Y22441685D01*
X-93334000Y22433000D01*
X-79872000Y22433000D01*
X-79822590Y22443006D01*
X-79781730Y22470668D01*
X-78978522Y23282310D01*
X-75633000Y23282310D01*
X-75633000Y22591750D01*
X-75474250Y22433000D01*
X-74125000Y22433000D01*
X-74125000Y23632250D01*
X-74283750Y23791000D01*
X-75124309Y23791000D01*
X-75357698Y23694327D01*
X-75536327Y23515699D01*
X-75633000Y23282310D01*
X-78978522Y23282310D01*
X-77305150Y24973250D01*
X-76954000Y24973250D01*
X-76954000Y24857690D01*
X-76857327Y24624301D01*
X-76678698Y24445673D01*
X-76445309Y24349000D01*
X-75729750Y24349000D01*
X-75571000Y24507750D01*
X-75571000Y25132000D01*
X-76795250Y25132000D01*
X-76954000Y24973250D01*
X-77305150Y24973250D01*
X-76846234Y25436984D01*
X-76795250Y25386000D01*
X-75571000Y25386000D01*
X-75571000Y25406000D01*
X-75317000Y25406000D01*
X-75317000Y25386000D01*
X-75297000Y25386000D01*
X-75297000Y25132000D01*
X-75317000Y25132000D01*
X-75317000Y24507750D01*
X-75158250Y24349000D01*
X-74442691Y24349000D01*
X-74209302Y24445673D01*
X-74030673Y24624301D01*
X-73934000Y24857690D01*
X-73934000Y24973250D01*
X-74092748Y25131998D01*
X-74025982Y25131998D01*
X-73141000Y24070020D01*
X-73141000Y23791000D01*
X-73712250Y23791000D01*
X-73871000Y23632250D01*
X-73871000Y22433000D01*
X-73851000Y22433000D01*
X-73851000Y22179000D01*
X-73871000Y22179000D01*
X-73871000Y19893000D01*
X-73851000Y19893000D01*
X-73851000Y19639000D01*
X-73871000Y19639000D01*
X-73871000Y18489750D01*
X-73712250Y18331000D01*
X-72871691Y18331000D01*
X-72803042Y18359436D01*
X-71871000Y17427394D01*
X-71871000Y16008606D01*
X-72558606Y15321000D01*
X-79819394Y15321000D01*
X-82830197Y18331803D01*
X-82872211Y18359666D01*
X-82920000Y18369000D01*
X-96329394Y18369000D01*
X-97440644Y19480250D01*
X-75633000Y19480250D01*
X-75633000Y18839690D01*
X-75536327Y18606301D01*
X-75357698Y18427673D01*
X-75124309Y18331000D01*
X-74283750Y18331000D01*
X-74125000Y18489750D01*
X-74125000Y19639000D01*
X-75474250Y19639000D01*
X-75633000Y19480250D01*
X-97440644Y19480250D01*
X-98033000Y20072606D01*
X-98033000Y22020250D01*
X-75633000Y22020250D01*
X-75633000Y21329690D01*
X-75536327Y21096301D01*
X-75451026Y21011000D01*
X-75536327Y20925699D01*
X-75633000Y20692310D01*
X-75633000Y20051750D01*
X-75474250Y19893000D01*
X-74125000Y19893000D01*
X-74125000Y22179000D01*
X-75474250Y22179000D01*
X-75633000Y22020250D01*
X-98033000Y22020250D01*
X-98033000Y37800000D01*
X-98043006Y37849410D01*
X-98070197Y37889803D01*
X-99340197Y39159803D01*
X-99382211Y39187666D01*
X-99430000Y39197000D01*
X-108384973Y39197000D01*
X-108572000Y39234874D01*
X-111572000Y39234874D01*
X-111773283Y39197000D01*
X-115117817Y39197000D01*
X-117365707Y41944421D01*
X-117404740Y41976326D01*
X-117464000Y41991000D01*
X-128894000Y41991000D01*
X-128943410Y41980994D01*
X-128990678Y41946355D01*
X-140636647Y28275000D01*
X-141978373Y28275000D01*
X-142111576Y33222818D01*
X-138340197Y36994197D01*
X-138312334Y37036211D01*
X-138303000Y37084000D01*
X-138303000Y44900133D01*
X-137613115Y45500000D01*
X-115093201Y45500000D01*
X-115093201Y42500000D01*
X-115035535Y42193532D01*
X-114854413Y41912061D01*
X-114578052Y41723231D01*
X-114250000Y41656799D01*
X-111750000Y41656799D01*
X-111443532Y41714465D01*
X-111162061Y41895587D01*
X-110973231Y42171948D01*
X-110906799Y42500000D01*
X-110906799Y45500000D01*
X-110964465Y45806468D01*
X-111145587Y46087939D01*
X-111421948Y46276769D01*
X-111750000Y46343201D01*
X-114250000Y46343201D01*
X-114556468Y46285535D01*
X-114837939Y46104413D01*
X-115026769Y45828052D01*
X-115093201Y45500000D01*
X-137613115Y45500000D01*
X-132925503Y49575960D01*
X-114885115Y49575960D01*
X-114675017Y48867806D01*
X-114209913Y48293958D01*
X-113560611Y47941779D01*
X-113419645Y47912305D01*
X-113127000Y48028428D01*
X-113127000Y49873000D01*
X-112873000Y49873000D01*
X-112873000Y48028428D01*
X-112580355Y47912305D01*
X-112439389Y47941779D01*
X-111790087Y48293958D01*
X-111324983Y48867806D01*
X-111114885Y49575960D01*
X-111269618Y49873000D01*
X-112873000Y49873000D01*
X-113127000Y49873000D01*
X-114730382Y49873000D01*
X-114885115Y49575960D01*
X-132925503Y49575960D01*
X-131950157Y50424040D01*
X-114885115Y50424040D01*
X-114730382Y50127000D01*
X-113127000Y50127000D01*
X-113127000Y51971572D01*
X-112873000Y51971572D01*
X-112873000Y50127000D01*
X-111269618Y50127000D01*
X-111114885Y50424040D01*
X-111324983Y51132194D01*
X-111790087Y51706042D01*
X-112439389Y52058221D01*
X-112580355Y52087695D01*
X-112873000Y51971572D01*
X-113127000Y51971572D01*
X-113419645Y52087695D01*
X-113560611Y52058221D01*
X-114209913Y51706042D01*
X-114675017Y51132194D01*
X-114885115Y50424040D01*
X-131950157Y50424040D01*
X-131132507Y51135000D01*
X-115432000Y51135000D01*
X-115382590Y51145006D01*
X-115340965Y51173447D01*
X-115313685Y51215841D01*
X-115305000Y51262000D01*
X-115305000Y53421000D01*
X-95239000Y53421000D01*
X-95239000Y45420000D01*
X-95239000Y45420000D01*
G37*
X-95239000Y45420000D02*
X-95228994Y45370590D01*
X-95201803Y45330197D01*
X-94043232Y44171626D01*
X-94176827Y43500000D01*
X-94033340Y42778642D01*
X-93624723Y42167104D01*
X-93461000Y42057708D01*
X-93461000Y22560000D01*
X-93450994Y22510590D01*
X-93422553Y22468965D01*
X-93380159Y22441685D01*
X-93334000Y22433000D01*
X-79872000Y22433000D01*
X-79822590Y22443006D01*
X-79781730Y22470668D01*
X-78978522Y23282310D01*
X-75633000Y23282310D01*
X-75633000Y22591750D01*
X-75474250Y22433000D01*
X-74125000Y22433000D01*
X-74125000Y23632250D01*
X-74283750Y23791000D01*
X-75124309Y23791000D01*
X-75357698Y23694327D01*
X-75536327Y23515699D01*
X-75633000Y23282310D01*
X-78978522Y23282310D01*
X-77305150Y24973250D01*
X-76954000Y24973250D01*
X-76954000Y24857690D01*
X-76857327Y24624301D01*
X-76678698Y24445673D01*
X-76445309Y24349000D01*
X-75729750Y24349000D01*
X-75571000Y24507750D01*
X-75571000Y25132000D01*
X-76795250Y25132000D01*
X-76954000Y24973250D01*
X-77305150Y24973250D01*
X-76846234Y25436984D01*
X-76795250Y25386000D01*
X-75571000Y25386000D01*
X-75571000Y25406000D01*
X-75317000Y25406000D01*
X-75317000Y25386000D01*
X-75297000Y25386000D01*
X-75297000Y25132000D01*
X-75317000Y25132000D01*
X-75317000Y24507750D01*
X-75158250Y24349000D01*
X-74442691Y24349000D01*
X-74209302Y24445673D01*
X-74030673Y24624301D01*
X-73934000Y24857690D01*
X-73934000Y24973250D01*
X-74092748Y25131998D01*
X-74025982Y25131998D01*
X-73141000Y24070020D01*
X-73141000Y23791000D01*
X-73712250Y23791000D01*
X-73871000Y23632250D01*
X-73871000Y22433000D01*
X-73851000Y22433000D01*
X-73851000Y22179000D01*
X-73871000Y22179000D01*
X-73871000Y19893000D01*
X-73851000Y19893000D01*
X-73851000Y19639000D01*
X-73871000Y19639000D01*
X-73871000Y18489750D01*
X-73712250Y18331000D01*
X-72871691Y18331000D01*
X-72803042Y18359436D01*
X-71871000Y17427394D01*
X-71871000Y16008606D01*
X-72558606Y15321000D01*
X-79819394Y15321000D01*
X-82830197Y18331803D01*
X-82872211Y18359666D01*
X-82920000Y18369000D01*
X-96329394Y18369000D01*
X-97440644Y19480250D01*
X-75633000Y19480250D01*
X-75633000Y18839690D01*
X-75536327Y18606301D01*
X-75357698Y18427673D01*
X-75124309Y18331000D01*
X-74283750Y18331000D01*
X-74125000Y18489750D01*
X-74125000Y19639000D01*
X-75474250Y19639000D01*
X-75633000Y19480250D01*
X-97440644Y19480250D01*
X-98033000Y20072606D01*
X-98033000Y22020250D01*
X-75633000Y22020250D01*
X-75633000Y21329690D01*
X-75536327Y21096301D01*
X-75451026Y21011000D01*
X-75536327Y20925699D01*
X-75633000Y20692310D01*
X-75633000Y20051750D01*
X-75474250Y19893000D01*
X-74125000Y19893000D01*
X-74125000Y22179000D01*
X-75474250Y22179000D01*
X-75633000Y22020250D01*
X-98033000Y22020250D01*
X-98033000Y37800000D01*
X-98043006Y37849410D01*
X-98070197Y37889803D01*
X-99340197Y39159803D01*
X-99382211Y39187666D01*
X-99430000Y39197000D01*
X-108384973Y39197000D01*
X-108572000Y39234874D01*
X-111572000Y39234874D01*
X-111773283Y39197000D01*
X-115117817Y39197000D01*
X-117365707Y41944421D01*
X-117404740Y41976326D01*
X-117464000Y41991000D01*
X-128894000Y41991000D01*
X-128943410Y41980994D01*
X-128990678Y41946355D01*
X-140636647Y28275000D01*
X-141978373Y28275000D01*
X-142111576Y33222818D01*
X-138340197Y36994197D01*
X-138312334Y37036211D01*
X-138303000Y37084000D01*
X-138303000Y44900133D01*
X-137613115Y45500000D01*
X-115093201Y45500000D01*
X-115093201Y42500000D01*
X-115035535Y42193532D01*
X-114854413Y41912061D01*
X-114578052Y41723231D01*
X-114250000Y41656799D01*
X-111750000Y41656799D01*
X-111443532Y41714465D01*
X-111162061Y41895587D01*
X-110973231Y42171948D01*
X-110906799Y42500000D01*
X-110906799Y45500000D01*
X-110964465Y45806468D01*
X-111145587Y46087939D01*
X-111421948Y46276769D01*
X-111750000Y46343201D01*
X-114250000Y46343201D01*
X-114556468Y46285535D01*
X-114837939Y46104413D01*
X-115026769Y45828052D01*
X-115093201Y45500000D01*
X-137613115Y45500000D01*
X-132925503Y49575960D01*
X-114885115Y49575960D01*
X-114675017Y48867806D01*
X-114209913Y48293958D01*
X-113560611Y47941779D01*
X-113419645Y47912305D01*
X-113127000Y48028428D01*
X-113127000Y49873000D01*
X-112873000Y49873000D01*
X-112873000Y48028428D01*
X-112580355Y47912305D01*
X-112439389Y47941779D01*
X-111790087Y48293958D01*
X-111324983Y48867806D01*
X-111114885Y49575960D01*
X-111269618Y49873000D01*
X-112873000Y49873000D01*
X-113127000Y49873000D01*
X-114730382Y49873000D01*
X-114885115Y49575960D01*
X-132925503Y49575960D01*
X-131950157Y50424040D01*
X-114885115Y50424040D01*
X-114730382Y50127000D01*
X-113127000Y50127000D01*
X-113127000Y51971572D01*
X-112873000Y51971572D01*
X-112873000Y50127000D01*
X-111269618Y50127000D01*
X-111114885Y50424040D01*
X-111324983Y51132194D01*
X-111790087Y51706042D01*
X-112439389Y52058221D01*
X-112580355Y52087695D01*
X-112873000Y51971572D01*
X-113127000Y51971572D01*
X-113419645Y52087695D01*
X-113560611Y52058221D01*
X-114209913Y51706042D01*
X-114675017Y51132194D01*
X-114885115Y50424040D01*
X-131950157Y50424040D01*
X-131132507Y51135000D01*
X-115432000Y51135000D01*
X-115382590Y51145006D01*
X-115340965Y51173447D01*
X-115313685Y51215841D01*
X-115305000Y51262000D01*
X-115305000Y53421000D01*
X-95239000Y53421000D01*
X-95239000Y45420000D01*
G36*
X-8879000Y34371000D02*
X-26786000Y34371000D01*
X-26835410Y34360994D01*
X-26875803Y34333803D01*
X-27637803Y33571803D01*
X-27665666Y33529789D01*
X-27675000Y33482000D01*
X-27675000Y33101000D01*
X-28107962Y33101000D01*
X-28388181Y33254367D01*
X-28470961Y33271904D01*
X-28693000Y33149915D01*
X-28693000Y33101000D01*
X-28947000Y33101000D01*
X-28947000Y33149915D01*
X-29169039Y33271904D01*
X-29251819Y33254367D01*
X-29532038Y33101000D01*
X-29961000Y33101000D01*
X-29961000Y34389421D01*
X-29716213Y34634208D01*
X-29716210Y34634210D01*
X-29603499Y34802895D01*
X-25717394Y38689000D01*
X-17694606Y38689000D01*
X-16715803Y37710197D01*
X-16673789Y37682334D01*
X-16626000Y37673000D01*
X-15356684Y37673000D01*
X-15273223Y37617233D01*
X-14724072Y37508000D01*
X-14463928Y37508000D01*
X-13914777Y37617233D01*
X-13831316Y37673000D01*
X-13324000Y37673000D01*
X-13274590Y37683006D01*
X-13234197Y37710197D01*
X-12472197Y38472197D01*
X-12444334Y38514211D01*
X-12435000Y38562000D01*
X-12435000Y45039000D01*
X-8879000Y45039000D01*
X-8879000Y34371000D01*
X-8879000Y34371000D01*
G37*
X-8879000Y34371000D02*
X-26786000Y34371000D01*
X-26835410Y34360994D01*
X-26875803Y34333803D01*
X-27637803Y33571803D01*
X-27665666Y33529789D01*
X-27675000Y33482000D01*
X-27675000Y33101000D01*
X-28107962Y33101000D01*
X-28388181Y33254367D01*
X-28470961Y33271904D01*
X-28693000Y33149915D01*
X-28693000Y33101000D01*
X-28947000Y33101000D01*
X-28947000Y33149915D01*
X-29169039Y33271904D01*
X-29251819Y33254367D01*
X-29532038Y33101000D01*
X-29961000Y33101000D01*
X-29961000Y34389421D01*
X-29716213Y34634208D01*
X-29716210Y34634210D01*
X-29603499Y34802895D01*
X-25717394Y38689000D01*
X-17694606Y38689000D01*
X-16715803Y37710197D01*
X-16673789Y37682334D01*
X-16626000Y37673000D01*
X-15356684Y37673000D01*
X-15273223Y37617233D01*
X-14724072Y37508000D01*
X-14463928Y37508000D01*
X-13914777Y37617233D01*
X-13831316Y37673000D01*
X-13324000Y37673000D01*
X-13274590Y37683006D01*
X-13234197Y37710197D01*
X-12472197Y38472197D01*
X-12444334Y38514211D01*
X-12435000Y38562000D01*
X-12435000Y45039000D01*
X-8879000Y45039000D01*
X-8879000Y34371000D01*
G36*
X-149595000Y20528000D02*
X-149584994Y20478590D01*
X-149556553Y20436965D01*
X-149514159Y20409685D01*
X-149468000Y20401000D01*
X-140832000Y20401000D01*
X-140782590Y20411006D01*
X-140740965Y20439447D01*
X-140713685Y20481841D01*
X-140705000Y20528000D01*
X-140705000Y24311262D01*
X-131377000Y24311262D01*
X-131377000Y23688738D01*
X-131158001Y22587758D01*
X-130534346Y21654392D01*
X-129600980Y21030737D01*
X-128500000Y20811738D01*
X-127399020Y21030737D01*
X-126465654Y21654392D01*
X-126000000Y22351293D01*
X-125534346Y21654392D01*
X-124600980Y21030737D01*
X-123500000Y20811738D01*
X-122399020Y21030737D01*
X-121465654Y21654392D01*
X-120841999Y22587758D01*
X-120728824Y23156730D01*
X-113199542Y23156730D01*
X-112724488Y22007011D01*
X-111845616Y21126604D01*
X-110696728Y20649544D01*
X-109452730Y20648458D01*
X-108303011Y21123512D01*
X-107422604Y22002384D01*
X-106945544Y23151272D01*
X-106944458Y24395270D01*
X-107419512Y25544989D01*
X-108298384Y26425396D01*
X-109447272Y26902456D01*
X-110691270Y26903542D01*
X-111840989Y26428488D01*
X-112721396Y25549616D01*
X-113198456Y24400728D01*
X-113199542Y23156730D01*
X-120728824Y23156730D01*
X-120623000Y23688738D01*
X-120623000Y24311262D01*
X-120841999Y25412242D01*
X-121465654Y26345608D01*
X-122399020Y26969263D01*
X-123500000Y27188262D01*
X-124600980Y26969263D01*
X-125534346Y26345608D01*
X-126000000Y25648707D01*
X-126465654Y26345608D01*
X-127399020Y26969263D01*
X-128500000Y27188262D01*
X-129600980Y26969263D01*
X-130534346Y26345608D01*
X-131158001Y25412242D01*
X-131377000Y24311262D01*
X-140705000Y24311262D01*
X-140705000Y25560718D01*
X-127819909Y40467000D01*
X-118793483Y40467000D01*
X-116291564Y37464697D01*
X-116252246Y37433144D01*
X-116194000Y37419000D01*
X-113230874Y37419000D01*
X-113230874Y34576000D01*
X-113117425Y33973070D01*
X-112761094Y33419316D01*
X-112217395Y33047822D01*
X-111572000Y32917126D01*
X-108572000Y32917126D01*
X-107969070Y33030575D01*
X-107415316Y33386906D01*
X-107043822Y33930605D01*
X-106913126Y34576000D01*
X-106913126Y37419000D01*
X-103367000Y37419000D01*
X-103367000Y21544000D01*
X-103356994Y21494590D01*
X-103325206Y21449825D01*
X-97991206Y16623825D01*
X-97947854Y16598095D01*
X-97906000Y16591000D01*
X-96135000Y16591000D01*
X-96135000Y14285750D01*
X-95976250Y14127000D01*
X-92627000Y14127000D01*
X-92627000Y14147000D01*
X-92373000Y14147000D01*
X-92373000Y14127000D01*
X-89023750Y14127000D01*
X-88865000Y14285750D01*
X-88865000Y16591000D01*
X-84242606Y16591000D01*
X-83555000Y15903394D01*
X-83555000Y13416000D01*
X-83544994Y13366590D01*
X-83517803Y13326197D01*
X-81739803Y11548197D01*
X-81697789Y11520334D01*
X-81650000Y11511000D01*
X-71744000Y11511000D01*
X-71694590Y11521006D01*
X-71644830Y11558664D01*
X-69920362Y13714250D01*
X-65135000Y13714250D01*
X-65135000Y11373691D01*
X-65038327Y11140302D01*
X-64859699Y10961673D01*
X-64626310Y10865000D01*
X-61785750Y10865000D01*
X-61627000Y11023750D01*
X-61627000Y13873000D01*
X-61373000Y13873000D01*
X-61373000Y11023750D01*
X-61214250Y10865000D01*
X-58373690Y10865000D01*
X-58140301Y10961673D01*
X-57961673Y11140302D01*
X-57865000Y11373691D01*
X-57865000Y13596630D01*
X-22417025Y13596630D01*
X-20000000Y11179605D01*
X-17582975Y13596630D01*
X-17925566Y14071277D01*
X-19258800Y14631342D01*
X-20704875Y14638568D01*
X-22043639Y14091854D01*
X-22074434Y14071277D01*
X-22417025Y13596630D01*
X-57865000Y13596630D01*
X-57865000Y13714250D01*
X-58023750Y13873000D01*
X-61373000Y13873000D01*
X-61627000Y13873000D01*
X-64976250Y13873000D01*
X-65135000Y13714250D01*
X-69920362Y13714250D01*
X-67618961Y16591000D01*
X-65135000Y16591000D01*
X-65135000Y14285750D01*
X-64976250Y14127000D01*
X-61627000Y14127000D01*
X-61627000Y14147000D01*
X-61373000Y14147000D01*
X-61373000Y14127000D01*
X-58023750Y14127000D01*
X-57865000Y14285750D01*
X-57865000Y16591000D01*
X-57266000Y16591000D01*
X-57216590Y16601006D01*
X-57174965Y16629447D01*
X-57147685Y16671841D01*
X-57139000Y16718000D01*
X-57139000Y18369000D01*
X-37962000Y18369000D01*
X-37912590Y18379006D01*
X-37872197Y18406197D01*
X-34353394Y21925000D01*
X-23357000Y21925000D01*
X-23357000Y17226000D01*
X-23346994Y17176590D01*
X-23318553Y17134965D01*
X-23276159Y17107685D01*
X-23230000Y17099000D01*
X-19928000Y17099000D01*
X-19878590Y17109006D01*
X-19836965Y17137447D01*
X-19809685Y17179841D01*
X-19801000Y17226000D01*
X-19801000Y21925000D01*
X-14721000Y21925000D01*
X-14721000Y17226000D01*
X-14710994Y17176590D01*
X-14682553Y17134965D01*
X-14640159Y17107685D01*
X-14594000Y17099000D01*
X-10149000Y17099000D01*
X-10149000Y11130000D01*
X-10138994Y11080590D01*
X-10110553Y11038965D01*
X-10068159Y11011685D01*
X-10022000Y11003000D01*
X-3926000Y11003000D01*
X-3876590Y11013006D01*
X-3834965Y11041447D01*
X-3807685Y11083841D01*
X-3799000Y11130000D01*
X-3799000Y43515000D01*
X-1644222Y43515000D01*
X-1307872Y43290258D01*
X-1157945Y43228157D01*
X-1051931Y43184244D01*
X-140307Y43002911D01*
X-1339229Y42507526D01*
X-2503438Y41345347D01*
X-3134280Y39826111D01*
X-3135716Y38181106D01*
X-2507526Y36660771D01*
X-1345347Y35496562D01*
X173889Y34865720D01*
X1818894Y34864284D01*
X3339229Y35492474D01*
X4503438Y36654653D01*
X4790000Y37344771D01*
X4790000Y25655590D01*
X4507526Y26339229D01*
X3345347Y27503438D01*
X1826111Y28134280D01*
X181106Y28135716D01*
X-1339229Y27507526D01*
X-2503438Y26345347D01*
X-3134280Y24826111D01*
X-3135716Y23181106D01*
X-2507526Y21660771D01*
X-1345347Y20496562D01*
X173889Y19865720D01*
X1818894Y19864284D01*
X3339229Y20492474D01*
X4503438Y21654653D01*
X4790000Y22344771D01*
X4790000Y2759501D01*
X4317949Y3138344D01*
X1179605Y0D01*
X1193748Y-14143D01*
X1014143Y-193748D01*
X1000000Y-179605D01*
X-2138344Y-3317949D01*
X-1674010Y-3896524D01*
X-880006Y-4237000D01*
X-4180000Y-4237000D01*
X-4229410Y-4247006D01*
X-4271035Y-4275447D01*
X-4298315Y-4317841D01*
X-4307000Y-4364000D01*
X-4307000Y-9317000D01*
X-54853000Y-9317000D01*
X-54853000Y-1521834D01*
X-50135457Y-1521834D01*
X-49735147Y-2490658D01*
X-48994557Y-3232542D01*
X-48026433Y-3634542D01*
X-46978166Y-3635457D01*
X-46009342Y-3235147D01*
X-45267458Y-2494557D01*
X-44865458Y-1526433D01*
X-44864881Y-864447D01*
X-3646068Y-864447D01*
X-2961598Y-2576619D01*
X-2896524Y-2674010D01*
X-2317949Y-3138344D01*
X820395Y0D01*
X-2317949Y3138344D01*
X-2896524Y2674010D01*
X-3623218Y979328D01*
X-3646068Y-864447D01*
X-44864881Y-864447D01*
X-44864543Y-478166D01*
X-45264853Y490658D01*
X-46005443Y1232542D01*
X-46973567Y1634542D01*
X-48021834Y1635457D01*
X-48990658Y1235147D01*
X-49732542Y494557D01*
X-50134542Y-473567D01*
X-50135457Y-1521834D01*
X-54853000Y-1521834D01*
X-54853000Y3317949D01*
X-2138344Y3317949D01*
X1000000Y179605D01*
X4138344Y3317949D01*
X3674010Y3896524D01*
X1979328Y4623218D01*
X135553Y4646068D01*
X-1576619Y3961598D01*
X-1674010Y3896524D01*
X-2138344Y3317949D01*
X-54853000Y3317949D01*
X-54853000Y8082000D01*
X-54863006Y8131410D01*
X-54891447Y8173035D01*
X-54933841Y8200315D01*
X-54980000Y8209000D01*
X-99049000Y8209000D01*
X-99049000Y8478166D01*
X-50135457Y8478166D01*
X-49735147Y7509342D01*
X-48994557Y6767458D01*
X-48026433Y6365458D01*
X-46978166Y6364543D01*
X-46009342Y6764853D01*
X-45267458Y7505443D01*
X-44894607Y8403370D01*
X-22417025Y8403370D01*
X-22074434Y7928723D01*
X-20741200Y7368658D01*
X-19295125Y7361432D01*
X-17956361Y7908146D01*
X-17925566Y7928723D01*
X-17582975Y8403370D01*
X-20000000Y10820395D01*
X-22417025Y8403370D01*
X-44894607Y8403370D01*
X-44865458Y8473567D01*
X-44864543Y9521834D01*
X-45184060Y10295125D01*
X-23638568Y10295125D01*
X-23091854Y8956361D01*
X-23071277Y8925566D01*
X-22596630Y8582975D01*
X-20179605Y11000000D01*
X-19820395Y11000000D01*
X-17403370Y8582975D01*
X-16928723Y8925566D01*
X-16368658Y10258800D01*
X-16361432Y11704875D01*
X-16908146Y13043639D01*
X-16928723Y13074434D01*
X-17403370Y13417025D01*
X-19820395Y11000000D01*
X-20179605Y11000000D01*
X-22596630Y13417025D01*
X-23071277Y13074434D01*
X-23631342Y11741200D01*
X-23638568Y10295125D01*
X-45184060Y10295125D01*
X-45264853Y10490658D01*
X-46005443Y11232542D01*
X-46973567Y11634542D01*
X-48021834Y11635457D01*
X-48990658Y11235147D01*
X-49732542Y10494557D01*
X-50134542Y9526433D01*
X-50135457Y8478166D01*
X-99049000Y8478166D01*
X-99049000Y13416000D01*
X-99059006Y13465410D01*
X-99086197Y13505803D01*
X-99294644Y13714250D01*
X-96135000Y13714250D01*
X-96135000Y11373691D01*
X-96038327Y11140302D01*
X-95859699Y10961673D01*
X-95626310Y10865000D01*
X-92785750Y10865000D01*
X-92627000Y11023750D01*
X-92627000Y13873000D01*
X-92373000Y13873000D01*
X-92373000Y11023750D01*
X-92214250Y10865000D01*
X-89373690Y10865000D01*
X-89140301Y10961673D01*
X-88961673Y11140302D01*
X-88865000Y11373691D01*
X-88865000Y13714250D01*
X-89023750Y13873000D01*
X-92373000Y13873000D01*
X-92627000Y13873000D01*
X-95976250Y13873000D01*
X-96135000Y13714250D01*
X-99294644Y13714250D01*
X-102388197Y16807803D01*
X-102430211Y16835666D01*
X-102478000Y16845000D01*
X-114162000Y16845000D01*
X-114211410Y16834994D01*
X-114253035Y16806553D01*
X-114280315Y16764159D01*
X-114289000Y16718000D01*
X-114289000Y-9063000D01*
X-148071000Y-9063000D01*
X-148071000Y1732000D01*
X-148081006Y1781410D01*
X-148101050Y1814035D01*
X-150895050Y5116035D01*
X-150934604Y5147290D01*
X-150992000Y5161000D01*
X-153462999Y5161000D01*
X-152660771Y5492474D01*
X-151496562Y6654653D01*
X-150865720Y8173889D01*
X-150865520Y8403370D01*
X-136417025Y8403370D01*
X-136074434Y7928723D01*
X-134741200Y7368658D01*
X-133295125Y7361432D01*
X-131956361Y7908146D01*
X-131925566Y7928723D01*
X-131582975Y8403370D01*
X-134000000Y10820395D01*
X-136417025Y8403370D01*
X-150865520Y8403370D01*
X-150864284Y9818894D01*
X-151061058Y10295125D01*
X-137638568Y10295125D01*
X-137091854Y8956361D01*
X-137071277Y8925566D01*
X-136596630Y8582975D01*
X-134179605Y11000000D01*
X-133820395Y11000000D01*
X-131403370Y8582975D01*
X-130928723Y8925566D01*
X-130368658Y10258800D01*
X-130361432Y11704875D01*
X-130908146Y13043639D01*
X-130928723Y13074434D01*
X-131403370Y13417025D01*
X-133820395Y11000000D01*
X-134179605Y11000000D01*
X-136596630Y13417025D01*
X-137071277Y13074434D01*
X-137631342Y11741200D01*
X-137638568Y10295125D01*
X-151061058Y10295125D01*
X-151492474Y11339229D01*
X-152654653Y12503438D01*
X-154173889Y13134280D01*
X-155818894Y13135716D01*
X-157339229Y12507526D01*
X-158503438Y11345347D01*
X-158790000Y10655229D01*
X-158790000Y13596630D01*
X-136417025Y13596630D01*
X-134000000Y11179605D01*
X-131582975Y13596630D01*
X-131925566Y14071277D01*
X-133258800Y14631342D01*
X-134704875Y14638568D01*
X-136043639Y14091854D01*
X-136074434Y14071277D01*
X-136417025Y13596630D01*
X-158790000Y13596630D01*
X-158790000Y22344410D01*
X-158507526Y21660771D01*
X-157345347Y20496562D01*
X-155826111Y19865720D01*
X-154181106Y19864284D01*
X-152660771Y20492474D01*
X-151496562Y21654653D01*
X-150865720Y23173889D01*
X-150864284Y24818894D01*
X-151492474Y26339229D01*
X-152654653Y27503438D01*
X-154173889Y28134280D01*
X-155818894Y28135716D01*
X-157339229Y27507526D01*
X-158503438Y26345347D01*
X-158790000Y25655229D01*
X-158790000Y44682051D01*
X-158138344Y44682051D01*
X-157674010Y44103476D01*
X-155979328Y43376782D01*
X-154135553Y43353932D01*
X-152423381Y44038402D01*
X-152325990Y44103476D01*
X-151861656Y44682051D01*
X-155000000Y47820395D01*
X-158138344Y44682051D01*
X-158790000Y44682051D01*
X-158790000Y45240499D01*
X-158317949Y44861656D01*
X-155179605Y48000000D01*
X-154820395Y48000000D01*
X-151682051Y44861656D01*
X-151103476Y45325990D01*
X-150376782Y47020672D01*
X-150353932Y48864447D01*
X-151038402Y50576619D01*
X-151103476Y50674010D01*
X-151682051Y51138344D01*
X-154820395Y48000000D01*
X-155179605Y48000000D01*
X-155193747Y48014142D01*
X-155014142Y48193747D01*
X-155000000Y48179605D01*
X-151861656Y51317949D01*
X-152325990Y51896524D01*
X-153153485Y52251361D01*
X-152543409Y52659000D01*
X-149595000Y52659000D01*
X-149595000Y20528000D01*
X-149595000Y20528000D01*
G37*
X-149595000Y20528000D02*
X-149584994Y20478590D01*
X-149556553Y20436965D01*
X-149514159Y20409685D01*
X-149468000Y20401000D01*
X-140832000Y20401000D01*
X-140782590Y20411006D01*
X-140740965Y20439447D01*
X-140713685Y20481841D01*
X-140705000Y20528000D01*
X-140705000Y24311262D01*
X-131377000Y24311262D01*
X-131377000Y23688738D01*
X-131158001Y22587758D01*
X-130534346Y21654392D01*
X-129600980Y21030737D01*
X-128500000Y20811738D01*
X-127399020Y21030737D01*
X-126465654Y21654392D01*
X-126000000Y22351293D01*
X-125534346Y21654392D01*
X-124600980Y21030737D01*
X-123500000Y20811738D01*
X-122399020Y21030737D01*
X-121465654Y21654392D01*
X-120841999Y22587758D01*
X-120728824Y23156730D01*
X-113199542Y23156730D01*
X-112724488Y22007011D01*
X-111845616Y21126604D01*
X-110696728Y20649544D01*
X-109452730Y20648458D01*
X-108303011Y21123512D01*
X-107422604Y22002384D01*
X-106945544Y23151272D01*
X-106944458Y24395270D01*
X-107419512Y25544989D01*
X-108298384Y26425396D01*
X-109447272Y26902456D01*
X-110691270Y26903542D01*
X-111840989Y26428488D01*
X-112721396Y25549616D01*
X-113198456Y24400728D01*
X-113199542Y23156730D01*
X-120728824Y23156730D01*
X-120623000Y23688738D01*
X-120623000Y24311262D01*
X-120841999Y25412242D01*
X-121465654Y26345608D01*
X-122399020Y26969263D01*
X-123500000Y27188262D01*
X-124600980Y26969263D01*
X-125534346Y26345608D01*
X-126000000Y25648707D01*
X-126465654Y26345608D01*
X-127399020Y26969263D01*
X-128500000Y27188262D01*
X-129600980Y26969263D01*
X-130534346Y26345608D01*
X-131158001Y25412242D01*
X-131377000Y24311262D01*
X-140705000Y24311262D01*
X-140705000Y25560718D01*
X-127819909Y40467000D01*
X-118793483Y40467000D01*
X-116291564Y37464697D01*
X-116252246Y37433144D01*
X-116194000Y37419000D01*
X-113230874Y37419000D01*
X-113230874Y34576000D01*
X-113117425Y33973070D01*
X-112761094Y33419316D01*
X-112217395Y33047822D01*
X-111572000Y32917126D01*
X-108572000Y32917126D01*
X-107969070Y33030575D01*
X-107415316Y33386906D01*
X-107043822Y33930605D01*
X-106913126Y34576000D01*
X-106913126Y37419000D01*
X-103367000Y37419000D01*
X-103367000Y21544000D01*
X-103356994Y21494590D01*
X-103325206Y21449825D01*
X-97991206Y16623825D01*
X-97947854Y16598095D01*
X-97906000Y16591000D01*
X-96135000Y16591000D01*
X-96135000Y14285750D01*
X-95976250Y14127000D01*
X-92627000Y14127000D01*
X-92627000Y14147000D01*
X-92373000Y14147000D01*
X-92373000Y14127000D01*
X-89023750Y14127000D01*
X-88865000Y14285750D01*
X-88865000Y16591000D01*
X-84242606Y16591000D01*
X-83555000Y15903394D01*
X-83555000Y13416000D01*
X-83544994Y13366590D01*
X-83517803Y13326197D01*
X-81739803Y11548197D01*
X-81697789Y11520334D01*
X-81650000Y11511000D01*
X-71744000Y11511000D01*
X-71694590Y11521006D01*
X-71644830Y11558664D01*
X-69920362Y13714250D01*
X-65135000Y13714250D01*
X-65135000Y11373691D01*
X-65038327Y11140302D01*
X-64859699Y10961673D01*
X-64626310Y10865000D01*
X-61785750Y10865000D01*
X-61627000Y11023750D01*
X-61627000Y13873000D01*
X-61373000Y13873000D01*
X-61373000Y11023750D01*
X-61214250Y10865000D01*
X-58373690Y10865000D01*
X-58140301Y10961673D01*
X-57961673Y11140302D01*
X-57865000Y11373691D01*
X-57865000Y13596630D01*
X-22417025Y13596630D01*
X-20000000Y11179605D01*
X-17582975Y13596630D01*
X-17925566Y14071277D01*
X-19258800Y14631342D01*
X-20704875Y14638568D01*
X-22043639Y14091854D01*
X-22074434Y14071277D01*
X-22417025Y13596630D01*
X-57865000Y13596630D01*
X-57865000Y13714250D01*
X-58023750Y13873000D01*
X-61373000Y13873000D01*
X-61627000Y13873000D01*
X-64976250Y13873000D01*
X-65135000Y13714250D01*
X-69920362Y13714250D01*
X-67618961Y16591000D01*
X-65135000Y16591000D01*
X-65135000Y14285750D01*
X-64976250Y14127000D01*
X-61627000Y14127000D01*
X-61627000Y14147000D01*
X-61373000Y14147000D01*
X-61373000Y14127000D01*
X-58023750Y14127000D01*
X-57865000Y14285750D01*
X-57865000Y16591000D01*
X-57266000Y16591000D01*
X-57216590Y16601006D01*
X-57174965Y16629447D01*
X-57147685Y16671841D01*
X-57139000Y16718000D01*
X-57139000Y18369000D01*
X-37962000Y18369000D01*
X-37912590Y18379006D01*
X-37872197Y18406197D01*
X-34353394Y21925000D01*
X-23357000Y21925000D01*
X-23357000Y17226000D01*
X-23346994Y17176590D01*
X-23318553Y17134965D01*
X-23276159Y17107685D01*
X-23230000Y17099000D01*
X-19928000Y17099000D01*
X-19878590Y17109006D01*
X-19836965Y17137447D01*
X-19809685Y17179841D01*
X-19801000Y17226000D01*
X-19801000Y21925000D01*
X-14721000Y21925000D01*
X-14721000Y17226000D01*
X-14710994Y17176590D01*
X-14682553Y17134965D01*
X-14640159Y17107685D01*
X-14594000Y17099000D01*
X-10149000Y17099000D01*
X-10149000Y11130000D01*
X-10138994Y11080590D01*
X-10110553Y11038965D01*
X-10068159Y11011685D01*
X-10022000Y11003000D01*
X-3926000Y11003000D01*
X-3876590Y11013006D01*
X-3834965Y11041447D01*
X-3807685Y11083841D01*
X-3799000Y11130000D01*
X-3799000Y43515000D01*
X-1644222Y43515000D01*
X-1307872Y43290258D01*
X-1157945Y43228157D01*
X-1051931Y43184244D01*
X-140307Y43002911D01*
X-1339229Y42507526D01*
X-2503438Y41345347D01*
X-3134280Y39826111D01*
X-3135716Y38181106D01*
X-2507526Y36660771D01*
X-1345347Y35496562D01*
X173889Y34865720D01*
X1818894Y34864284D01*
X3339229Y35492474D01*
X4503438Y36654653D01*
X4790000Y37344771D01*
X4790000Y25655590D01*
X4507526Y26339229D01*
X3345347Y27503438D01*
X1826111Y28134280D01*
X181106Y28135716D01*
X-1339229Y27507526D01*
X-2503438Y26345347D01*
X-3134280Y24826111D01*
X-3135716Y23181106D01*
X-2507526Y21660771D01*
X-1345347Y20496562D01*
X173889Y19865720D01*
X1818894Y19864284D01*
X3339229Y20492474D01*
X4503438Y21654653D01*
X4790000Y22344771D01*
X4790000Y2759501D01*
X4317949Y3138344D01*
X1179605Y0D01*
X1193748Y-14143D01*
X1014143Y-193748D01*
X1000000Y-179605D01*
X-2138344Y-3317949D01*
X-1674010Y-3896524D01*
X-880006Y-4237000D01*
X-4180000Y-4237000D01*
X-4229410Y-4247006D01*
X-4271035Y-4275447D01*
X-4298315Y-4317841D01*
X-4307000Y-4364000D01*
X-4307000Y-9317000D01*
X-54853000Y-9317000D01*
X-54853000Y-1521834D01*
X-50135457Y-1521834D01*
X-49735147Y-2490658D01*
X-48994557Y-3232542D01*
X-48026433Y-3634542D01*
X-46978166Y-3635457D01*
X-46009342Y-3235147D01*
X-45267458Y-2494557D01*
X-44865458Y-1526433D01*
X-44864881Y-864447D01*
X-3646068Y-864447D01*
X-2961598Y-2576619D01*
X-2896524Y-2674010D01*
X-2317949Y-3138344D01*
X820395Y0D01*
X-2317949Y3138344D01*
X-2896524Y2674010D01*
X-3623218Y979328D01*
X-3646068Y-864447D01*
X-44864881Y-864447D01*
X-44864543Y-478166D01*
X-45264853Y490658D01*
X-46005443Y1232542D01*
X-46973567Y1634542D01*
X-48021834Y1635457D01*
X-48990658Y1235147D01*
X-49732542Y494557D01*
X-50134542Y-473567D01*
X-50135457Y-1521834D01*
X-54853000Y-1521834D01*
X-54853000Y3317949D01*
X-2138344Y3317949D01*
X1000000Y179605D01*
X4138344Y3317949D01*
X3674010Y3896524D01*
X1979328Y4623218D01*
X135553Y4646068D01*
X-1576619Y3961598D01*
X-1674010Y3896524D01*
X-2138344Y3317949D01*
X-54853000Y3317949D01*
X-54853000Y8082000D01*
X-54863006Y8131410D01*
X-54891447Y8173035D01*
X-54933841Y8200315D01*
X-54980000Y8209000D01*
X-99049000Y8209000D01*
X-99049000Y8478166D01*
X-50135457Y8478166D01*
X-49735147Y7509342D01*
X-48994557Y6767458D01*
X-48026433Y6365458D01*
X-46978166Y6364543D01*
X-46009342Y6764853D01*
X-45267458Y7505443D01*
X-44894607Y8403370D01*
X-22417025Y8403370D01*
X-22074434Y7928723D01*
X-20741200Y7368658D01*
X-19295125Y7361432D01*
X-17956361Y7908146D01*
X-17925566Y7928723D01*
X-17582975Y8403370D01*
X-20000000Y10820395D01*
X-22417025Y8403370D01*
X-44894607Y8403370D01*
X-44865458Y8473567D01*
X-44864543Y9521834D01*
X-45184060Y10295125D01*
X-23638568Y10295125D01*
X-23091854Y8956361D01*
X-23071277Y8925566D01*
X-22596630Y8582975D01*
X-20179605Y11000000D01*
X-19820395Y11000000D01*
X-17403370Y8582975D01*
X-16928723Y8925566D01*
X-16368658Y10258800D01*
X-16361432Y11704875D01*
X-16908146Y13043639D01*
X-16928723Y13074434D01*
X-17403370Y13417025D01*
X-19820395Y11000000D01*
X-20179605Y11000000D01*
X-22596630Y13417025D01*
X-23071277Y13074434D01*
X-23631342Y11741200D01*
X-23638568Y10295125D01*
X-45184060Y10295125D01*
X-45264853Y10490658D01*
X-46005443Y11232542D01*
X-46973567Y11634542D01*
X-48021834Y11635457D01*
X-48990658Y11235147D01*
X-49732542Y10494557D01*
X-50134542Y9526433D01*
X-50135457Y8478166D01*
X-99049000Y8478166D01*
X-99049000Y13416000D01*
X-99059006Y13465410D01*
X-99086197Y13505803D01*
X-99294644Y13714250D01*
X-96135000Y13714250D01*
X-96135000Y11373691D01*
X-96038327Y11140302D01*
X-95859699Y10961673D01*
X-95626310Y10865000D01*
X-92785750Y10865000D01*
X-92627000Y11023750D01*
X-92627000Y13873000D01*
X-92373000Y13873000D01*
X-92373000Y11023750D01*
X-92214250Y10865000D01*
X-89373690Y10865000D01*
X-89140301Y10961673D01*
X-88961673Y11140302D01*
X-88865000Y11373691D01*
X-88865000Y13714250D01*
X-89023750Y13873000D01*
X-92373000Y13873000D01*
X-92627000Y13873000D01*
X-95976250Y13873000D01*
X-96135000Y13714250D01*
X-99294644Y13714250D01*
X-102388197Y16807803D01*
X-102430211Y16835666D01*
X-102478000Y16845000D01*
X-114162000Y16845000D01*
X-114211410Y16834994D01*
X-114253035Y16806553D01*
X-114280315Y16764159D01*
X-114289000Y16718000D01*
X-114289000Y-9063000D01*
X-148071000Y-9063000D01*
X-148071000Y1732000D01*
X-148081006Y1781410D01*
X-148101050Y1814035D01*
X-150895050Y5116035D01*
X-150934604Y5147290D01*
X-150992000Y5161000D01*
X-153462999Y5161000D01*
X-152660771Y5492474D01*
X-151496562Y6654653D01*
X-150865720Y8173889D01*
X-150865520Y8403370D01*
X-136417025Y8403370D01*
X-136074434Y7928723D01*
X-134741200Y7368658D01*
X-133295125Y7361432D01*
X-131956361Y7908146D01*
X-131925566Y7928723D01*
X-131582975Y8403370D01*
X-134000000Y10820395D01*
X-136417025Y8403370D01*
X-150865520Y8403370D01*
X-150864284Y9818894D01*
X-151061058Y10295125D01*
X-137638568Y10295125D01*
X-137091854Y8956361D01*
X-137071277Y8925566D01*
X-136596630Y8582975D01*
X-134179605Y11000000D01*
X-133820395Y11000000D01*
X-131403370Y8582975D01*
X-130928723Y8925566D01*
X-130368658Y10258800D01*
X-130361432Y11704875D01*
X-130908146Y13043639D01*
X-130928723Y13074434D01*
X-131403370Y13417025D01*
X-133820395Y11000000D01*
X-134179605Y11000000D01*
X-136596630Y13417025D01*
X-137071277Y13074434D01*
X-137631342Y11741200D01*
X-137638568Y10295125D01*
X-151061058Y10295125D01*
X-151492474Y11339229D01*
X-152654653Y12503438D01*
X-154173889Y13134280D01*
X-155818894Y13135716D01*
X-157339229Y12507526D01*
X-158503438Y11345347D01*
X-158790000Y10655229D01*
X-158790000Y13596630D01*
X-136417025Y13596630D01*
X-134000000Y11179605D01*
X-131582975Y13596630D01*
X-131925566Y14071277D01*
X-133258800Y14631342D01*
X-134704875Y14638568D01*
X-136043639Y14091854D01*
X-136074434Y14071277D01*
X-136417025Y13596630D01*
X-158790000Y13596630D01*
X-158790000Y22344410D01*
X-158507526Y21660771D01*
X-157345347Y20496562D01*
X-155826111Y19865720D01*
X-154181106Y19864284D01*
X-152660771Y20492474D01*
X-151496562Y21654653D01*
X-150865720Y23173889D01*
X-150864284Y24818894D01*
X-151492474Y26339229D01*
X-152654653Y27503438D01*
X-154173889Y28134280D01*
X-155818894Y28135716D01*
X-157339229Y27507526D01*
X-158503438Y26345347D01*
X-158790000Y25655229D01*
X-158790000Y44682051D01*
X-158138344Y44682051D01*
X-157674010Y44103476D01*
X-155979328Y43376782D01*
X-154135553Y43353932D01*
X-152423381Y44038402D01*
X-152325990Y44103476D01*
X-151861656Y44682051D01*
X-155000000Y47820395D01*
X-158138344Y44682051D01*
X-158790000Y44682051D01*
X-158790000Y45240499D01*
X-158317949Y44861656D01*
X-155179605Y48000000D01*
X-154820395Y48000000D01*
X-151682051Y44861656D01*
X-151103476Y45325990D01*
X-150376782Y47020672D01*
X-150353932Y48864447D01*
X-151038402Y50576619D01*
X-151103476Y50674010D01*
X-151682051Y51138344D01*
X-154820395Y48000000D01*
X-155179605Y48000000D01*
X-155193747Y48014142D01*
X-155014142Y48193747D01*
X-155000000Y48179605D01*
X-151861656Y51317949D01*
X-152325990Y51896524D01*
X-153153485Y52251361D01*
X-152543409Y52659000D01*
X-149595000Y52659000D01*
X-149595000Y20528000D01*
M02*
