M48
;DRILL file {KiCad 4.0.7-e2-6376~61~ubuntu18.04.1} date Mon May 28 17:39:51 2018
;FORMAT={-:-/ absolute / inch / decimal}
FMAT,2
INCH,TZ
T1C0.016
T2C0.031
T3C0.039
T4C0.047
T5C0.098
T6C0.118
T7C0.177
%
G90
G05
M72
T1
X-5.5596Y1.9482
X-4.3846Y0.4682
X-4.1946Y0.5582
X-3.6146Y1.3982
X-3.5646Y1.3182
X-3.3346Y1.8094
X-3.3346Y1.7082
X-3.1546Y1.7782
X-2.8846Y1.8994
X-2.8546Y0.6582
X-2.6946Y2.0494
X-2.6546Y0.8482
X-2.6146Y1.2582
X-2.4446Y0.8482
X-2.4196Y1.8057
X-2.4146Y1.5794
X-2.1746Y1.5394
X-2.1196Y2.2357
X-2.0746Y2.2357
X-2.0271Y2.2357
X-1.9771Y2.2357
X-1.7946Y1.6294
X-1.5946Y1.6682
X-1.5446Y1.6282
X-1.485Y1.775
X-1.385Y1.775
X-1.3746Y1.6182
X-1.1046Y1.6932
X-1.0346Y1.7632
X-0.4346Y1.8482
X-0.4346Y1.7582
X-0.4346Y1.6882
X-0.255Y2.03
T2
X-3.6246Y1.1482
X-3.6246Y1.0482
X-3.6246Y0.9482
X-2.2346Y1.8433
X-2.2346Y1.2433
X-2.1346Y1.8433
X-2.1346Y1.2433
X-2.0346Y1.8433
X-2.0346Y1.2433
X-1.9346Y1.8433
X-1.9346Y1.2433
X-1.8346Y1.8433
X-1.8346Y1.2433
X-1.7346Y1.8433
X-1.7346Y1.2433
X-1.6346Y1.8433
X-1.6346Y1.2433
X-1.5346Y1.8433
X-1.5346Y1.2433
X-1.4346Y1.8433
X-1.4346Y1.2433
X-1.3446Y2.1182
X-1.3346Y1.8433
X-1.3346Y1.2433
X-1.2446Y2.1182
X-1.2346Y1.8433
X-1.2346Y1.2433
X-1.1446Y2.1182
X-1.1346Y1.8433
X-1.1346Y1.2433
X-1.0346Y1.8433
X-1.0346Y1.2433
X-0.9346Y1.8433
X-0.9346Y1.2433
X-0.8862Y2.15
X-0.8346Y1.8433
X-0.8346Y1.2433
X-0.8075Y2.15
X-0.7287Y2.15
X-0.65Y2.15
X-0.5746Y1.7332
X-0.5746Y1.6332
X-0.5746Y1.5332
X-0.4846Y1.2682
X-0.3846Y1.2682
X-0.2846Y1.2682
X-0.2746Y1.7332
X-0.2746Y1.6332
X-0.2746Y1.5332
T3
X-5.7693Y1.9286
X-5.7693Y1.8286
X-5.7693Y1.7286
X-5.7693Y1.6286
X-5.7693Y1.5286
X-5.7693Y1.4286
X-5.7693Y1.3286
X-5.7693Y1.2286
X-5.6693Y1.9286
X-5.6693Y1.8286
X-5.6693Y1.7286
X-5.6693Y1.6286
X-5.6693Y1.5286
X-5.6693Y1.4286
X-5.6693Y1.3286
X-5.6693Y1.2286
X-5.2638Y2.1024
X-5.0591Y0.9449
X-4.8622Y0.9449
X-4.6575Y2.1024
X-4.4488Y1.9685
X-4.4488Y1.7323
X-3.622Y2.0276
X-3.622Y1.8701
X-3.622Y1.7126
X-2.5446Y0.7382
X-2.4446Y0.7382
X-2.3446Y0.7382
X-2.2346Y1.9496
X-2.2346Y1.137
X-2.1346Y1.9496
X-2.1346Y1.137
X-2.0346Y1.9496
X-2.0346Y1.137
X-1.9346Y1.9496
X-1.9346Y1.137
X-1.8346Y1.9496
X-1.8346Y1.137
X-1.7346Y1.9496
X-1.7346Y1.137
X-1.6346Y1.9496
X-1.6346Y1.137
X-1.5346Y1.9496
X-1.5346Y1.137
X-1.4346Y1.9496
X-1.4346Y1.137
X-1.3346Y1.9496
X-1.3346Y1.137
X-1.2346Y1.9496
X-1.2346Y1.137
X-1.1346Y1.9496
X-1.1346Y1.137
X-1.0346Y1.9496
X-1.0346Y1.137
X-0.9346Y1.9496
X-0.9346Y1.137
X-0.85Y0.9469
X-0.85Y0.75
X-0.8346Y1.9496
X-0.8346Y1.137
X-0.46Y0.96
X-0.46Y0.86
X-0.46Y0.76
X-0.31Y0.96
X-0.31Y0.86
X-0.21Y0.96
X-0.21Y0.86
T4
X-4.3335Y1.4203
X-4.3335Y0.9361
X-3.9556Y1.4203
X-3.9556Y0.9361
T5
X-3.6417Y0.5512
X-3.6417Y0.1575
X-3.6417Y-0.2362
X-2.4213Y0.5512
X-2.4213Y0.1575
X-2.4213Y-0.2362
T6
X-5.2756Y0.4331
X-0.7874Y0.4331
T7
X-6.1024Y1.8898
X0.0394Y0.
T0
M30
