G04 #@! TF.FileFunction,Legend,Top*
%FSLAX46Y46*%
G04 Gerber Fmt 4.6, Leading zero omitted, Abs format (unit mm)*
G04 Created by KiCad (PCBNEW 4.0.7-e2-6376~61~ubuntu18.04.1) date Tue May 29 09:04:43 2018*
%MOMM*%
%LPD*%
G01*
G04 APERTURE LIST*
%ADD10C,0.100000*%
%ADD11C,0.200000*%
%ADD12C,0.150000*%
%ADD13C,0.300000*%
%ADD14C,0.120000*%
G04 APERTURE END LIST*
D10*
D11*
X-5048096Y19359619D02*
X-5143334Y19407238D01*
X-5190953Y19502476D01*
X-5190953Y20359619D01*
X-4524286Y19359619D02*
X-4619524Y19407238D01*
X-4667143Y19454857D01*
X-4714762Y19550095D01*
X-4714762Y19835810D01*
X-4667143Y19931048D01*
X-4619524Y19978667D01*
X-4524286Y20026286D01*
X-4381428Y20026286D01*
X-4286190Y19978667D01*
X-4238571Y19931048D01*
X-4190952Y19835810D01*
X-4190952Y19550095D01*
X-4238571Y19454857D01*
X-4286190Y19407238D01*
X-4381428Y19359619D01*
X-4524286Y19359619D01*
X-3333809Y19359619D02*
X-3333809Y19883429D01*
X-3381428Y19978667D01*
X-3476666Y20026286D01*
X-3667143Y20026286D01*
X-3762381Y19978667D01*
X-3333809Y19407238D02*
X-3429047Y19359619D01*
X-3667143Y19359619D01*
X-3762381Y19407238D01*
X-3810000Y19502476D01*
X-3810000Y19597714D01*
X-3762381Y19692952D01*
X-3667143Y19740571D01*
X-3429047Y19740571D01*
X-3333809Y19788190D01*
X-2429047Y19359619D02*
X-2429047Y20359619D01*
X-2429047Y19407238D02*
X-2524285Y19359619D01*
X-2714762Y19359619D01*
X-2810000Y19407238D01*
X-2857619Y19454857D01*
X-2905238Y19550095D01*
X-2905238Y19835810D01*
X-2857619Y19931048D01*
X-2810000Y19978667D01*
X-2714762Y20026286D01*
X-2524285Y20026286D01*
X-2429047Y19978667D01*
X-8993047Y19407238D02*
X-9088285Y19359619D01*
X-9278762Y19359619D01*
X-9374000Y19407238D01*
X-9421619Y19454857D01*
X-9469238Y19550095D01*
X-9469238Y19835810D01*
X-9421619Y19931048D01*
X-9374000Y19978667D01*
X-9278762Y20026286D01*
X-9088285Y20026286D01*
X-8993047Y19978667D01*
X-8421619Y19359619D02*
X-8516857Y19407238D01*
X-8564476Y19454857D01*
X-8612095Y19550095D01*
X-8612095Y19835810D01*
X-8564476Y19931048D01*
X-8516857Y19978667D01*
X-8421619Y20026286D01*
X-8278761Y20026286D01*
X-8183523Y19978667D01*
X-8135904Y19931048D01*
X-8088285Y19835810D01*
X-8088285Y19550095D01*
X-8135904Y19454857D01*
X-8183523Y19407238D01*
X-8278761Y19359619D01*
X-8421619Y19359619D01*
X-7659714Y20026286D02*
X-7659714Y19359619D01*
X-7659714Y19931048D02*
X-7612095Y19978667D01*
X-7516857Y20026286D01*
X-7373999Y20026286D01*
X-7278761Y19978667D01*
X-7231142Y19883429D01*
X-7231142Y19359619D01*
X-6754952Y20026286D02*
X-6754952Y19359619D01*
X-6754952Y19931048D02*
X-6707333Y19978667D01*
X-6612095Y20026286D01*
X-6469237Y20026286D01*
X-6373999Y19978667D01*
X-6326380Y19883429D01*
X-6326380Y19359619D01*
D12*
X-66354285Y20424857D02*
X-66401904Y20377238D01*
X-66544761Y20329619D01*
X-66639999Y20329619D01*
X-66782857Y20377238D01*
X-66878095Y20472476D01*
X-66925714Y20567714D01*
X-66973333Y20758190D01*
X-66973333Y20901048D01*
X-66925714Y21091524D01*
X-66878095Y21186762D01*
X-66782857Y21282000D01*
X-66639999Y21329619D01*
X-66544761Y21329619D01*
X-66401904Y21282000D01*
X-66354285Y21234381D01*
X-65925714Y21329619D02*
X-65925714Y20520095D01*
X-65878095Y20424857D01*
X-65830476Y20377238D01*
X-65735238Y20329619D01*
X-65544761Y20329619D01*
X-65449523Y20377238D01*
X-65401904Y20424857D01*
X-65354285Y20520095D01*
X-65354285Y21329619D01*
X-64306666Y20329619D02*
X-64640000Y20805810D01*
X-64878095Y20329619D02*
X-64878095Y21329619D01*
X-64497142Y21329619D01*
X-64401904Y21282000D01*
X-64354285Y21234381D01*
X-64306666Y21139143D01*
X-64306666Y20996286D01*
X-64354285Y20901048D01*
X-64401904Y20853429D01*
X-64497142Y20805810D01*
X-64878095Y20805810D01*
X-63306666Y20329619D02*
X-63640000Y20805810D01*
X-63878095Y20329619D02*
X-63878095Y21329619D01*
X-63497142Y21329619D01*
X-63401904Y21282000D01*
X-63354285Y21234381D01*
X-63306666Y21139143D01*
X-63306666Y20996286D01*
X-63354285Y20901048D01*
X-63401904Y20853429D01*
X-63497142Y20805810D01*
X-63878095Y20805810D01*
X-62425333Y21329619D02*
X-62092000Y20329619D01*
X-61758666Y21329619D01*
X-60059904Y21282000D02*
X-60155142Y21329619D01*
X-60297999Y21329619D01*
X-60440857Y21282000D01*
X-60536095Y21186762D01*
X-60583714Y21091524D01*
X-60631333Y20901048D01*
X-60631333Y20758190D01*
X-60583714Y20567714D01*
X-60536095Y20472476D01*
X-60440857Y20377238D01*
X-60297999Y20329619D01*
X-60202761Y20329619D01*
X-60059904Y20377238D01*
X-60012285Y20424857D01*
X-60012285Y20758190D01*
X-60202761Y20758190D01*
X-59583714Y20329619D02*
X-59583714Y21329619D01*
X-59012285Y20329619D01*
X-59012285Y21329619D01*
X-58536095Y20329619D02*
X-58536095Y21329619D01*
X-58298000Y21329619D01*
X-58155142Y21282000D01*
X-58059904Y21186762D01*
X-58012285Y21091524D01*
X-57964666Y20901048D01*
X-57964666Y20758190D01*
X-58012285Y20567714D01*
X-58059904Y20472476D01*
X-58155142Y20377238D01*
X-58298000Y20329619D01*
X-58536095Y20329619D01*
D13*
X-29381428Y18325429D02*
X-29381428Y19825429D01*
X-28810000Y19825429D01*
X-28667142Y19754000D01*
X-28595714Y19682571D01*
X-28524285Y19539714D01*
X-28524285Y19325429D01*
X-28595714Y19182571D01*
X-28667142Y19111143D01*
X-28810000Y19039714D01*
X-29381428Y19039714D01*
X-27881428Y19111143D02*
X-27381428Y19111143D01*
X-27167142Y18325429D02*
X-27881428Y18325429D01*
X-27881428Y19825429D01*
X-27167142Y19825429D01*
D12*
X-15192286Y18597619D02*
X-15192286Y19597619D01*
X-14811333Y19597619D01*
X-14716095Y19550000D01*
X-14668476Y19502381D01*
X-14620857Y19407143D01*
X-14620857Y19264286D01*
X-14668476Y19169048D01*
X-14716095Y19121429D01*
X-14811333Y19073810D01*
X-15192286Y19073810D01*
X-14192286Y19121429D02*
X-13858952Y19121429D01*
X-13716095Y18597619D02*
X-14192286Y18597619D01*
X-14192286Y19597619D01*
X-13716095Y19597619D01*
D13*
X-66453714Y-6820571D02*
X-67168000Y-6820571D01*
X-67168000Y-5320571D01*
X-67346571Y3339429D02*
X-67346571Y4839429D01*
X-66489428Y3339429D01*
X-66489428Y4839429D01*
X-67735428Y13245429D02*
X-67735428Y14745429D01*
X-67164000Y14745429D01*
X-67021142Y14674000D01*
X-66949714Y14602571D01*
X-66878285Y14459714D01*
X-66878285Y14245429D01*
X-66949714Y14102571D01*
X-67021142Y14031143D01*
X-67164000Y13959714D01*
X-67735428Y13959714D01*
X-66235428Y14031143D02*
X-65735428Y14031143D01*
X-65521142Y13245429D02*
X-66235428Y13245429D01*
X-66235428Y14745429D01*
X-65521142Y14745429D01*
D11*
X-31235714Y-8342286D02*
X-30835714Y-8342286D01*
X-30664285Y-8970857D02*
X-31235714Y-8970857D01*
X-31235714Y-7770857D01*
X-30664285Y-7770857D01*
X-30321428Y-7770857D02*
X-29921428Y-8970857D01*
X-29521428Y-7770857D01*
X-27521428Y-8856571D02*
X-27578571Y-8913714D01*
X-27750000Y-8970857D01*
X-27864286Y-8970857D01*
X-28035714Y-8913714D01*
X-28150000Y-8799429D01*
X-28207143Y-8685143D01*
X-28264286Y-8456571D01*
X-28264286Y-8285143D01*
X-28207143Y-8056571D01*
X-28150000Y-7942286D01*
X-28035714Y-7828000D01*
X-27864286Y-7770857D01*
X-27750000Y-7770857D01*
X-27578571Y-7828000D01*
X-27521428Y-7885143D01*
X-27007143Y-8970857D02*
X-27007143Y-7770857D01*
X-26492857Y-8970857D02*
X-26492857Y-8342286D01*
X-26550000Y-8228000D01*
X-26664286Y-8170857D01*
X-26835714Y-8170857D01*
X-26950000Y-8228000D01*
X-27007143Y-8285143D01*
X-25407143Y-8970857D02*
X-25407143Y-8342286D01*
X-25464286Y-8228000D01*
X-25578572Y-8170857D01*
X-25807143Y-8170857D01*
X-25921429Y-8228000D01*
X-25407143Y-8913714D02*
X-25521429Y-8970857D01*
X-25807143Y-8970857D01*
X-25921429Y-8913714D01*
X-25978572Y-8799429D01*
X-25978572Y-8685143D01*
X-25921429Y-8570857D01*
X-25807143Y-8513714D01*
X-25521429Y-8513714D01*
X-25407143Y-8456571D01*
X-24835715Y-8970857D02*
X-24835715Y-8170857D01*
X-24835715Y-8399429D02*
X-24778572Y-8285143D01*
X-24721429Y-8228000D01*
X-24607143Y-8170857D01*
X-24492858Y-8170857D01*
X-23578572Y-8170857D02*
X-23578572Y-9142286D01*
X-23635715Y-9256571D01*
X-23692858Y-9313714D01*
X-23807143Y-9370857D01*
X-23978572Y-9370857D01*
X-24092858Y-9313714D01*
X-23578572Y-8913714D02*
X-23692858Y-8970857D01*
X-23921429Y-8970857D01*
X-24035715Y-8913714D01*
X-24092858Y-8856571D01*
X-24150001Y-8742286D01*
X-24150001Y-8399429D01*
X-24092858Y-8285143D01*
X-24035715Y-8228000D01*
X-23921429Y-8170857D01*
X-23692858Y-8170857D01*
X-23578572Y-8228000D01*
X-22550001Y-8913714D02*
X-22664287Y-8970857D01*
X-22892858Y-8970857D01*
X-23007144Y-8913714D01*
X-23064287Y-8799429D01*
X-23064287Y-8342286D01*
X-23007144Y-8228000D01*
X-22892858Y-8170857D01*
X-22664287Y-8170857D01*
X-22550001Y-8228000D01*
X-22492858Y-8342286D01*
X-22492858Y-8456571D01*
X-23064287Y-8570857D01*
X-21978573Y-8970857D02*
X-21978573Y-8170857D01*
X-21978573Y-8399429D02*
X-21921430Y-8285143D01*
X-21864287Y-8228000D01*
X-21750001Y-8170857D01*
X-21635716Y-8170857D01*
X-20321430Y-8970857D02*
X-20321430Y-7770857D01*
X-19921430Y-8628000D01*
X-19521430Y-7770857D01*
X-19521430Y-8970857D01*
X-18950001Y-8342286D02*
X-18550001Y-8342286D01*
X-18378572Y-8970857D02*
X-18950001Y-8970857D01*
X-18950001Y-7770857D01*
X-18378572Y-7770857D01*
X-18035715Y-7770857D02*
X-17350001Y-7770857D01*
X-17692858Y-8970857D02*
X-17692858Y-7770857D01*
X-16321429Y-8970857D02*
X-17007144Y-8970857D01*
X-16664286Y-8970857D02*
X-16664286Y-7770857D01*
X-16778572Y-7942286D01*
X-16892858Y-8056571D01*
X-17007144Y-8113714D01*
X-15292858Y-7770857D02*
X-15521429Y-7770857D01*
X-15635715Y-7828000D01*
X-15692858Y-7885143D01*
X-15807144Y-8056571D01*
X-15864287Y-8285143D01*
X-15864287Y-8742286D01*
X-15807144Y-8856571D01*
X-15750001Y-8913714D01*
X-15635715Y-8970857D01*
X-15407144Y-8970857D01*
X-15292858Y-8913714D01*
X-15235715Y-8856571D01*
X-15178572Y-8742286D01*
X-15178572Y-8456571D01*
X-15235715Y-8342286D01*
X-15292858Y-8285143D01*
X-15407144Y-8228000D01*
X-15635715Y-8228000D01*
X-15750001Y-8285143D01*
X-15807144Y-8342286D01*
X-15864287Y-8456571D01*
X-13921429Y-7770857D02*
X-13521429Y-8970857D01*
X-13121429Y-7770857D01*
X-12492858Y-7770857D02*
X-12378573Y-7770857D01*
X-12264287Y-7828000D01*
X-12207144Y-7885143D01*
X-12150001Y-7999429D01*
X-12092858Y-8228000D01*
X-12092858Y-8513714D01*
X-12150001Y-8742286D01*
X-12207144Y-8856571D01*
X-12264287Y-8913714D01*
X-12378573Y-8970857D01*
X-12492858Y-8970857D01*
X-12607144Y-8913714D01*
X-12664287Y-8856571D01*
X-12721430Y-8742286D01*
X-12778573Y-8513714D01*
X-12778573Y-8228000D01*
X-12721430Y-7999429D01*
X-12664287Y-7885143D01*
X-12607144Y-7828000D01*
X-12492858Y-7770857D01*
X-11578573Y-8856571D02*
X-11521430Y-8913714D01*
X-11578573Y-8970857D01*
X-11635716Y-8913714D01*
X-11578573Y-8856571D01*
X-11578573Y-8970857D01*
X-11064287Y-7885143D02*
X-11007144Y-7828000D01*
X-10892858Y-7770857D01*
X-10607144Y-7770857D01*
X-10492858Y-7828000D01*
X-10435715Y-7885143D01*
X-10378572Y-7999429D01*
X-10378572Y-8113714D01*
X-10435715Y-8285143D01*
X-11121429Y-8970857D01*
X-10378572Y-8970857D01*
X-8092858Y-7713714D02*
X-9121429Y-9256571D01*
X-6835715Y-8913714D02*
X-6664286Y-8970857D01*
X-6378572Y-8970857D01*
X-6264286Y-8913714D01*
X-6207143Y-8856571D01*
X-6150000Y-8742286D01*
X-6150000Y-8628000D01*
X-6207143Y-8513714D01*
X-6264286Y-8456571D01*
X-6378572Y-8399429D01*
X-6607143Y-8342286D01*
X-6721429Y-8285143D01*
X-6778572Y-8228000D01*
X-6835715Y-8113714D01*
X-6835715Y-7999429D01*
X-6778572Y-7885143D01*
X-6721429Y-7828000D01*
X-6607143Y-7770857D01*
X-6321429Y-7770857D01*
X-6150000Y-7828000D01*
X-5750000Y-7770857D02*
X-4950000Y-8970857D01*
X-4950000Y-7770857D02*
X-5750000Y-8970857D01*
D13*
X-34995142Y-1988357D02*
X-34495142Y-1988357D01*
X-34280856Y-2774071D02*
X-34995142Y-2774071D01*
X-34995142Y-1274071D01*
X-34280856Y-1274071D01*
X-33852285Y-1274071D02*
X-33352285Y-2774071D01*
X-32852285Y-1274071D01*
X-30138000Y-1202643D02*
X-31423714Y-3131214D01*
X-28709428Y-1274071D02*
X-27852285Y-1274071D01*
X-28280856Y-2774071D02*
X-28280856Y-1274071D01*
X-27066571Y-2059786D02*
X-27066571Y-2774071D01*
X-27566571Y-1274071D02*
X-27066571Y-2059786D01*
X-26566571Y-1274071D01*
X-26066571Y-2774071D02*
X-26066571Y-1274071D01*
X-25495143Y-1274071D01*
X-25352285Y-1345500D01*
X-25280857Y-1416929D01*
X-25209428Y-1559786D01*
X-25209428Y-1774071D01*
X-25280857Y-1916929D01*
X-25352285Y-1988357D01*
X-25495143Y-2059786D01*
X-26066571Y-2059786D01*
X-23495143Y-1416929D02*
X-23423714Y-1345500D01*
X-23280857Y-1274071D01*
X-22923714Y-1274071D01*
X-22780857Y-1345500D01*
X-22709428Y-1416929D01*
X-22638000Y-1559786D01*
X-22638000Y-1702643D01*
X-22709428Y-1916929D01*
X-23566571Y-2774071D01*
X-22638000Y-2774071D01*
X-20852286Y-2202643D02*
X-19709429Y-2202643D01*
X-17566572Y-1274071D02*
X-17280858Y-1274071D01*
X-17138000Y-1345500D01*
X-16995143Y-1488357D01*
X-16923715Y-1774071D01*
X-16923715Y-2274071D01*
X-16995143Y-2559786D01*
X-17138000Y-2702643D01*
X-17280858Y-2774071D01*
X-17566572Y-2774071D01*
X-17709429Y-2702643D01*
X-17852286Y-2559786D01*
X-17923715Y-2274071D01*
X-17923715Y-1774071D01*
X-17852286Y-1488357D01*
X-17709429Y-1345500D01*
X-17566572Y-1274071D01*
X-16280857Y-1274071D02*
X-16280857Y-2488357D01*
X-16209429Y-2631214D01*
X-16138000Y-2702643D01*
X-15995143Y-2774071D01*
X-15709429Y-2774071D01*
X-15566571Y-2702643D01*
X-15495143Y-2631214D01*
X-15423714Y-2488357D01*
X-15423714Y-1274071D01*
X-14923714Y-1274071D02*
X-14066571Y-1274071D01*
X-14495142Y-2774071D02*
X-14495142Y-1274071D01*
X-139116285Y-1145429D02*
X-139044856Y-1074000D01*
X-138901999Y-1002571D01*
X-138544856Y-1002571D01*
X-138401999Y-1074000D01*
X-138330570Y-1145429D01*
X-138259142Y-1288286D01*
X-138259142Y-1431143D01*
X-138330570Y-1645429D01*
X-139187713Y-2502571D01*
X-138259142Y-2502571D01*
X-137759142Y-1002571D02*
X-136830571Y-1002571D01*
X-137330571Y-1574000D01*
X-137116285Y-1574000D01*
X-136973428Y-1645429D01*
X-136901999Y-1716857D01*
X-136830571Y-1859714D01*
X-136830571Y-2216857D01*
X-136901999Y-2359714D01*
X-136973428Y-2431143D01*
X-137116285Y-2502571D01*
X-137544857Y-2502571D01*
X-137687714Y-2431143D01*
X-137759142Y-2359714D01*
X-135902000Y-1002571D02*
X-135759143Y-1002571D01*
X-135616286Y-1074000D01*
X-135544857Y-1145429D01*
X-135473428Y-1288286D01*
X-135402000Y-1574000D01*
X-135402000Y-1931143D01*
X-135473428Y-2216857D01*
X-135544857Y-2359714D01*
X-135616286Y-2431143D01*
X-135759143Y-2502571D01*
X-135902000Y-2502571D01*
X-136044857Y-2431143D01*
X-136116286Y-2359714D01*
X-136187714Y-2216857D01*
X-136259143Y-1931143D01*
X-136259143Y-1574000D01*
X-136187714Y-1288286D01*
X-136116286Y-1145429D01*
X-136044857Y-1074000D01*
X-135902000Y-1002571D01*
X-134973429Y-1002571D02*
X-134473429Y-2502571D01*
X-133973429Y-1002571D01*
X-131259144Y-931143D02*
X-132544858Y-2859714D01*
X-128830572Y-2502571D02*
X-129687715Y-2502571D01*
X-129259143Y-2502571D02*
X-129259143Y-1002571D01*
X-129402000Y-1216857D01*
X-129544858Y-1359714D01*
X-129687715Y-1431143D01*
X-127544858Y-1002571D02*
X-127830572Y-1002571D01*
X-127973429Y-1074000D01*
X-128044858Y-1145429D01*
X-128187715Y-1359714D01*
X-128259144Y-1645429D01*
X-128259144Y-2216857D01*
X-128187715Y-2359714D01*
X-128116287Y-2431143D01*
X-127973429Y-2502571D01*
X-127687715Y-2502571D01*
X-127544858Y-2431143D01*
X-127473429Y-2359714D01*
X-127402001Y-2216857D01*
X-127402001Y-1859714D01*
X-127473429Y-1716857D01*
X-127544858Y-1645429D01*
X-127687715Y-1574000D01*
X-127973429Y-1574000D01*
X-128116287Y-1645429D01*
X-128187715Y-1716857D01*
X-128259144Y-1859714D01*
X-126830573Y-2074000D02*
X-126116287Y-2074000D01*
X-126973430Y-2502571D02*
X-126473430Y-1002571D01*
X-125973430Y-2502571D01*
X-124330573Y-1931143D02*
X-123187716Y-1931143D01*
X-121330573Y-2502571D02*
X-121330573Y-1002571D01*
X-120616287Y-2502571D02*
X-120616287Y-1002571D01*
X-119759144Y-2502571D01*
X-119759144Y-1002571D01*
X-86773714Y-6820571D02*
X-87488000Y-6820571D01*
X-87488000Y-5320571D01*
X-87412571Y3339429D02*
X-87412571Y4839429D01*
X-86555428Y3339429D01*
X-86555428Y4839429D01*
X-88309428Y13245429D02*
X-88309428Y14745429D01*
X-87738000Y14745429D01*
X-87595142Y14674000D01*
X-87523714Y14602571D01*
X-87452285Y14459714D01*
X-87452285Y14245429D01*
X-87523714Y14102571D01*
X-87595142Y14031143D01*
X-87738000Y13959714D01*
X-88309428Y13959714D01*
X-86809428Y14031143D02*
X-86309428Y14031143D01*
X-86095142Y13245429D02*
X-86809428Y13245429D01*
X-86809428Y14745429D01*
X-86095142Y14745429D01*
X-55428Y5925429D02*
X-55428Y7425429D01*
X516000Y7425429D01*
X658858Y7354000D01*
X730286Y7282571D01*
X801715Y7139714D01*
X801715Y6925429D01*
X730286Y6782571D01*
X658858Y6711143D01*
X516000Y6639714D01*
X-55428Y6639714D01*
X1444572Y6711143D02*
X1944572Y6711143D01*
X2158858Y5925429D02*
X1444572Y5925429D01*
X1444572Y7425429D01*
X2158858Y7425429D01*
X-156011428Y41231429D02*
X-156011428Y42731429D01*
X-155440000Y42731429D01*
X-155297142Y42660000D01*
X-155225714Y42588571D01*
X-155154285Y42445714D01*
X-155154285Y42231429D01*
X-155225714Y42088571D01*
X-155297142Y42017143D01*
X-155440000Y41945714D01*
X-156011428Y41945714D01*
X-154511428Y42017143D02*
X-154011428Y42017143D01*
X-153797142Y41231429D02*
X-154511428Y41231429D01*
X-154511428Y42731429D01*
X-153797142Y42731429D01*
D12*
X-4000000Y48500000D02*
G75*
G03X1000000Y43500000I5000000J0D01*
G01*
X5500000Y39000000D02*
G75*
G03X1000000Y43500000I-4500000J0D01*
G01*
X-150000000Y-500000D02*
G75*
G03X-155000000Y4500000I-5000000J0D01*
G01*
X-159500000Y9000000D02*
G75*
G03X-155000000Y4500000I4500000J0D01*
G01*
X-5500000Y-11000000D02*
G75*
G03X-2500000Y-8000000I0J3000000D01*
G01*
X1000000Y-4500000D02*
G75*
G03X-2500000Y-8000000I0J-3500000D01*
G01*
X1000000Y-4500000D02*
G75*
G03X5500000Y0I0J4500000D01*
G01*
X-155000000Y52500000D02*
G75*
G03X-151500000Y56000000I0J3500000D01*
G01*
X-155000000Y52500000D02*
G75*
G03X-159500000Y48000000I0J-4500000D01*
G01*
X-148500000Y59000000D02*
G75*
G03X-151500000Y56000000I0J-3000000D01*
G01*
X-147000000Y-11000000D02*
X-5500000Y-11000000D01*
X5500000Y0D02*
X5500000Y39000000D01*
X-150000000Y-8000000D02*
X-150000000Y-500000D01*
X-150000000Y-8000000D02*
G75*
G03X-147000000Y-11000000I3000000J0D01*
G01*
X-4000000Y56000000D02*
X-4000000Y48500000D01*
X-4000000Y56000000D02*
G75*
G03X-7000000Y59000000I-3000000J0D01*
G01*
X-159500000Y48000000D02*
X-159500000Y9000000D01*
X-7000000Y59000000D02*
X-148500000Y59000000D01*
D13*
X-28595714Y23294286D02*
X-28667143Y23222857D01*
X-28881429Y23151429D01*
X-29024286Y23151429D01*
X-29238571Y23222857D01*
X-29381429Y23365714D01*
X-29452857Y23508571D01*
X-29524286Y23794286D01*
X-29524286Y24008571D01*
X-29452857Y24294286D01*
X-29381429Y24437143D01*
X-29238571Y24580000D01*
X-29024286Y24651429D01*
X-28881429Y24651429D01*
X-28667143Y24580000D01*
X-28595714Y24508571D01*
X-27952857Y23151429D02*
X-27952857Y24651429D01*
X-27381429Y24651429D01*
X-27238571Y24580000D01*
X-27167143Y24508571D01*
X-27095714Y24365714D01*
X-27095714Y24151429D01*
X-27167143Y24008571D01*
X-27238571Y23937143D01*
X-27381429Y23865714D01*
X-27952857Y23865714D01*
D12*
X-14668476Y24026857D02*
X-14716095Y23979238D01*
X-14858952Y23931619D01*
X-14954190Y23931619D01*
X-15097048Y23979238D01*
X-15192286Y24074476D01*
X-15239905Y24169714D01*
X-15287524Y24360190D01*
X-15287524Y24503048D01*
X-15239905Y24693524D01*
X-15192286Y24788762D01*
X-15097048Y24884000D01*
X-14954190Y24931619D01*
X-14858952Y24931619D01*
X-14716095Y24884000D01*
X-14668476Y24836381D01*
X-14239905Y23931619D02*
X-14239905Y24931619D01*
X-13858952Y24931619D01*
X-13763714Y24884000D01*
X-13716095Y24836381D01*
X-13668476Y24741143D01*
X-13668476Y24598286D01*
X-13716095Y24503048D01*
X-13763714Y24455429D01*
X-13858952Y24407810D01*
X-14239905Y24407810D01*
X-15493904Y22344000D02*
X-15589142Y22391619D01*
X-15731999Y22391619D01*
X-15874857Y22344000D01*
X-15970095Y22248762D01*
X-16017714Y22153524D01*
X-16065333Y21963048D01*
X-16065333Y21820190D01*
X-16017714Y21629714D01*
X-15970095Y21534476D01*
X-15874857Y21439238D01*
X-15731999Y21391619D01*
X-15636761Y21391619D01*
X-15493904Y21439238D01*
X-15446285Y21486857D01*
X-15446285Y21820190D01*
X-15636761Y21820190D01*
X-15017714Y21391619D02*
X-15017714Y22391619D01*
X-14446285Y21391619D01*
X-14446285Y22391619D01*
X-13970095Y21391619D02*
X-13970095Y22391619D01*
X-13732000Y22391619D01*
X-13589142Y22344000D01*
X-13493904Y22248762D01*
X-13446285Y22153524D01*
X-13398666Y21963048D01*
X-13398666Y21820190D01*
X-13446285Y21629714D01*
X-13493904Y21534476D01*
X-13589142Y21439238D01*
X-13732000Y21391619D01*
X-13970095Y21391619D01*
X-12625047Y35807619D02*
X-11958380Y35807619D01*
X-12386952Y34807619D01*
X-11625047Y35093333D02*
X-11148856Y35093333D01*
X-11720285Y34807619D02*
X-11386952Y35807619D01*
X-11053618Y34807619D01*
X-9958380Y34902857D02*
X-9910761Y34855238D01*
X-9958380Y34807619D01*
X-10005999Y34855238D01*
X-9958380Y34902857D01*
X-9958380Y34807619D01*
X-9482190Y34902857D02*
X-9434571Y34855238D01*
X-9482190Y34807619D01*
X-9529809Y34855238D01*
X-9482190Y34902857D01*
X-9482190Y34807619D01*
X-9006000Y34902857D02*
X-8958381Y34855238D01*
X-9006000Y34807619D01*
X-9053619Y34855238D01*
X-9006000Y34902857D01*
X-9006000Y34807619D01*
X-7244095Y34807619D02*
X-7815524Y34807619D01*
X-7529810Y34807619D02*
X-7529810Y35807619D01*
X-7625048Y35664762D01*
X-7720286Y35569524D01*
X-7815524Y35521905D01*
X-6386952Y35807619D02*
X-6577429Y35807619D01*
X-6672667Y35760000D01*
X-6720286Y35712381D01*
X-6815524Y35569524D01*
X-6863143Y35379048D01*
X-6863143Y34998095D01*
X-6815524Y34902857D01*
X-6767905Y34855238D01*
X-6672667Y34807619D01*
X-6482190Y34807619D01*
X-6386952Y34855238D01*
X-6339333Y34902857D01*
X-6291714Y34998095D01*
X-6291714Y35236190D01*
X-6339333Y35331429D01*
X-6386952Y35379048D01*
X-6482190Y35426667D01*
X-6672667Y35426667D01*
X-6767905Y35379048D01*
X-6815524Y35331429D01*
X-6863143Y35236190D01*
X-5910762Y35093333D02*
X-5434571Y35093333D01*
X-6006000Y34807619D02*
X-5672667Y35807619D01*
X-5339333Y34807619D01*
D11*
X-4592571Y32779429D02*
X-4306857Y32779429D01*
X-4163999Y32708000D01*
X-4021142Y32565143D01*
X-3949714Y32279429D01*
X-3949714Y31779429D01*
X-4021142Y31493714D01*
X-4163999Y31350857D01*
X-4306857Y31279429D01*
X-4592571Y31279429D01*
X-4735428Y31350857D01*
X-4878285Y31493714D01*
X-4949714Y31779429D01*
X-4949714Y32279429D01*
X-4878285Y32565143D01*
X-4735428Y32708000D01*
X-4592571Y32779429D01*
X-2806856Y32065143D02*
X-3306856Y32065143D01*
X-3306856Y31279429D02*
X-3306856Y32779429D01*
X-2592570Y32779429D01*
X-1521142Y32065143D02*
X-2021142Y32065143D01*
X-2021142Y31279429D02*
X-2021142Y32779429D01*
X-1306856Y32779429D01*
X-16538572Y32779429D02*
X-16252858Y32779429D01*
X-16110000Y32708000D01*
X-15967143Y32565143D01*
X-15895715Y32279429D01*
X-15895715Y31779429D01*
X-15967143Y31493714D01*
X-16110000Y31350857D01*
X-16252858Y31279429D01*
X-16538572Y31279429D01*
X-16681429Y31350857D01*
X-16824286Y31493714D01*
X-16895715Y31779429D01*
X-16895715Y32279429D01*
X-16824286Y32565143D01*
X-16681429Y32708000D01*
X-16538572Y32779429D01*
X-15252857Y31279429D02*
X-15252857Y32779429D01*
X-14395714Y31279429D01*
X-14395714Y32779429D01*
D14*
X-16034000Y45533000D02*
X-14834000Y46733000D01*
X-14834000Y46733000D02*
X-5544000Y46733000D01*
X-5544000Y46733000D02*
X-5544000Y36233000D01*
X-16034000Y36233000D02*
X-5544000Y36233000D01*
X-16034000Y45533000D02*
X-16034000Y36233000D01*
X-85476000Y53494000D02*
X-87476000Y53494000D01*
X-87476000Y55634000D02*
X-85476000Y55634000D01*
X-49396000Y38038000D02*
X-49396000Y36038000D01*
X-47356000Y36038000D02*
X-47356000Y38038000D01*
X5200000Y0D02*
G75*
G03X5200000Y0I-4200000J0D01*
G01*
X-83412000Y36330000D02*
X-81412000Y36330000D01*
X-81412000Y34190000D02*
X-83412000Y34190000D01*
X-150800000Y24000000D02*
G75*
G03X-150800000Y24000000I-4200000J0D01*
G01*
X5200000Y24000000D02*
G75*
G03X5200000Y24000000I-4200000J0D01*
G01*
X-150800000Y9000000D02*
G75*
G03X-150800000Y9000000I-4200000J0D01*
G01*
X5200000Y39000000D02*
G75*
G03X5200000Y39000000I-4200000J0D01*
G01*
X-150800000Y48000000D02*
G75*
G03X-150800000Y48000000I-4200000J0D01*
G01*
X-74738000Y48198000D02*
X-74738000Y46198000D01*
X-76878000Y46198000D02*
X-76878000Y48198000D01*
X-79418000Y46198000D02*
X-79418000Y48198000D01*
X-77278000Y48198000D02*
X-77278000Y46198000D01*
X-31304000Y39562000D02*
X-31304000Y37562000D01*
X-33444000Y37562000D02*
X-33444000Y39562000D01*
D12*
X-38710000Y20827000D02*
X-37440000Y20827000D01*
X-37440000Y22097000D02*
X-37440000Y20827000D01*
X-148440000Y22097000D02*
X-148440000Y20827000D01*
X-148440000Y20827000D02*
X-147170000Y20827000D01*
X-38710000Y57827000D02*
X-37440000Y57827000D01*
X-37440000Y57827000D02*
X-37440000Y56557000D01*
X-148440000Y57827000D02*
X-148440000Y56557000D01*
X-148440000Y57827000D02*
X-147170000Y57827000D01*
D14*
X-142670000Y50317000D02*
X-142670000Y32477000D01*
X-145270000Y29877000D02*
X-147870000Y29877000D01*
X-147870000Y29877000D02*
X-147870000Y50317000D01*
X-147870000Y50317000D02*
X-142670000Y50317000D01*
X-145270000Y32477000D02*
X-145270000Y29877000D01*
X-145270000Y32477000D02*
X-142670000Y32477000D01*
X-142670000Y31147000D02*
X-142670000Y29877000D01*
X-142670000Y29877000D02*
X-143940000Y29877000D01*
X-54476000Y38038000D02*
X-54476000Y36038000D01*
X-52436000Y36038000D02*
X-52436000Y38038000D01*
X-48322000Y24830000D02*
X-48322000Y22830000D01*
X-50462000Y22830000D02*
X-50462000Y24830000D01*
X-49846000Y38038000D02*
X-49846000Y36038000D01*
X-51986000Y36038000D02*
X-51986000Y38038000D01*
X-11764000Y54132000D02*
X-7114000Y54132000D01*
X-11764000Y50932000D02*
X-7114000Y50932000D01*
X-7114000Y50932000D02*
X-7114000Y51732000D01*
X-11764000Y57942000D02*
X-7114000Y57942000D01*
X-11764000Y54742000D02*
X-7114000Y54742000D01*
X-7114000Y54742000D02*
X-7114000Y55542000D01*
X-40302000Y36038000D02*
X-40302000Y38038000D01*
X-38162000Y38038000D02*
X-38162000Y36038000D01*
X-42842000Y36038000D02*
X-42842000Y38038000D01*
X-40702000Y38038000D02*
X-40702000Y36038000D01*
X-74338000Y51278000D02*
X-74338000Y53278000D01*
X-72198000Y53278000D02*
X-72198000Y51278000D01*
X-74808000Y39778000D02*
X-76808000Y39778000D01*
X-76808000Y41918000D02*
X-74808000Y41918000D01*
X-66972000Y45944000D02*
X-66972000Y47944000D01*
X-64832000Y47944000D02*
X-64832000Y45944000D01*
X-45528000Y24830000D02*
X-45528000Y22830000D01*
X-47668000Y22830000D02*
X-47668000Y24830000D01*
X-44766000Y38038000D02*
X-44766000Y36038000D01*
X-46906000Y36038000D02*
X-46906000Y38038000D01*
X-130742701Y11000000D02*
G75*
G03X-130742701Y11000000I-3257299J0D01*
G01*
X-16742701Y11000000D02*
G75*
G03X-16742701Y11000000I-3257299J0D01*
G01*
X-13918000Y34362000D02*
X-5618000Y34362000D01*
X-5618000Y34362000D02*
X-5618000Y30062000D01*
X-5618000Y30062000D02*
X-13918000Y30062000D01*
X-13918000Y30062000D02*
X-13918000Y34362000D01*
X-58090000Y50850000D02*
X-58090000Y48190000D01*
X-22470000Y50850000D02*
X-58090000Y50850000D01*
X-22470000Y48190000D02*
X-58090000Y48190000D01*
X-22470000Y50850000D02*
X-22470000Y48190000D01*
X-21200000Y50850000D02*
X-19870000Y50850000D01*
X-19870000Y50850000D02*
X-19870000Y49520000D01*
X-58090000Y30210000D02*
X-58090000Y27550000D01*
X-22470000Y30210000D02*
X-58090000Y30210000D01*
X-22470000Y27550000D02*
X-58090000Y27550000D01*
X-22470000Y30210000D02*
X-22470000Y27550000D01*
X-21200000Y30210000D02*
X-19870000Y30210000D01*
X-19870000Y30210000D02*
X-19870000Y28880000D01*
D12*
X-15460000Y52510000D02*
X-23560000Y52510000D01*
X-15460000Y56710000D02*
X-23560000Y56710000D01*
X-13360000Y53110000D02*
X-13360000Y56110000D01*
X-25660000Y53110000D02*
X-25660000Y56110000D01*
X-24110000Y54610000D02*
X-24110000Y55360000D01*
X-24110000Y55360000D02*
X-23510000Y55960000D01*
X-23510000Y55960000D02*
X-19510000Y55960000D01*
X-14910000Y54610000D02*
X-14910000Y55360000D01*
X-14910000Y55360000D02*
X-15510000Y55960000D01*
X-15510000Y55960000D02*
X-19510000Y55960000D01*
X-16510000Y57110000D02*
X-16210000Y57710000D01*
X-16210000Y57710000D02*
X-16810000Y57710000D01*
X-16810000Y57710000D02*
X-16510000Y57110000D01*
D14*
X-10354000Y25714000D02*
X-13014000Y25714000D01*
X-10354000Y20574000D02*
X-10354000Y25714000D01*
X-13014000Y20574000D02*
X-13014000Y25714000D01*
X-10354000Y20574000D02*
X-13014000Y20574000D01*
X-10354000Y19304000D02*
X-10354000Y17974000D01*
X-10354000Y17974000D02*
X-11684000Y17974000D01*
X-65962000Y20080000D02*
X-65962000Y17420000D01*
X-60822000Y20080000D02*
X-65962000Y20080000D01*
X-60822000Y17420000D02*
X-65962000Y17420000D01*
X-60822000Y20080000D02*
X-60822000Y17420000D01*
X-59552000Y20080000D02*
X-58222000Y20080000D01*
X-58222000Y20080000D02*
X-58222000Y18750000D01*
X-9204000Y20514000D02*
X-4004000Y20514000D01*
X-9204000Y23114000D02*
X-9204000Y20514000D01*
X-4004000Y25714000D02*
X-4004000Y20514000D01*
X-9204000Y23114000D02*
X-6604000Y23114000D01*
X-6604000Y23114000D02*
X-6604000Y25714000D01*
X-6604000Y25714000D02*
X-4004000Y25714000D01*
X-9204000Y24384000D02*
X-9204000Y25714000D01*
X-9204000Y25714000D02*
X-7874000Y25714000D01*
X-9198000Y14494000D02*
X-9198000Y16494000D01*
X-7058000Y16494000D02*
X-7058000Y14494000D01*
X-6404000Y14494000D02*
X-6404000Y16494000D01*
X-4264000Y16494000D02*
X-4264000Y14494000D01*
X-86226000Y27243000D02*
X-86226000Y25243000D01*
X-84186000Y25243000D02*
X-84186000Y27243000D01*
X-86853000Y27275000D02*
X-86853000Y29275000D01*
X-88893000Y29275000D02*
X-88893000Y27275000D01*
X-65652000Y26894000D02*
X-65652000Y24894000D01*
X-63612000Y24894000D02*
X-63612000Y26894000D01*
X-70998000Y20786000D02*
X-72998000Y20786000D01*
X-72998000Y18746000D02*
X-70998000Y18746000D01*
X-81596000Y27243000D02*
X-81596000Y25243000D01*
X-83736000Y25243000D02*
X-83736000Y27243000D01*
X-72998000Y23376000D02*
X-70998000Y23376000D01*
X-70998000Y21236000D02*
X-72998000Y21236000D01*
X-71474000Y33028000D02*
X-69474000Y33028000D01*
X-69474000Y30888000D02*
X-71474000Y30888000D01*
X-81126000Y32520000D02*
X-79126000Y32520000D01*
X-79126000Y30380000D02*
X-81126000Y30380000D01*
X-61022000Y26894000D02*
X-61022000Y24894000D01*
X-63162000Y24894000D02*
X-63162000Y26894000D01*
D12*
X-68994000Y23959000D02*
X-68994000Y24614000D01*
X-74494000Y23959000D02*
X-74494000Y24709000D01*
X-74494000Y30369000D02*
X-74494000Y29619000D01*
X-68994000Y30369000D02*
X-68994000Y29619000D01*
X-68994000Y23959000D02*
X-74494000Y23959000D01*
X-68994000Y30369000D02*
X-74494000Y30369000D01*
X-68994000Y24614000D02*
X-67244000Y24614000D01*
D14*
X-89782000Y48198000D02*
X-89782000Y46198000D01*
X-87742000Y46198000D02*
X-87742000Y48198000D01*
D12*
X-20170000Y19110000D02*
G75*
G03X-20170000Y19110000I-2000000J0D01*
G01*
X-20090000Y24050000D02*
G75*
G03X-20090000Y24050000I-2000000J0D01*
G01*
D14*
X-24740000Y16400000D02*
X-24740000Y26700000D01*
X-18340000Y19050000D02*
G75*
G03X-18340000Y19050000I-750000J0D01*
G01*
X-18340000Y24050000D02*
G75*
G03X-18340000Y24050000I-750000J0D01*
G01*
X-19590000Y26950000D02*
X-19590000Y26700000D01*
X-18090000Y26700000D02*
X-18090000Y26950000D01*
X-18090000Y26950000D02*
X-19590000Y26950000D01*
X-26240000Y16400000D02*
X-26240000Y26700000D01*
X-26240000Y26700000D02*
X-16940000Y26700000D01*
X-16940000Y26700000D02*
X-16940000Y16400000D01*
X-16940000Y16400000D02*
X-26240000Y16400000D01*
X-97000000Y18500000D02*
X-97000000Y-10500000D01*
X-97000000Y-10500000D02*
X-116000000Y-10500000D01*
X-116000000Y-10500000D02*
X-116000000Y18500000D01*
X-116000000Y18500000D02*
X-97000000Y18500000D01*
X-38000000Y18500000D02*
X-38000000Y-10500000D01*
X-38000000Y-10500000D02*
X-57000000Y-10500000D01*
X-57000000Y-10500000D02*
X-57000000Y18500000D01*
X-57000000Y18500000D02*
X-38000000Y18500000D01*
D10*
X-60580000Y35200000D02*
X-60580000Y30250000D01*
X-60580000Y35200000D02*
X-62580000Y35200000D01*
X-60580000Y43200000D02*
X-62580000Y43200000D01*
X-62580000Y43200000D02*
X-62580000Y35200000D01*
X-17380000Y48150000D02*
X-17380000Y30250000D01*
X-17380000Y30250000D02*
X-60580000Y30250000D01*
X-60580000Y48150000D02*
X-60580000Y43200000D01*
X-17380000Y48150000D02*
X-60580000Y48150000D01*
D14*
X-136100000Y21700000D02*
X-136100000Y55700000D01*
X-136100000Y21700000D02*
X-115900000Y21700000D01*
X-136100000Y55700000D02*
X-115900000Y55700000D01*
X-115900000Y21700000D02*
X-115900000Y55700000D01*
X-114650000Y53150000D02*
X-114650000Y40850000D01*
X-114650000Y40850000D02*
X-90350000Y40850000D01*
X-90350000Y40850000D02*
X-90350000Y53150000D01*
X-90350000Y53150000D02*
X-114650000Y53150000D01*
D12*
X-87141000Y41908000D02*
X-86486000Y41908000D01*
X-87141000Y47408000D02*
X-86391000Y47408000D01*
X-80731000Y47408000D02*
X-81481000Y47408000D01*
X-80731000Y41908000D02*
X-81481000Y41908000D01*
X-87141000Y41908000D02*
X-87141000Y47408000D01*
X-80731000Y41908000D02*
X-80731000Y47408000D01*
X-86486000Y41908000D02*
X-86486000Y40158000D01*
D14*
X-76808000Y38870000D02*
X-74808000Y38870000D01*
X-74808000Y36730000D02*
X-76808000Y36730000D01*
X-84936000Y38870000D02*
X-82936000Y38870000D01*
X-82936000Y36730000D02*
X-84936000Y36730000D01*
X-92059704Y23169309D02*
G75*
G02X-94369000Y23129000I-1154296J-40309D01*
G01*
X-94368052Y23108879D02*
G75*
G02X-92974000Y24258000I1154052J20121D01*
G01*
X-89594000Y31449000D02*
X-89594000Y21799000D01*
X-94545000Y31449000D02*
X-94545000Y21799000D01*
X-89594000Y31449000D02*
X-94545000Y31449000D01*
X-89594000Y21799000D02*
X-94545000Y21799000D01*
X-92480000Y22253000D02*
X-94090000Y23864000D01*
X-92339000Y22393000D02*
X-93949000Y24005000D01*
X-35066691Y53797704D02*
G75*
G02X-35107000Y56107000I-40309J1154296D01*
G01*
X-35127121Y56106052D02*
G75*
G02X-33978000Y54712000I20121J-1154052D01*
G01*
X-26787000Y51332000D02*
X-36437000Y51332000D01*
X-26787000Y56283000D02*
X-36437000Y56283000D01*
X-26787000Y51332000D02*
X-26787000Y56283000D01*
X-36437000Y51332000D02*
X-36437000Y56283000D01*
X-35983000Y54218000D02*
X-34372000Y55828000D01*
X-35843000Y54077000D02*
X-34231000Y55687000D01*
D12*
X-111368000Y27640000D02*
X-112130000Y27640000D01*
X-112130000Y27640000D02*
X-112384000Y27894000D01*
X-112384000Y27894000D02*
X-112384000Y28402000D01*
X-112384000Y28402000D02*
X-112130000Y28656000D01*
X-111368000Y27640000D02*
X-111368000Y29926000D01*
X-111368000Y29926000D02*
X-112130000Y29926000D01*
X-112130000Y29926000D02*
X-112384000Y29672000D01*
X-112384000Y29672000D02*
X-112384000Y28910000D01*
X-112384000Y28910000D02*
X-112130000Y28656000D01*
X-112130000Y28656000D02*
X-111368000Y28656000D01*
X-109844000Y28402000D02*
X-110606000Y27640000D01*
X-110606000Y27640000D02*
X-110606000Y29926000D01*
X-108320000Y27640000D02*
X-109336000Y27640000D01*
X-109336000Y27640000D02*
X-109336000Y29926000D01*
X-109336000Y29926000D02*
X-108320000Y29926000D01*
X-108320000Y29926000D02*
X-108320000Y27640000D01*
X-106796000Y28402000D02*
X-107558000Y27640000D01*
X-107558000Y27640000D02*
X-107558000Y29926000D01*
X-105780000Y27640000D02*
X-105780000Y29926000D01*
X-105018000Y27640000D02*
X-106542000Y27640000D01*
X-103240000Y29926000D02*
X-103240000Y27640000D01*
X-103240000Y27640000D02*
X-104256000Y27640000D01*
X-104256000Y27640000D02*
X-104510000Y27894000D01*
X-104510000Y27894000D02*
X-104510000Y28656000D01*
X-104510000Y28656000D02*
X-104256000Y28910000D01*
X-104256000Y28910000D02*
X-103240000Y28910000D01*
X-101208000Y29926000D02*
X-101208000Y27640000D01*
X-101208000Y27640000D02*
X-101970000Y28402000D01*
X-101970000Y28402000D02*
X-102732000Y27640000D01*
X-102732000Y27640000D02*
X-102732000Y29926000D01*
X-98922000Y27640000D02*
X-100700000Y27640000D01*
X-100700000Y27640000D02*
X-98922000Y29926000D01*
X-98922000Y29926000D02*
X-100700000Y29926000D01*
D14*
X-95672000Y21576000D02*
X-114872000Y21576000D01*
X-95672000Y21576000D02*
X-95672000Y38276000D01*
X-114872000Y21576000D02*
X-114872000Y38276000D01*
X-95672000Y38276000D02*
X-114872000Y38276000D01*
X-69512000Y45944000D02*
X-69512000Y47944000D01*
X-67372000Y47944000D02*
X-67372000Y45944000D01*
X-69912000Y47976000D02*
X-69912000Y45976000D01*
X-72052000Y45976000D02*
X-72052000Y47976000D01*
X-35934000Y38038000D02*
X-35934000Y36038000D01*
X-33894000Y36038000D02*
X-33894000Y38038000D01*
X-78774000Y50374000D02*
X-78774000Y53674000D01*
X-78774000Y53674000D02*
X-85674000Y53674000D01*
X-78774000Y50374000D02*
X-85674000Y50374000D01*
X-5114000Y26244000D02*
X-5114000Y29544000D01*
X-5114000Y29544000D02*
X-12014000Y29544000D01*
X-5114000Y26244000D02*
X-12014000Y26244000D01*
X-8162000Y47199000D02*
X-8162000Y50499000D01*
X-8162000Y50499000D02*
X-15062000Y50499000D01*
X-8162000Y47199000D02*
X-15062000Y47199000D01*
D10*
X-4364190Y44607333D02*
X-4326095Y44721619D01*
X-4326095Y44912095D01*
X-4364190Y44988285D01*
X-4402286Y45026381D01*
X-4478476Y45064476D01*
X-4554667Y45064476D01*
X-4630857Y45026381D01*
X-4668952Y44988285D01*
X-4707048Y44912095D01*
X-4745143Y44759714D01*
X-4783238Y44683523D01*
X-4821333Y44645428D01*
X-4897524Y44607333D01*
X-4973714Y44607333D01*
X-5049905Y44645428D01*
X-5088000Y44683523D01*
X-5126095Y44759714D01*
X-5126095Y44950190D01*
X-5088000Y45064476D01*
X-5126095Y45331143D02*
X-4326095Y45521619D01*
X-4897524Y45674000D01*
X-4326095Y45826381D01*
X-5126095Y46016857D01*
X-4326095Y46740667D02*
X-4326095Y46283524D01*
X-4326095Y46512095D02*
X-5126095Y46512095D01*
X-5011810Y46435905D01*
X-4935619Y46359714D01*
X-4897524Y46283524D01*
D12*
X-87118857Y56143619D02*
X-87452191Y56619810D01*
X-87690286Y56143619D02*
X-87690286Y57143619D01*
X-87309333Y57143619D01*
X-87214095Y57096000D01*
X-87166476Y57048381D01*
X-87118857Y56953143D01*
X-87118857Y56810286D01*
X-87166476Y56715048D01*
X-87214095Y56667429D01*
X-87309333Y56619810D01*
X-87690286Y56619810D01*
X-86166476Y56143619D02*
X-86737905Y56143619D01*
X-86452191Y56143619D02*
X-86452191Y57143619D01*
X-86547429Y57000762D01*
X-86642667Y56905524D01*
X-86737905Y56857905D01*
X-85833143Y57143619D02*
X-85166476Y57143619D01*
X-85595048Y56143619D01*
X-49018857Y40776857D02*
X-49066476Y40729238D01*
X-49209333Y40681619D01*
X-49304571Y40681619D01*
X-49447429Y40729238D01*
X-49542667Y40824476D01*
X-49590286Y40919714D01*
X-49637905Y41110190D01*
X-49637905Y41253048D01*
X-49590286Y41443524D01*
X-49542667Y41538762D01*
X-49447429Y41634000D01*
X-49304571Y41681619D01*
X-49209333Y41681619D01*
X-49066476Y41634000D01*
X-49018857Y41586381D01*
X-48066476Y40681619D02*
X-48637905Y40681619D01*
X-48352191Y40681619D02*
X-48352191Y41681619D01*
X-48447429Y41538762D01*
X-48542667Y41443524D01*
X-48637905Y41395905D01*
X-47114095Y40681619D02*
X-47685524Y40681619D01*
X-47399810Y40681619D02*
X-47399810Y41681619D01*
X-47495048Y41538762D01*
X-47590286Y41443524D01*
X-47685524Y41395905D01*
X-78260666Y34807619D02*
X-78594000Y35283810D01*
X-78832095Y34807619D02*
X-78832095Y35807619D01*
X-78451142Y35807619D01*
X-78355904Y35760000D01*
X-78308285Y35712381D01*
X-78260666Y35617143D01*
X-78260666Y35474286D01*
X-78308285Y35379048D01*
X-78355904Y35331429D01*
X-78451142Y35283810D01*
X-78832095Y35283810D01*
X-77355904Y35807619D02*
X-77832095Y35807619D01*
X-77879714Y35331429D01*
X-77832095Y35379048D01*
X-77736857Y35426667D01*
X-77498761Y35426667D01*
X-77403523Y35379048D01*
X-77355904Y35331429D01*
X-77308285Y35236190D01*
X-77308285Y34998095D01*
X-77355904Y34902857D01*
X-77403523Y34855238D01*
X-77498761Y34807619D01*
X-77736857Y34807619D01*
X-77832095Y34855238D01*
X-77879714Y34902857D01*
X-76704857Y51063619D02*
X-77038191Y51539810D01*
X-77276286Y51063619D02*
X-77276286Y52063619D01*
X-76895333Y52063619D01*
X-76800095Y52016000D01*
X-76752476Y51968381D01*
X-76704857Y51873143D01*
X-76704857Y51730286D01*
X-76752476Y51635048D01*
X-76800095Y51587429D01*
X-76895333Y51539810D01*
X-77276286Y51539810D01*
X-76371524Y52063619D02*
X-75752476Y52063619D01*
X-76085810Y51682667D01*
X-75942952Y51682667D01*
X-75847714Y51635048D01*
X-75800095Y51587429D01*
X-75752476Y51492190D01*
X-75752476Y51254095D01*
X-75800095Y51158857D01*
X-75847714Y51111238D01*
X-75942952Y51063619D01*
X-76228667Y51063619D01*
X-76323905Y51111238D01*
X-76371524Y51158857D01*
X-75419143Y52063619D02*
X-74800095Y52063619D01*
X-75133429Y51682667D01*
X-74990571Y51682667D01*
X-74895333Y51635048D01*
X-74847714Y51587429D01*
X-74800095Y51492190D01*
X-74800095Y51254095D01*
X-74847714Y51158857D01*
X-74895333Y51111238D01*
X-74990571Y51063619D01*
X-75276286Y51063619D01*
X-75371524Y51111238D01*
X-75419143Y51158857D01*
X-78736857Y42681619D02*
X-79070191Y43157810D01*
X-79308286Y42681619D02*
X-79308286Y43681619D01*
X-78927333Y43681619D01*
X-78832095Y43634000D01*
X-78784476Y43586381D01*
X-78736857Y43491143D01*
X-78736857Y43348286D01*
X-78784476Y43253048D01*
X-78832095Y43205429D01*
X-78927333Y43157810D01*
X-79308286Y43157810D01*
X-78403524Y43681619D02*
X-77784476Y43681619D01*
X-78117810Y43300667D01*
X-77974952Y43300667D01*
X-77879714Y43253048D01*
X-77832095Y43205429D01*
X-77784476Y43110190D01*
X-77784476Y42872095D01*
X-77832095Y42776857D01*
X-77879714Y42729238D01*
X-77974952Y42681619D01*
X-78260667Y42681619D01*
X-78355905Y42729238D01*
X-78403524Y42776857D01*
X-77213048Y43253048D02*
X-77308286Y43300667D01*
X-77355905Y43348286D01*
X-77403524Y43443524D01*
X-77403524Y43491143D01*
X-77355905Y43586381D01*
X-77308286Y43634000D01*
X-77213048Y43681619D01*
X-77022571Y43681619D01*
X-76927333Y43634000D01*
X-76879714Y43586381D01*
X-76832095Y43491143D01*
X-76832095Y43443524D01*
X-76879714Y43348286D01*
X-76927333Y43300667D01*
X-77022571Y43253048D01*
X-77213048Y43253048D01*
X-77308286Y43205429D01*
X-77355905Y43157810D01*
X-77403524Y43062571D01*
X-77403524Y42872095D01*
X-77355905Y42776857D01*
X-77308286Y42729238D01*
X-77213048Y42681619D01*
X-77022571Y42681619D01*
X-76927333Y42729238D01*
X-76879714Y42776857D01*
X-76832095Y42872095D01*
X-76832095Y43062571D01*
X-76879714Y43157810D01*
X-76927333Y43205429D01*
X-77022571Y43253048D01*
X-32762857Y34045619D02*
X-33096191Y34521810D01*
X-33334286Y34045619D02*
X-33334286Y35045619D01*
X-32953333Y35045619D01*
X-32858095Y34998000D01*
X-32810476Y34950381D01*
X-32762857Y34855143D01*
X-32762857Y34712286D01*
X-32810476Y34617048D01*
X-32858095Y34569429D01*
X-32953333Y34521810D01*
X-33334286Y34521810D01*
X-31810476Y34045619D02*
X-32381905Y34045619D01*
X-32096191Y34045619D02*
X-32096191Y35045619D01*
X-32191429Y34902762D01*
X-32286667Y34807524D01*
X-32381905Y34759905D01*
X-31191429Y35045619D02*
X-31096190Y35045619D01*
X-31000952Y34998000D01*
X-30953333Y34950381D01*
X-30905714Y34855143D01*
X-30858095Y34664667D01*
X-30858095Y34426571D01*
X-30905714Y34236095D01*
X-30953333Y34140857D01*
X-31000952Y34093238D01*
X-31096190Y34045619D01*
X-31191429Y34045619D01*
X-31286667Y34093238D01*
X-31334286Y34140857D01*
X-31381905Y34236095D01*
X-31429524Y34426571D01*
X-31429524Y34664667D01*
X-31381905Y34855143D01*
X-31334286Y34950381D01*
X-31286667Y34998000D01*
X-31191429Y35045619D01*
X-148024333Y29092619D02*
X-148024333Y28378333D01*
X-148071953Y28235476D01*
X-148167191Y28140238D01*
X-148310048Y28092619D01*
X-148405286Y28092619D01*
X-147643381Y29092619D02*
X-146976714Y29092619D01*
X-147405286Y28092619D01*
X-55908666Y36458857D02*
X-55956285Y36411238D01*
X-56099142Y36363619D01*
X-56194380Y36363619D01*
X-56337238Y36411238D01*
X-56432476Y36506476D01*
X-56480095Y36601714D01*
X-56527714Y36792190D01*
X-56527714Y36935048D01*
X-56480095Y37125524D01*
X-56432476Y37220762D01*
X-56337238Y37316000D01*
X-56194380Y37363619D01*
X-56099142Y37363619D01*
X-55956285Y37316000D01*
X-55908666Y37268381D01*
X-55432476Y36363619D02*
X-55242000Y36363619D01*
X-55146761Y36411238D01*
X-55099142Y36458857D01*
X-55003904Y36601714D01*
X-54956285Y36792190D01*
X-54956285Y37173143D01*
X-55003904Y37268381D01*
X-55051523Y37316000D01*
X-55146761Y37363619D01*
X-55337238Y37363619D01*
X-55432476Y37316000D01*
X-55480095Y37268381D01*
X-55527714Y37173143D01*
X-55527714Y36935048D01*
X-55480095Y36839810D01*
X-55432476Y36792190D01*
X-55337238Y36744571D01*
X-55146761Y36744571D01*
X-55051523Y36792190D01*
X-55003904Y36839810D01*
X-54956285Y36935048D01*
X-52828857Y21599619D02*
X-53162191Y22075810D01*
X-53400286Y21599619D02*
X-53400286Y22599619D01*
X-53019333Y22599619D01*
X-52924095Y22552000D01*
X-52876476Y22504381D01*
X-52828857Y22409143D01*
X-52828857Y22266286D01*
X-52876476Y22171048D01*
X-52924095Y22123429D01*
X-53019333Y22075810D01*
X-53400286Y22075810D01*
X-52447905Y22504381D02*
X-52400286Y22552000D01*
X-52305048Y22599619D01*
X-52066952Y22599619D01*
X-51971714Y22552000D01*
X-51924095Y22504381D01*
X-51876476Y22409143D01*
X-51876476Y22313905D01*
X-51924095Y22171048D01*
X-52495524Y21599619D01*
X-51876476Y21599619D01*
X-51400286Y21599619D02*
X-51209810Y21599619D01*
X-51114571Y21647238D01*
X-51066952Y21694857D01*
X-50971714Y21837714D01*
X-50924095Y22028190D01*
X-50924095Y22409143D01*
X-50971714Y22504381D01*
X-51019333Y22552000D01*
X-51114571Y22599619D01*
X-51305048Y22599619D01*
X-51400286Y22552000D01*
X-51447905Y22504381D01*
X-51495524Y22409143D01*
X-51495524Y22171048D01*
X-51447905Y22075810D01*
X-51400286Y22028190D01*
X-51305048Y21980571D01*
X-51114571Y21980571D01*
X-51019333Y22028190D01*
X-50971714Y22075810D01*
X-50924095Y22171048D01*
X-52066857Y40681619D02*
X-52400191Y41157810D01*
X-52638286Y40681619D02*
X-52638286Y41681619D01*
X-52257333Y41681619D01*
X-52162095Y41634000D01*
X-52114476Y41586381D01*
X-52066857Y41491143D01*
X-52066857Y41348286D01*
X-52114476Y41253048D01*
X-52162095Y41205429D01*
X-52257333Y41157810D01*
X-52638286Y41157810D01*
X-51114476Y40681619D02*
X-51685905Y40681619D01*
X-51400191Y40681619D02*
X-51400191Y41681619D01*
X-51495429Y41538762D01*
X-51590667Y41443524D01*
X-51685905Y41395905D01*
X-50781143Y41681619D02*
X-50162095Y41681619D01*
X-50495429Y41300667D01*
X-50352571Y41300667D01*
X-50257333Y41253048D01*
X-50209714Y41205429D01*
X-50162095Y41110190D01*
X-50162095Y40872095D01*
X-50209714Y40776857D01*
X-50257333Y40729238D01*
X-50352571Y40681619D01*
X-50638286Y40681619D01*
X-50733524Y40729238D01*
X-50781143Y40776857D01*
X-5870595Y52079619D02*
X-5870595Y53079619D01*
X-5632500Y53079619D01*
X-5489642Y53032000D01*
X-5394404Y52936762D01*
X-5346785Y52841524D01*
X-5299166Y52651048D01*
X-5299166Y52508190D01*
X-5346785Y52317714D01*
X-5394404Y52222476D01*
X-5489642Y52127238D01*
X-5632500Y52079619D01*
X-5870595Y52079619D01*
X-4918214Y52984381D02*
X-4870595Y53032000D01*
X-4775357Y53079619D01*
X-4537261Y53079619D01*
X-4442023Y53032000D01*
X-4394404Y52984381D01*
X-4346785Y52889143D01*
X-4346785Y52793905D01*
X-4394404Y52651048D01*
X-4965833Y52079619D01*
X-4346785Y52079619D01*
X-5870595Y55826119D02*
X-5870595Y56826119D01*
X-5632500Y56826119D01*
X-5489642Y56778500D01*
X-5394404Y56683262D01*
X-5346785Y56588024D01*
X-5299166Y56397548D01*
X-5299166Y56254690D01*
X-5346785Y56064214D01*
X-5394404Y55968976D01*
X-5489642Y55873738D01*
X-5632500Y55826119D01*
X-5870595Y55826119D01*
X-4965833Y56826119D02*
X-4346785Y56826119D01*
X-4680119Y56445167D01*
X-4537261Y56445167D01*
X-4442023Y56397548D01*
X-4394404Y56349929D01*
X-4346785Y56254690D01*
X-4346785Y56016595D01*
X-4394404Y55921357D01*
X-4442023Y55873738D01*
X-4537261Y55826119D01*
X-4822976Y55826119D01*
X-4918214Y55873738D01*
X-4965833Y55921357D01*
X-39366857Y40903619D02*
X-39700191Y41379810D01*
X-39938286Y40903619D02*
X-39938286Y41903619D01*
X-39557333Y41903619D01*
X-39462095Y41856000D01*
X-39414476Y41808381D01*
X-39366857Y41713143D01*
X-39366857Y41570286D01*
X-39414476Y41475048D01*
X-39462095Y41427429D01*
X-39557333Y41379810D01*
X-39938286Y41379810D01*
X-38414476Y40903619D02*
X-38985905Y40903619D01*
X-38700191Y40903619D02*
X-38700191Y41903619D01*
X-38795429Y41760762D01*
X-38890667Y41665524D01*
X-38985905Y41617905D01*
X-37557333Y41570286D02*
X-37557333Y40903619D01*
X-37795429Y41951238D02*
X-38033524Y41236952D01*
X-37414476Y41236952D01*
X-42922857Y40903619D02*
X-43256191Y41379810D01*
X-43494286Y40903619D02*
X-43494286Y41903619D01*
X-43113333Y41903619D01*
X-43018095Y41856000D01*
X-42970476Y41808381D01*
X-42922857Y41713143D01*
X-42922857Y41570286D01*
X-42970476Y41475048D01*
X-43018095Y41427429D01*
X-43113333Y41379810D01*
X-43494286Y41379810D01*
X-41970476Y40903619D02*
X-42541905Y40903619D01*
X-42256191Y40903619D02*
X-42256191Y41903619D01*
X-42351429Y41760762D01*
X-42446667Y41665524D01*
X-42541905Y41617905D01*
X-41065714Y41903619D02*
X-41541905Y41903619D01*
X-41589524Y41427429D01*
X-41541905Y41475048D01*
X-41446667Y41522667D01*
X-41208571Y41522667D01*
X-41113333Y41475048D01*
X-41065714Y41427429D01*
X-41018095Y41332190D01*
X-41018095Y41094095D01*
X-41065714Y40998857D01*
X-41113333Y40951238D01*
X-41208571Y40903619D01*
X-41446667Y40903619D01*
X-41541905Y40951238D01*
X-41589524Y40998857D01*
X-73910857Y55889619D02*
X-74244191Y56365810D01*
X-74482286Y55889619D02*
X-74482286Y56889619D01*
X-74101333Y56889619D01*
X-74006095Y56842000D01*
X-73958476Y56794381D01*
X-73910857Y56699143D01*
X-73910857Y56556286D01*
X-73958476Y56461048D01*
X-74006095Y56413429D01*
X-74101333Y56365810D01*
X-74482286Y56365810D01*
X-72958476Y55889619D02*
X-73529905Y55889619D01*
X-73244191Y55889619D02*
X-73244191Y56889619D01*
X-73339429Y56746762D01*
X-73434667Y56651524D01*
X-73529905Y56603905D01*
X-72482286Y55889619D02*
X-72291810Y55889619D01*
X-72196571Y55937238D01*
X-72148952Y55984857D01*
X-72053714Y56127714D01*
X-72006095Y56318190D01*
X-72006095Y56699143D01*
X-72053714Y56794381D01*
X-72101333Y56842000D01*
X-72196571Y56889619D01*
X-72387048Y56889619D01*
X-72482286Y56842000D01*
X-72529905Y56794381D01*
X-72577524Y56699143D01*
X-72577524Y56461048D01*
X-72529905Y56365810D01*
X-72482286Y56318190D01*
X-72387048Y56270571D01*
X-72196571Y56270571D01*
X-72101333Y56318190D01*
X-72053714Y56365810D01*
X-72006095Y56461048D01*
X-71624857Y40395619D02*
X-71958191Y40871810D01*
X-72196286Y40395619D02*
X-72196286Y41395619D01*
X-71815333Y41395619D01*
X-71720095Y41348000D01*
X-71672476Y41300381D01*
X-71624857Y41205143D01*
X-71624857Y41062286D01*
X-71672476Y40967048D01*
X-71720095Y40919429D01*
X-71815333Y40871810D01*
X-72196286Y40871810D01*
X-71243905Y41300381D02*
X-71196286Y41348000D01*
X-71101048Y41395619D01*
X-70862952Y41395619D01*
X-70767714Y41348000D01*
X-70720095Y41300381D01*
X-70672476Y41205143D01*
X-70672476Y41109905D01*
X-70720095Y40967048D01*
X-71291524Y40395619D01*
X-70672476Y40395619D01*
X-69720095Y40395619D02*
X-70291524Y40395619D01*
X-70005810Y40395619D02*
X-70005810Y41395619D01*
X-70101048Y41252762D01*
X-70196286Y41157524D01*
X-70291524Y41109905D01*
X-65274857Y42427619D02*
X-65608191Y42903810D01*
X-65846286Y42427619D02*
X-65846286Y43427619D01*
X-65465333Y43427619D01*
X-65370095Y43380000D01*
X-65322476Y43332381D01*
X-65274857Y43237143D01*
X-65274857Y43094286D01*
X-65322476Y42999048D01*
X-65370095Y42951429D01*
X-65465333Y42903810D01*
X-65846286Y42903810D01*
X-64893905Y43332381D02*
X-64846286Y43380000D01*
X-64751048Y43427619D01*
X-64512952Y43427619D01*
X-64417714Y43380000D01*
X-64370095Y43332381D01*
X-64322476Y43237143D01*
X-64322476Y43141905D01*
X-64370095Y42999048D01*
X-64941524Y42427619D01*
X-64322476Y42427619D01*
X-63941524Y43332381D02*
X-63893905Y43380000D01*
X-63798667Y43427619D01*
X-63560571Y43427619D01*
X-63465333Y43380000D01*
X-63417714Y43332381D01*
X-63370095Y43237143D01*
X-63370095Y43141905D01*
X-63417714Y42999048D01*
X-63989143Y42427619D01*
X-63370095Y42427619D01*
X-44446857Y21091619D02*
X-44780191Y21567810D01*
X-45018286Y21091619D02*
X-45018286Y22091619D01*
X-44637333Y22091619D01*
X-44542095Y22044000D01*
X-44494476Y21996381D01*
X-44446857Y21901143D01*
X-44446857Y21758286D01*
X-44494476Y21663048D01*
X-44542095Y21615429D01*
X-44637333Y21567810D01*
X-45018286Y21567810D01*
X-44065905Y21996381D02*
X-44018286Y22044000D01*
X-43923048Y22091619D01*
X-43684952Y22091619D01*
X-43589714Y22044000D01*
X-43542095Y21996381D01*
X-43494476Y21901143D01*
X-43494476Y21805905D01*
X-43542095Y21663048D01*
X-44113524Y21091619D01*
X-43494476Y21091619D01*
X-42589714Y22091619D02*
X-43065905Y22091619D01*
X-43113524Y21615429D01*
X-43065905Y21663048D01*
X-42970667Y21710667D01*
X-42732571Y21710667D01*
X-42637333Y21663048D01*
X-42589714Y21615429D01*
X-42542095Y21520190D01*
X-42542095Y21282095D01*
X-42589714Y21186857D01*
X-42637333Y21139238D01*
X-42732571Y21091619D01*
X-42970667Y21091619D01*
X-43065905Y21139238D01*
X-43113524Y21186857D01*
X-46224857Y41919619D02*
X-46558191Y42395810D01*
X-46796286Y41919619D02*
X-46796286Y42919619D01*
X-46415333Y42919619D01*
X-46320095Y42872000D01*
X-46272476Y42824381D01*
X-46224857Y42729143D01*
X-46224857Y42586286D01*
X-46272476Y42491048D01*
X-46320095Y42443429D01*
X-46415333Y42395810D01*
X-46796286Y42395810D01*
X-45843905Y42824381D02*
X-45796286Y42872000D01*
X-45701048Y42919619D01*
X-45462952Y42919619D01*
X-45367714Y42872000D01*
X-45320095Y42824381D01*
X-45272476Y42729143D01*
X-45272476Y42633905D01*
X-45320095Y42491048D01*
X-45891524Y41919619D01*
X-45272476Y41919619D01*
X-44415333Y42919619D02*
X-44605810Y42919619D01*
X-44701048Y42872000D01*
X-44748667Y42824381D01*
X-44843905Y42681524D01*
X-44891524Y42491048D01*
X-44891524Y42110095D01*
X-44843905Y42014857D01*
X-44796286Y41967238D01*
X-44701048Y41919619D01*
X-44510571Y41919619D01*
X-44415333Y41967238D01*
X-44367714Y42014857D01*
X-44320095Y42110095D01*
X-44320095Y42348190D01*
X-44367714Y42443429D01*
X-44415333Y42491048D01*
X-44510571Y42538667D01*
X-44701048Y42538667D01*
X-44796286Y42491048D01*
X-44843905Y42443429D01*
X-44891524Y42348190D01*
D10*
X-16676667Y33412190D02*
X-16562381Y33374095D01*
X-16371905Y33374095D01*
X-16295715Y33412190D01*
X-16257619Y33450286D01*
X-16219524Y33526476D01*
X-16219524Y33602667D01*
X-16257619Y33678857D01*
X-16295715Y33716952D01*
X-16371905Y33755048D01*
X-16524286Y33793143D01*
X-16600477Y33831238D01*
X-16638572Y33869333D01*
X-16676667Y33945524D01*
X-16676667Y34021714D01*
X-16638572Y34097905D01*
X-16600477Y34136000D01*
X-16524286Y34174095D01*
X-16333810Y34174095D01*
X-16219524Y34136000D01*
X-15952857Y34174095D02*
X-15762381Y33374095D01*
X-15610000Y33945524D01*
X-15457619Y33374095D01*
X-15267143Y34174095D01*
X-15000476Y34097905D02*
X-14962381Y34136000D01*
X-14886190Y34174095D01*
X-14695714Y34174095D01*
X-14619524Y34136000D01*
X-14581428Y34097905D01*
X-14543333Y34021714D01*
X-14543333Y33945524D01*
X-14581428Y33831238D01*
X-15038571Y33374095D01*
X-14543333Y33374095D01*
D12*
X-60012333Y49940619D02*
X-60012333Y49226333D01*
X-60059953Y49083476D01*
X-60155191Y48988238D01*
X-60298048Y48940619D01*
X-60393286Y48940619D01*
X-59631381Y49940619D02*
X-59012333Y49940619D01*
X-59345667Y49559667D01*
X-59202809Y49559667D01*
X-59107571Y49512048D01*
X-59059952Y49464429D01*
X-59012333Y49369190D01*
X-59012333Y49131095D01*
X-59059952Y49035857D01*
X-59107571Y48988238D01*
X-59202809Y48940619D01*
X-59488524Y48940619D01*
X-59583762Y48988238D01*
X-59631381Y49035857D01*
X-60139333Y29329119D02*
X-60139333Y28614833D01*
X-60186953Y28471976D01*
X-60282191Y28376738D01*
X-60425048Y28329119D01*
X-60520286Y28329119D01*
X-59234571Y28995786D02*
X-59234571Y28329119D01*
X-59472667Y29376738D02*
X-59710762Y28662452D01*
X-59091714Y28662452D01*
X-20261333Y52317619D02*
X-20261333Y51603333D01*
X-20308953Y51460476D01*
X-20404191Y51365238D01*
X-20547048Y51317619D01*
X-20642286Y51317619D01*
X-19642286Y51889048D02*
X-19737524Y51936667D01*
X-19785143Y51984286D01*
X-19832762Y52079524D01*
X-19832762Y52127143D01*
X-19785143Y52222381D01*
X-19737524Y52270000D01*
X-19642286Y52317619D01*
X-19451809Y52317619D01*
X-19356571Y52270000D01*
X-19308952Y52222381D01*
X-19261333Y52127143D01*
X-19261333Y52079524D01*
X-19308952Y51984286D01*
X-19356571Y51936667D01*
X-19451809Y51889048D01*
X-19642286Y51889048D01*
X-19737524Y51841429D01*
X-19785143Y51793810D01*
X-19832762Y51698571D01*
X-19832762Y51508095D01*
X-19785143Y51412857D01*
X-19737524Y51365238D01*
X-19642286Y51317619D01*
X-19451809Y51317619D01*
X-19356571Y51365238D01*
X-19308952Y51412857D01*
X-19261333Y51508095D01*
X-19261333Y51698571D01*
X-19308952Y51793810D01*
X-19356571Y51841429D01*
X-19451809Y51889048D01*
X-14292333Y17646619D02*
X-14292333Y16932333D01*
X-14339953Y16789476D01*
X-14435191Y16694238D01*
X-14578048Y16646619D01*
X-14673286Y16646619D01*
X-13863762Y17551381D02*
X-13816143Y17599000D01*
X-13720905Y17646619D01*
X-13482809Y17646619D01*
X-13387571Y17599000D01*
X-13339952Y17551381D01*
X-13292333Y17456143D01*
X-13292333Y17360905D01*
X-13339952Y17218048D01*
X-13911381Y16646619D01*
X-13292333Y16646619D01*
X-67759333Y18281619D02*
X-67759333Y17567333D01*
X-67806953Y17424476D01*
X-67902191Y17329238D01*
X-68045048Y17281619D01*
X-68140286Y17281619D01*
X-67235524Y17281619D02*
X-67045048Y17281619D01*
X-66949809Y17329238D01*
X-66902190Y17376857D01*
X-66806952Y17519714D01*
X-66759333Y17710190D01*
X-66759333Y18091143D01*
X-66806952Y18186381D01*
X-66854571Y18234000D01*
X-66949809Y18281619D01*
X-67140286Y18281619D01*
X-67235524Y18234000D01*
X-67283143Y18186381D01*
X-67330762Y18091143D01*
X-67330762Y17853048D01*
X-67283143Y17757810D01*
X-67235524Y17710190D01*
X-67140286Y17662571D01*
X-66949809Y17662571D01*
X-66854571Y17710190D01*
X-66806952Y17757810D01*
X-66759333Y17853048D01*
X-4481523Y27425619D02*
X-4481523Y26711333D01*
X-4529143Y26568476D01*
X-4624381Y26473238D01*
X-4767238Y26425619D01*
X-4862476Y26425619D01*
X-3481523Y26425619D02*
X-4052952Y26425619D01*
X-3767238Y26425619D02*
X-3767238Y27425619D01*
X-3862476Y27282762D01*
X-3957714Y27187524D01*
X-4052952Y27139905D01*
X-2862476Y27425619D02*
X-2767237Y27425619D01*
X-2671999Y27378000D01*
X-2624380Y27330381D01*
X-2576761Y27235143D01*
X-2529142Y27044667D01*
X-2529142Y26806571D01*
X-2576761Y26616095D01*
X-2624380Y26520857D01*
X-2671999Y26473238D01*
X-2767237Y26425619D01*
X-2862476Y26425619D01*
X-2957714Y26473238D01*
X-3005333Y26520857D01*
X-3052952Y26616095D01*
X-3100571Y26806571D01*
X-3100571Y27044667D01*
X-3052952Y27235143D01*
X-3005333Y27330381D01*
X-2957714Y27378000D01*
X-2862476Y27425619D01*
X-11564857Y15803619D02*
X-11898191Y16279810D01*
X-12136286Y15803619D02*
X-12136286Y16803619D01*
X-11755333Y16803619D01*
X-11660095Y16756000D01*
X-11612476Y16708381D01*
X-11564857Y16613143D01*
X-11564857Y16470286D01*
X-11612476Y16375048D01*
X-11660095Y16327429D01*
X-11755333Y16279810D01*
X-12136286Y16279810D01*
X-11183905Y16708381D02*
X-11136286Y16756000D01*
X-11041048Y16803619D01*
X-10802952Y16803619D01*
X-10707714Y16756000D01*
X-10660095Y16708381D01*
X-10612476Y16613143D01*
X-10612476Y16517905D01*
X-10660095Y16375048D01*
X-11231524Y15803619D01*
X-10612476Y15803619D01*
X-10279143Y16803619D02*
X-9612476Y16803619D01*
X-10041048Y15803619D01*
X-13310952Y15184381D02*
X-13263333Y15232000D01*
X-13168095Y15279619D01*
X-12929999Y15279619D01*
X-12834761Y15232000D01*
X-12787142Y15184381D01*
X-12739523Y15089143D01*
X-12739523Y14993905D01*
X-12787142Y14851048D01*
X-13358571Y14279619D01*
X-12739523Y14279619D01*
X-12310952Y14374857D02*
X-12263333Y14327238D01*
X-12310952Y14279619D01*
X-12358571Y14327238D01*
X-12310952Y14374857D01*
X-12310952Y14279619D01*
X-11930000Y15279619D02*
X-11263333Y15279619D01*
X-11691905Y14279619D01*
X-10453809Y14946286D02*
X-10453809Y14279619D01*
X-10691905Y15327238D02*
X-10930000Y14612952D01*
X-10310952Y14612952D01*
X-9930000Y14279619D02*
X-9930000Y15279619D01*
X-9834762Y14660571D02*
X-9549047Y14279619D01*
X-9549047Y14946286D02*
X-9930000Y14565333D01*
X-3182857Y15549619D02*
X-3516191Y16025810D01*
X-3754286Y15549619D02*
X-3754286Y16549619D01*
X-3373333Y16549619D01*
X-3278095Y16502000D01*
X-3230476Y16454381D01*
X-3182857Y16359143D01*
X-3182857Y16216286D01*
X-3230476Y16121048D01*
X-3278095Y16073429D01*
X-3373333Y16025810D01*
X-3754286Y16025810D01*
X-2801905Y16454381D02*
X-2754286Y16502000D01*
X-2659048Y16549619D01*
X-2420952Y16549619D01*
X-2325714Y16502000D01*
X-2278095Y16454381D01*
X-2230476Y16359143D01*
X-2230476Y16263905D01*
X-2278095Y16121048D01*
X-2849524Y15549619D01*
X-2230476Y15549619D01*
X-1659048Y16121048D02*
X-1754286Y16168667D01*
X-1801905Y16216286D01*
X-1849524Y16311524D01*
X-1849524Y16359143D01*
X-1801905Y16454381D01*
X-1754286Y16502000D01*
X-1659048Y16549619D01*
X-1468571Y16549619D01*
X-1373333Y16502000D01*
X-1325714Y16454381D01*
X-1278095Y16359143D01*
X-1278095Y16311524D01*
X-1325714Y16216286D01*
X-1373333Y16168667D01*
X-1468571Y16121048D01*
X-1659048Y16121048D01*
X-1754286Y16073429D01*
X-1801905Y16025810D01*
X-1849524Y15930571D01*
X-1849524Y15740095D01*
X-1801905Y15644857D01*
X-1754286Y15597238D01*
X-1659048Y15549619D01*
X-1468571Y15549619D01*
X-1373333Y15597238D01*
X-1325714Y15644857D01*
X-1278095Y15740095D01*
X-1278095Y15930571D01*
X-1325714Y16025810D01*
X-1373333Y16073429D01*
X-1468571Y16121048D01*
X-3119333Y14025619D02*
X-3690762Y14025619D01*
X-3405048Y14025619D02*
X-3405048Y15025619D01*
X-3500286Y14882762D01*
X-3595524Y14787524D01*
X-3690762Y14739905D01*
X-2690762Y14120857D02*
X-2643143Y14073238D01*
X-2690762Y14025619D01*
X-2738381Y14073238D01*
X-2690762Y14120857D01*
X-2690762Y14025619D01*
X-2309810Y15025619D02*
X-1690762Y15025619D01*
X-2024096Y14644667D01*
X-1881238Y14644667D01*
X-1786000Y14597048D01*
X-1738381Y14549429D01*
X-1690762Y14454190D01*
X-1690762Y14216095D01*
X-1738381Y14120857D01*
X-1786000Y14073238D01*
X-1881238Y14025619D01*
X-2166953Y14025619D01*
X-2262191Y14073238D01*
X-2309810Y14120857D01*
X-1262191Y14025619D02*
X-1262191Y15025619D01*
X-1166953Y14406571D02*
X-881238Y14025619D01*
X-881238Y14692286D02*
X-1262191Y14311333D01*
X-85372666Y21821857D02*
X-85420285Y21774238D01*
X-85563142Y21726619D01*
X-85658380Y21726619D01*
X-85801238Y21774238D01*
X-85896476Y21869476D01*
X-85944095Y21964714D01*
X-85991714Y22155190D01*
X-85991714Y22298048D01*
X-85944095Y22488524D01*
X-85896476Y22583762D01*
X-85801238Y22679000D01*
X-85658380Y22726619D01*
X-85563142Y22726619D01*
X-85420285Y22679000D01*
X-85372666Y22631381D01*
X-84420285Y21726619D02*
X-84991714Y21726619D01*
X-84706000Y21726619D02*
X-84706000Y22726619D01*
X-84801238Y22583762D01*
X-84896476Y22488524D01*
X-84991714Y22440905D01*
X-88039666Y23853857D02*
X-88087285Y23806238D01*
X-88230142Y23758619D01*
X-88325380Y23758619D01*
X-88468238Y23806238D01*
X-88563476Y23901476D01*
X-88611095Y23996714D01*
X-88658714Y24187190D01*
X-88658714Y24330048D01*
X-88611095Y24520524D01*
X-88563476Y24615762D01*
X-88468238Y24711000D01*
X-88325380Y24758619D01*
X-88230142Y24758619D01*
X-88087285Y24711000D01*
X-88039666Y24663381D01*
X-87182523Y24425286D02*
X-87182523Y23758619D01*
X-87420619Y24806238D02*
X-87658714Y24091952D01*
X-87039666Y24091952D01*
X-64798666Y29600857D02*
X-64846285Y29553238D01*
X-64989142Y29505619D01*
X-65084380Y29505619D01*
X-65227238Y29553238D01*
X-65322476Y29648476D01*
X-65370095Y29743714D01*
X-65417714Y29934190D01*
X-65417714Y30077048D01*
X-65370095Y30267524D01*
X-65322476Y30362762D01*
X-65227238Y30458000D01*
X-65084380Y30505619D01*
X-64989142Y30505619D01*
X-64846285Y30458000D01*
X-64798666Y30410381D01*
X-64465333Y30505619D02*
X-63846285Y30505619D01*
X-64179619Y30124667D01*
X-64036761Y30124667D01*
X-63941523Y30077048D01*
X-63893904Y30029429D01*
X-63846285Y29934190D01*
X-63846285Y29696095D01*
X-63893904Y29600857D01*
X-63941523Y29553238D01*
X-64036761Y29505619D01*
X-64322476Y29505619D01*
X-64417714Y29553238D01*
X-64465333Y29600857D01*
X-76482666Y19027857D02*
X-76530285Y18980238D01*
X-76673142Y18932619D01*
X-76768380Y18932619D01*
X-76911238Y18980238D01*
X-77006476Y19075476D01*
X-77054095Y19170714D01*
X-77101714Y19361190D01*
X-77101714Y19504048D01*
X-77054095Y19694524D01*
X-77006476Y19789762D01*
X-76911238Y19885000D01*
X-76768380Y19932619D01*
X-76673142Y19932619D01*
X-76530285Y19885000D01*
X-76482666Y19837381D01*
X-75577904Y19932619D02*
X-76054095Y19932619D01*
X-76101714Y19456429D01*
X-76054095Y19504048D01*
X-75958857Y19551667D01*
X-75720761Y19551667D01*
X-75625523Y19504048D01*
X-75577904Y19456429D01*
X-75530285Y19361190D01*
X-75530285Y19123095D01*
X-75577904Y19027857D01*
X-75625523Y18980238D01*
X-75720761Y18932619D01*
X-75958857Y18932619D01*
X-76054095Y18980238D01*
X-76101714Y19027857D01*
X-82832666Y21726619D02*
X-83166000Y22202810D01*
X-83404095Y21726619D02*
X-83404095Y22726619D01*
X-83023142Y22726619D01*
X-82927904Y22679000D01*
X-82880285Y22631381D01*
X-82832666Y22536143D01*
X-82832666Y22393286D01*
X-82880285Y22298048D01*
X-82927904Y22250429D01*
X-83023142Y22202810D01*
X-83404095Y22202810D01*
X-81880285Y21726619D02*
X-82451714Y21726619D01*
X-82166000Y21726619D02*
X-82166000Y22726619D01*
X-82261238Y22583762D01*
X-82356476Y22488524D01*
X-82451714Y22440905D01*
X-76482666Y22107619D02*
X-76816000Y22583810D01*
X-77054095Y22107619D02*
X-77054095Y23107619D01*
X-76673142Y23107619D01*
X-76577904Y23060000D01*
X-76530285Y23012381D01*
X-76482666Y22917143D01*
X-76482666Y22774286D01*
X-76530285Y22679048D01*
X-76577904Y22631429D01*
X-76673142Y22583810D01*
X-77054095Y22583810D01*
X-75625523Y22774286D02*
X-75625523Y22107619D01*
X-75863619Y23155238D02*
X-76101714Y22440952D01*
X-75482666Y22440952D01*
X-75212666Y31505619D02*
X-75546000Y31981810D01*
X-75784095Y31505619D02*
X-75784095Y32505619D01*
X-75403142Y32505619D01*
X-75307904Y32458000D01*
X-75260285Y32410381D01*
X-75212666Y32315143D01*
X-75212666Y32172286D01*
X-75260285Y32077048D01*
X-75307904Y32029429D01*
X-75403142Y31981810D01*
X-75784095Y31981810D01*
X-74879333Y32505619D02*
X-74212666Y32505619D01*
X-74641238Y31505619D01*
X-84610666Y30997619D02*
X-84944000Y31473810D01*
X-85182095Y30997619D02*
X-85182095Y31997619D01*
X-84801142Y31997619D01*
X-84705904Y31950000D01*
X-84658285Y31902381D01*
X-84610666Y31807143D01*
X-84610666Y31664286D01*
X-84658285Y31569048D01*
X-84705904Y31521429D01*
X-84801142Y31473810D01*
X-85182095Y31473810D01*
X-83753523Y31997619D02*
X-83944000Y31997619D01*
X-84039238Y31950000D01*
X-84086857Y31902381D01*
X-84182095Y31759524D01*
X-84229714Y31569048D01*
X-84229714Y31188095D01*
X-84182095Y31092857D01*
X-84134476Y31045238D01*
X-84039238Y30997619D01*
X-83848761Y30997619D01*
X-83753523Y31045238D01*
X-83705904Y31092857D01*
X-83658285Y31188095D01*
X-83658285Y31426190D01*
X-83705904Y31521429D01*
X-83753523Y31569048D01*
X-83848761Y31616667D01*
X-84039238Y31616667D01*
X-84134476Y31569048D01*
X-84182095Y31521429D01*
X-84229714Y31426190D01*
X-59972666Y23155619D02*
X-60306000Y23631810D01*
X-60544095Y23155619D02*
X-60544095Y24155619D01*
X-60163142Y24155619D01*
X-60067904Y24108000D01*
X-60020285Y24060381D01*
X-59972666Y23965143D01*
X-59972666Y23822286D01*
X-60020285Y23727048D01*
X-60067904Y23679429D01*
X-60163142Y23631810D01*
X-60544095Y23631810D01*
X-59496476Y23155619D02*
X-59306000Y23155619D01*
X-59210761Y23203238D01*
X-59163142Y23250857D01*
X-59067904Y23393714D01*
X-59020285Y23584190D01*
X-59020285Y23965143D01*
X-59067904Y24060381D01*
X-59115523Y24108000D01*
X-59210761Y24155619D01*
X-59401238Y24155619D01*
X-59496476Y24108000D01*
X-59544095Y24060381D01*
X-59591714Y23965143D01*
X-59591714Y23727048D01*
X-59544095Y23631810D01*
X-59496476Y23584190D01*
X-59401238Y23536571D01*
X-59210761Y23536571D01*
X-59115523Y23584190D01*
X-59067904Y23631810D01*
X-59020285Y23727048D01*
X-68187905Y24155619D02*
X-68187905Y23346095D01*
X-68140286Y23250857D01*
X-68092667Y23203238D01*
X-67997429Y23155619D01*
X-67806952Y23155619D01*
X-67711714Y23203238D01*
X-67664095Y23250857D01*
X-67616476Y23346095D01*
X-67616476Y24155619D01*
X-66664095Y24155619D02*
X-67140286Y24155619D01*
X-67187905Y23679429D01*
X-67140286Y23727048D01*
X-67045048Y23774667D01*
X-66806952Y23774667D01*
X-66711714Y23727048D01*
X-66664095Y23679429D01*
X-66616476Y23584190D01*
X-66616476Y23346095D01*
X-66664095Y23250857D01*
X-66711714Y23203238D01*
X-66806952Y23155619D01*
X-67045048Y23155619D01*
X-67140286Y23203238D01*
X-67187905Y23250857D01*
X-89404857Y42776857D02*
X-89452476Y42729238D01*
X-89595333Y42681619D01*
X-89690571Y42681619D01*
X-89833429Y42729238D01*
X-89928667Y42824476D01*
X-89976286Y42919714D01*
X-90023905Y43110190D01*
X-90023905Y43253048D01*
X-89976286Y43443524D01*
X-89928667Y43538762D01*
X-89833429Y43634000D01*
X-89690571Y43681619D01*
X-89595333Y43681619D01*
X-89452476Y43634000D01*
X-89404857Y43586381D01*
X-88452476Y42681619D02*
X-89023905Y42681619D01*
X-88738191Y42681619D02*
X-88738191Y43681619D01*
X-88833429Y43538762D01*
X-88928667Y43443524D01*
X-89023905Y43395905D01*
X-88071524Y43586381D02*
X-88023905Y43634000D01*
X-87928667Y43681619D01*
X-87690571Y43681619D01*
X-87595333Y43634000D01*
X-87547714Y43586381D01*
X-87500095Y43491143D01*
X-87500095Y43395905D01*
X-87547714Y43253048D01*
X-88119143Y42681619D01*
X-87500095Y42681619D01*
X-25849333Y15995619D02*
X-25849333Y15281333D01*
X-25896953Y15138476D01*
X-25992191Y15043238D01*
X-26135048Y14995619D01*
X-26230286Y14995619D01*
X-24849333Y14995619D02*
X-25420762Y14995619D01*
X-25135048Y14995619D02*
X-25135048Y15995619D01*
X-25230286Y15852762D01*
X-25325524Y15757524D01*
X-25420762Y15709905D01*
X-118051333Y18789619D02*
X-118051333Y18075333D01*
X-118098953Y17932476D01*
X-118194191Y17837238D01*
X-118337048Y17789619D01*
X-118432286Y17789619D01*
X-117098952Y18789619D02*
X-117575143Y18789619D01*
X-117622762Y18313429D01*
X-117575143Y18361048D01*
X-117479905Y18408667D01*
X-117241809Y18408667D01*
X-117146571Y18361048D01*
X-117098952Y18313429D01*
X-117051333Y18218190D01*
X-117051333Y17980095D01*
X-117098952Y17884857D01*
X-117146571Y17837238D01*
X-117241809Y17789619D01*
X-117479905Y17789619D01*
X-117575143Y17837238D01*
X-117622762Y17884857D01*
X-36771333Y18789619D02*
X-36771333Y18075333D01*
X-36818953Y17932476D01*
X-36914191Y17837238D01*
X-37057048Y17789619D01*
X-37152286Y17789619D01*
X-35866571Y18789619D02*
X-36057048Y18789619D01*
X-36152286Y18742000D01*
X-36199905Y18694381D01*
X-36295143Y18551524D01*
X-36342762Y18361048D01*
X-36342762Y17980095D01*
X-36295143Y17884857D01*
X-36247524Y17837238D01*
X-36152286Y17789619D01*
X-35961809Y17789619D01*
X-35866571Y17837238D01*
X-35818952Y17884857D01*
X-35771333Y17980095D01*
X-35771333Y18218190D01*
X-35818952Y18313429D01*
X-35866571Y18361048D01*
X-35961809Y18408667D01*
X-36152286Y18408667D01*
X-36247524Y18361048D01*
X-36295143Y18313429D01*
X-36342762Y18218190D01*
X-64631905Y39871619D02*
X-64631905Y39062095D01*
X-64584286Y38966857D01*
X-64536667Y38919238D01*
X-64441429Y38871619D01*
X-64250952Y38871619D01*
X-64155714Y38919238D01*
X-64108095Y38966857D01*
X-64060476Y39062095D01*
X-64060476Y39871619D01*
X-63060476Y38871619D02*
X-63631905Y38871619D01*
X-63346191Y38871619D02*
X-63346191Y39871619D01*
X-63441429Y39728762D01*
X-63536667Y39633524D01*
X-63631905Y39585905D01*
X-138291905Y55365619D02*
X-138291905Y54556095D01*
X-138244286Y54460857D01*
X-138196667Y54413238D01*
X-138101429Y54365619D01*
X-137910952Y54365619D01*
X-137815714Y54413238D01*
X-137768095Y54460857D01*
X-137720476Y54556095D01*
X-137720476Y55365619D01*
X-137291905Y55270381D02*
X-137244286Y55318000D01*
X-137149048Y55365619D01*
X-136910952Y55365619D01*
X-136815714Y55318000D01*
X-136768095Y55270381D01*
X-136720476Y55175143D01*
X-136720476Y55079905D01*
X-136768095Y54937048D01*
X-137339524Y54365619D01*
X-136720476Y54365619D01*
X-114161905Y54889619D02*
X-114161905Y54080095D01*
X-114114286Y53984857D01*
X-114066667Y53937238D01*
X-113971429Y53889619D01*
X-113780952Y53889619D01*
X-113685714Y53937238D01*
X-113638095Y53984857D01*
X-113590476Y54080095D01*
X-113590476Y54889619D01*
X-113209524Y54889619D02*
X-112590476Y54889619D01*
X-112923810Y54508667D01*
X-112780952Y54508667D01*
X-112685714Y54461048D01*
X-112638095Y54413429D01*
X-112590476Y54318190D01*
X-112590476Y54080095D01*
X-112638095Y53984857D01*
X-112685714Y53937238D01*
X-112780952Y53889619D01*
X-113066667Y53889619D01*
X-113161905Y53937238D01*
X-113209524Y53984857D01*
X-88761905Y41395619D02*
X-88761905Y40586095D01*
X-88714286Y40490857D01*
X-88666667Y40443238D01*
X-88571429Y40395619D01*
X-88380952Y40395619D01*
X-88285714Y40443238D01*
X-88238095Y40490857D01*
X-88190476Y40586095D01*
X-88190476Y41395619D01*
X-87285714Y41395619D02*
X-87476191Y41395619D01*
X-87571429Y41348000D01*
X-87619048Y41300381D01*
X-87714286Y41157524D01*
X-87761905Y40967048D01*
X-87761905Y40586095D01*
X-87714286Y40490857D01*
X-87666667Y40443238D01*
X-87571429Y40395619D01*
X-87380952Y40395619D01*
X-87285714Y40443238D01*
X-87238095Y40490857D01*
X-87190476Y40586095D01*
X-87190476Y40824190D01*
X-87238095Y40919429D01*
X-87285714Y40967048D01*
X-87380952Y41014667D01*
X-87571429Y41014667D01*
X-87666667Y40967048D01*
X-87714286Y40919429D01*
X-87761905Y40824190D01*
X-71624857Y37347619D02*
X-71958191Y37823810D01*
X-72196286Y37347619D02*
X-72196286Y38347619D01*
X-71815333Y38347619D01*
X-71720095Y38300000D01*
X-71672476Y38252381D01*
X-71624857Y38157143D01*
X-71624857Y38014286D01*
X-71672476Y37919048D01*
X-71720095Y37871429D01*
X-71815333Y37823810D01*
X-72196286Y37823810D01*
X-71291524Y38347619D02*
X-70672476Y38347619D01*
X-71005810Y37966667D01*
X-70862952Y37966667D01*
X-70767714Y37919048D01*
X-70720095Y37871429D01*
X-70672476Y37776190D01*
X-70672476Y37538095D01*
X-70720095Y37442857D01*
X-70767714Y37395238D01*
X-70862952Y37347619D01*
X-71148667Y37347619D01*
X-71243905Y37395238D01*
X-71291524Y37442857D01*
X-69720095Y37347619D02*
X-70291524Y37347619D01*
X-70005810Y37347619D02*
X-70005810Y38347619D01*
X-70101048Y38204762D01*
X-70196286Y38109524D01*
X-70291524Y38061905D01*
X-89404857Y37347619D02*
X-89738191Y37823810D01*
X-89976286Y37347619D02*
X-89976286Y38347619D01*
X-89595333Y38347619D01*
X-89500095Y38300000D01*
X-89452476Y38252381D01*
X-89404857Y38157143D01*
X-89404857Y38014286D01*
X-89452476Y37919048D01*
X-89500095Y37871429D01*
X-89595333Y37823810D01*
X-89976286Y37823810D01*
X-89071524Y38347619D02*
X-88452476Y38347619D01*
X-88785810Y37966667D01*
X-88642952Y37966667D01*
X-88547714Y37919048D01*
X-88500095Y37871429D01*
X-88452476Y37776190D01*
X-88452476Y37538095D01*
X-88500095Y37442857D01*
X-88547714Y37395238D01*
X-88642952Y37347619D01*
X-88928667Y37347619D01*
X-89023905Y37395238D01*
X-89071524Y37442857D01*
X-88071524Y38252381D02*
X-88023905Y38300000D01*
X-87928667Y38347619D01*
X-87690571Y38347619D01*
X-87595333Y38300000D01*
X-87547714Y38252381D01*
X-87500095Y38157143D01*
X-87500095Y38061905D01*
X-87547714Y37919048D01*
X-88119143Y37347619D01*
X-87500095Y37347619D01*
X-92913238Y20075619D02*
X-93246572Y20551810D01*
X-93484667Y20075619D02*
X-93484667Y21075619D01*
X-93103714Y21075619D01*
X-93008476Y21028000D01*
X-92960857Y20980381D01*
X-92913238Y20885143D01*
X-92913238Y20742286D01*
X-92960857Y20647048D01*
X-93008476Y20599429D01*
X-93103714Y20551810D01*
X-93484667Y20551810D01*
X-92627524Y21075619D02*
X-92294191Y20075619D01*
X-91960857Y21075619D01*
X-91103714Y20075619D02*
X-91675143Y20075619D01*
X-91389429Y20075619D02*
X-91389429Y21075619D01*
X-91484667Y20932762D01*
X-91579905Y20837524D01*
X-91675143Y20789905D01*
X-35509238Y56905619D02*
X-35842572Y57381810D01*
X-36080667Y56905619D02*
X-36080667Y57905619D01*
X-35699714Y57905619D01*
X-35604476Y57858000D01*
X-35556857Y57810381D01*
X-35509238Y57715143D01*
X-35509238Y57572286D01*
X-35556857Y57477048D01*
X-35604476Y57429429D01*
X-35699714Y57381810D01*
X-36080667Y57381810D01*
X-35223524Y57905619D02*
X-34890191Y56905619D01*
X-34556857Y57905619D01*
X-34271143Y57810381D02*
X-34223524Y57858000D01*
X-34128286Y57905619D01*
X-33890190Y57905619D01*
X-33794952Y57858000D01*
X-33747333Y57810381D01*
X-33699714Y57715143D01*
X-33699714Y57619905D01*
X-33747333Y57477048D01*
X-34318762Y56905619D01*
X-33699714Y56905619D01*
X-110859905Y39871619D02*
X-110288476Y39871619D01*
X-110574191Y38871619D02*
X-110574191Y39871619D01*
X-109431333Y38871619D02*
X-110002762Y38871619D01*
X-109717048Y38871619D02*
X-109717048Y39871619D01*
X-109812286Y39728762D01*
X-109907524Y39633524D01*
X-110002762Y39585905D01*
X-68830857Y42427619D02*
X-69164191Y42903810D01*
X-69402286Y42427619D02*
X-69402286Y43427619D01*
X-69021333Y43427619D01*
X-68926095Y43380000D01*
X-68878476Y43332381D01*
X-68830857Y43237143D01*
X-68830857Y43094286D01*
X-68878476Y42999048D01*
X-68926095Y42951429D01*
X-69021333Y42903810D01*
X-69402286Y42903810D01*
X-68497524Y43427619D02*
X-67878476Y43427619D01*
X-68211810Y43046667D01*
X-68068952Y43046667D01*
X-67973714Y42999048D01*
X-67926095Y42951429D01*
X-67878476Y42856190D01*
X-67878476Y42618095D01*
X-67926095Y42522857D01*
X-67973714Y42475238D01*
X-68068952Y42427619D01*
X-68354667Y42427619D01*
X-68449905Y42475238D01*
X-68497524Y42522857D01*
X-67021333Y43094286D02*
X-67021333Y42427619D01*
X-67259429Y43475238D02*
X-67497524Y42760952D01*
X-66878476Y42760952D01*
X-72386857Y42459619D02*
X-72720191Y42935810D01*
X-72958286Y42459619D02*
X-72958286Y43459619D01*
X-72577333Y43459619D01*
X-72482095Y43412000D01*
X-72434476Y43364381D01*
X-72386857Y43269143D01*
X-72386857Y43126286D01*
X-72434476Y43031048D01*
X-72482095Y42983429D01*
X-72577333Y42935810D01*
X-72958286Y42935810D01*
X-72053524Y43459619D02*
X-71434476Y43459619D01*
X-71767810Y43078667D01*
X-71624952Y43078667D01*
X-71529714Y43031048D01*
X-71482095Y42983429D01*
X-71434476Y42888190D01*
X-71434476Y42650095D01*
X-71482095Y42554857D01*
X-71529714Y42507238D01*
X-71624952Y42459619D01*
X-71910667Y42459619D01*
X-72005905Y42507238D01*
X-72053524Y42554857D01*
X-70529714Y43459619D02*
X-71005905Y43459619D01*
X-71053524Y42983429D01*
X-71005905Y43031048D01*
X-70910667Y43078667D01*
X-70672571Y43078667D01*
X-70577333Y43031048D01*
X-70529714Y42983429D01*
X-70482095Y42888190D01*
X-70482095Y42650095D01*
X-70529714Y42554857D01*
X-70577333Y42507238D01*
X-70672571Y42459619D01*
X-70910667Y42459619D01*
X-71005905Y42507238D01*
X-71053524Y42554857D01*
X-35334666Y32616857D02*
X-35382285Y32569238D01*
X-35525142Y32521619D01*
X-35620380Y32521619D01*
X-35763238Y32569238D01*
X-35858476Y32664476D01*
X-35906095Y32759714D01*
X-35953714Y32950190D01*
X-35953714Y33093048D01*
X-35906095Y33283524D01*
X-35858476Y33378762D01*
X-35763238Y33474000D01*
X-35620380Y33521619D01*
X-35525142Y33521619D01*
X-35382285Y33474000D01*
X-35334666Y33426381D01*
X-34763238Y33093048D02*
X-34858476Y33140667D01*
X-34906095Y33188286D01*
X-34953714Y33283524D01*
X-34953714Y33331143D01*
X-34906095Y33426381D01*
X-34858476Y33474000D01*
X-34763238Y33521619D01*
X-34572761Y33521619D01*
X-34477523Y33474000D01*
X-34429904Y33426381D01*
X-34382285Y33331143D01*
X-34382285Y33283524D01*
X-34429904Y33188286D01*
X-34477523Y33140667D01*
X-34572761Y33093048D01*
X-34763238Y33093048D01*
X-34858476Y33045429D01*
X-34906095Y32997810D01*
X-34953714Y32902571D01*
X-34953714Y32712095D01*
X-34906095Y32616857D01*
X-34858476Y32569238D01*
X-34763238Y32521619D01*
X-34572761Y32521619D01*
X-34477523Y32569238D01*
X-34429904Y32616857D01*
X-34382285Y32712095D01*
X-34382285Y32902571D01*
X-34429904Y32997810D01*
X-34477523Y33045429D01*
X-34572761Y33093048D01*
X-80356095Y54111619D02*
X-80356095Y55111619D01*
X-80118000Y55111619D01*
X-79975142Y55064000D01*
X-79879904Y54968762D01*
X-79832285Y54873524D01*
X-79784666Y54683048D01*
X-79784666Y54540190D01*
X-79832285Y54349714D01*
X-79879904Y54254476D01*
X-79975142Y54159238D01*
X-80118000Y54111619D01*
X-80356095Y54111619D01*
X-78832285Y54111619D02*
X-79403714Y54111619D01*
X-79118000Y54111619D02*
X-79118000Y55111619D01*
X-79213238Y54968762D01*
X-79308476Y54873524D01*
X-79403714Y54825905D01*
X-15713095Y27060619D02*
X-15713095Y28060619D01*
X-15475000Y28060619D01*
X-15332142Y28013000D01*
X-15236904Y27917762D01*
X-15189285Y27822524D01*
X-15141666Y27632048D01*
X-15141666Y27489190D01*
X-15189285Y27298714D01*
X-15236904Y27203476D01*
X-15332142Y27108238D01*
X-15475000Y27060619D01*
X-15713095Y27060619D01*
X-14236904Y28060619D02*
X-14713095Y28060619D01*
X-14760714Y27584429D01*
X-14713095Y27632048D01*
X-14617857Y27679667D01*
X-14379761Y27679667D01*
X-14284523Y27632048D01*
X-14236904Y27584429D01*
X-14189285Y27489190D01*
X-14189285Y27251095D01*
X-14236904Y27155857D01*
X-14284523Y27108238D01*
X-14379761Y27060619D01*
X-14617857Y27060619D01*
X-14713095Y27108238D01*
X-14760714Y27155857D01*
X-7585095Y48269619D02*
X-7585095Y49269619D01*
X-7347000Y49269619D01*
X-7204142Y49222000D01*
X-7108904Y49126762D01*
X-7061285Y49031524D01*
X-7013666Y48841048D01*
X-7013666Y48698190D01*
X-7061285Y48507714D01*
X-7108904Y48412476D01*
X-7204142Y48317238D01*
X-7347000Y48269619D01*
X-7585095Y48269619D01*
X-6156523Y48936286D02*
X-6156523Y48269619D01*
X-6394619Y49317238D02*
X-6632714Y48602952D01*
X-6013666Y48602952D01*
M02*
