G04 #@! TF.FileFunction,Soldermask,Bot*
%FSLAX46Y46*%
G04 Gerber Fmt 4.6, Leading zero omitted, Abs format (unit mm)*
G04 Created by KiCad (PCBNEW 4.0.7-e2-6376~61~ubuntu18.04.1) date Tue May 29 09:04:43 2018*
%MOMM*%
%LPD*%
G01*
G04 APERTURE LIST*
%ADD10C,0.100000*%
%ADD11C,0.150000*%
%ADD12R,2.200000X2.000000*%
%ADD13O,2.200000X2.000000*%
%ADD14C,8.400000*%
%ADD15C,7.400000*%
%ADD16O,5.900000X5.900000*%
%ADD17O,2.100000X2.100000*%
%ADD18R,2.100000X2.100000*%
%ADD19R,2.100000X2.400000*%
%ADD20R,2.000000X2.400000*%
%ADD21R,0.950000X2.150000*%
%ADD22R,2.400000X2.100000*%
%ADD23C,6.400000*%
%ADD24R,1.750000X1.750000*%
%ADD25C,1.750000*%
%ADD26C,1.350000*%
%ADD27C,2.400000*%
%ADD28R,2.400000X2.400000*%
%ADD29O,6.400000X5.400000*%
%ADD30C,4.400000*%
%ADD31R,6.400000X5.400000*%
%ADD32R,2.000000X2.600000*%
%ADD33O,2.000000X2.600000*%
%ADD34O,2.000000X2.800000*%
%ADD35O,2.900000X3.400000*%
%ADD36O,3.400000X2.900000*%
%ADD37R,2.900000X3.400000*%
%ADD38C,1.840000*%
%ADD39C,3.400000*%
%ADD40R,3.400000X3.400000*%
%ADD41C,0.254000*%
G04 APERTURE END LIST*
D10*
D11*
X-4000000Y48500000D02*
G75*
G03X1000000Y43500000I5000000J0D01*
G01*
X5500000Y39000000D02*
G75*
G03X1000000Y43500000I-4500000J0D01*
G01*
X-150000000Y-500000D02*
G75*
G03X-155000000Y4500000I-5000000J0D01*
G01*
X-159500000Y9000000D02*
G75*
G03X-155000000Y4500000I4500000J0D01*
G01*
X-5500000Y-11000000D02*
G75*
G03X-2500000Y-8000000I0J3000000D01*
G01*
X1000000Y-4500000D02*
G75*
G03X-2500000Y-8000000I0J-3500000D01*
G01*
X1000000Y-4500000D02*
G75*
G03X5500000Y0I0J4500000D01*
G01*
X-155000000Y52500000D02*
G75*
G03X-151500000Y56000000I0J3500000D01*
G01*
X-155000000Y52500000D02*
G75*
G03X-159500000Y48000000I0J-4500000D01*
G01*
X-148500000Y59000000D02*
G75*
G03X-151500000Y56000000I0J-3000000D01*
G01*
X-147000000Y-11000000D02*
X-5500000Y-11000000D01*
X5500000Y0D02*
X5500000Y39000000D01*
X-150000000Y-8000000D02*
X-150000000Y-500000D01*
X-150000000Y-8000000D02*
G75*
G03X-147000000Y-11000000I3000000J0D01*
G01*
X-4000000Y56000000D02*
X-4000000Y48500000D01*
X-4000000Y56000000D02*
G75*
G03X-7000000Y59000000I-3000000J0D01*
G01*
X-159500000Y48000000D02*
X-159500000Y9000000D01*
X-7000000Y59000000D02*
X-148500000Y59000000D01*
D12*
X-14594000Y44023000D03*
D13*
X-14594000Y41483000D03*
X-6974000Y38943000D03*
X-14594000Y38943000D03*
X-6974000Y41483000D03*
X-6974000Y44023000D03*
D14*
X1000000Y0D03*
D15*
X-155000000Y24000000D03*
X1000000Y24000000D03*
X-155000000Y9000000D03*
X1000000Y39000000D03*
D14*
X-155000000Y48000000D03*
D16*
X-40770000Y53827000D03*
X-40770000Y24827000D03*
X-145270000Y24827000D03*
D17*
X-144000000Y48987000D03*
X-146540000Y48987000D03*
X-144000000Y46447000D03*
X-146540000Y46447000D03*
X-144000000Y43907000D03*
X-146540000Y43907000D03*
X-144000000Y41367000D03*
X-146540000Y41367000D03*
X-144000000Y38827000D03*
X-146540000Y38827000D03*
X-144000000Y36287000D03*
X-146540000Y36287000D03*
X-144000000Y33747000D03*
X-146540000Y33747000D03*
D18*
X-144000000Y31207000D03*
D17*
X-146540000Y31207000D03*
D16*
X-145270000Y53827000D03*
D19*
X-87492000Y15480000D03*
X-87492000Y19480000D03*
D20*
X-78348000Y20750000D03*
X-78348000Y16750000D03*
X-74538000Y20750000D03*
X-74538000Y16750000D03*
D21*
X-75173000Y6414000D03*
X-76443000Y6414000D03*
X-77713000Y6414000D03*
X-78983000Y6414000D03*
X-78983000Y13814000D03*
X-77713000Y13814000D03*
X-76443000Y13814000D03*
X-75173000Y13814000D03*
D22*
X-135403000Y47071000D03*
X-139403000Y47071000D03*
X-135403000Y42245000D03*
X-139403000Y42245000D03*
X-139403000Y49547500D03*
X-135403000Y49547500D03*
D19*
X-140462000Y35084000D03*
X-140462000Y39084000D03*
D22*
X-135403000Y44658000D03*
X-139403000Y44658000D03*
D23*
X-134000000Y11000000D03*
X-20000000Y11000000D03*
D12*
X-12308000Y32212000D03*
D13*
X-9768000Y32212000D03*
X-7228000Y32212000D03*
D18*
X-21200000Y49520000D03*
D17*
X-23740000Y49520000D03*
X-26280000Y49520000D03*
X-28820000Y49520000D03*
X-31360000Y49520000D03*
X-33900000Y49520000D03*
X-36440000Y49520000D03*
X-38980000Y49520000D03*
X-41520000Y49520000D03*
X-44060000Y49520000D03*
X-46600000Y49520000D03*
X-49140000Y49520000D03*
X-51680000Y49520000D03*
X-54220000Y49520000D03*
X-56760000Y49520000D03*
D18*
X-21200000Y28880000D03*
D17*
X-23740000Y28880000D03*
X-26280000Y28880000D03*
X-28820000Y28880000D03*
X-31360000Y28880000D03*
X-33900000Y28880000D03*
X-36440000Y28880000D03*
X-38980000Y28880000D03*
X-41520000Y28880000D03*
X-44060000Y28880000D03*
X-46600000Y28880000D03*
X-49140000Y28880000D03*
X-51680000Y28880000D03*
X-54220000Y28880000D03*
X-56760000Y28880000D03*
D24*
X-16510000Y54610000D03*
D25*
X-18510000Y54610000D03*
X-20510000Y54610000D03*
X-22510000Y54610000D03*
D26*
X-14260000Y52235000D03*
X-14260000Y56985000D03*
X-24760000Y52235000D03*
X-24760000Y56985000D03*
D20*
X-85206000Y15480000D03*
X-85206000Y19480000D03*
D18*
X-11684000Y19304000D03*
D17*
X-11684000Y21844000D03*
X-11684000Y24384000D03*
D18*
X-59552000Y18750000D03*
D17*
X-62092000Y18750000D03*
X-64632000Y18750000D03*
D18*
X-7874000Y24384000D03*
D17*
X-5334000Y24384000D03*
X-7874000Y21844000D03*
X-5334000Y21844000D03*
D10*
G36*
X-114480000Y51388000D02*
X-114480000Y48688000D01*
X-118480000Y49288000D01*
X-118480000Y50788000D01*
X-114480000Y51388000D01*
X-114480000Y51388000D01*
G37*
G36*
X-124280000Y48688000D02*
X-124280000Y51388000D01*
X-120280000Y50788000D01*
X-120280000Y49288000D01*
X-124280000Y48688000D01*
X-124280000Y48688000D01*
G37*
D20*
X-99430000Y31672000D03*
X-99430000Y27672000D03*
D22*
X-114194000Y36022000D03*
X-118194000Y36022000D03*
D19*
X-101970000Y31672000D03*
X-101970000Y27672000D03*
D22*
X-92604000Y33482000D03*
X-96604000Y33482000D03*
X-98954000Y39578000D03*
X-102954000Y39578000D03*
X-102954000Y41864000D03*
X-98954000Y41864000D03*
D27*
X-21590000Y24050000D03*
D28*
X-21590000Y19050000D03*
D29*
X-92500000Y-6000000D03*
X-92500000Y4000000D03*
D30*
X-106500000Y-1000000D03*
D31*
X-92500000Y14000000D03*
D30*
X-106500000Y9000000D03*
D29*
X-61500000Y-6000000D03*
X-61500000Y4000000D03*
D30*
X-47500000Y-1000000D03*
D31*
X-61500000Y14000000D03*
D30*
X-47500000Y9000000D03*
D27*
X-59300000Y31580000D03*
X-59300000Y46820000D03*
X-18660000Y31580000D03*
D32*
X-21200000Y46820000D03*
D33*
X-23740000Y46820000D03*
X-56760000Y31580000D03*
X-26280000Y46820000D03*
X-54220000Y31580000D03*
X-28820000Y46820000D03*
X-51680000Y31580000D03*
X-31360000Y46820000D03*
X-49140000Y31580000D03*
X-33900000Y46820000D03*
X-46600000Y31580000D03*
X-36440000Y46820000D03*
X-44060000Y31580000D03*
X-38980000Y46820000D03*
D34*
X-41520000Y31580000D03*
D33*
X-41520000Y46820000D03*
X-38980000Y31580000D03*
X-44060000Y46820000D03*
X-36440000Y31580000D03*
X-46600000Y46820000D03*
X-33900000Y31580000D03*
X-49140000Y46820000D03*
X-31360000Y31580000D03*
X-51680000Y46820000D03*
X-28820000Y31580000D03*
X-54220000Y46820000D03*
X-26280000Y31580000D03*
X-56760000Y46820000D03*
X-23740000Y31580000D03*
X-21200000Y31580000D03*
D27*
X-18660000Y46820000D03*
D35*
X-118300000Y53400000D03*
X-133700000Y53400000D03*
X-128500000Y24000000D03*
X-123500000Y24000000D03*
D36*
X-92000000Y43500000D03*
X-92000000Y51500000D03*
X-92000000Y47500000D03*
D35*
X-113000000Y50000000D03*
D37*
X-113000000Y44000000D03*
D38*
X-92064000Y24084000D03*
X-92064000Y26624000D03*
X-92064000Y29164000D03*
X-34152000Y53802000D03*
X-31612000Y53802000D03*
X-29072000Y53802000D03*
D39*
X-100472000Y36076000D03*
D40*
X-110072000Y36076000D03*
D39*
X-100472000Y23776000D03*
X-110072000Y23776000D03*
D41*
G36*
X-77713000Y3054606D02*
X-78400606Y2367000D01*
X-87365000Y2367000D01*
X-87365000Y5415000D01*
X-77713000Y5415000D01*
X-77713000Y3054606D01*
X-77713000Y3054606D01*
G37*
X-77713000Y3054606D02*
X-78400606Y2367000D01*
X-87365000Y2367000D01*
X-87365000Y5415000D01*
X-77713000Y5415000D01*
X-77713000Y3054606D01*
G36*
X-66537000Y2367000D02*
X-75755394Y2367000D01*
X-76443000Y3054606D01*
X-76443000Y5415000D01*
X-66537000Y5415000D01*
X-66537000Y2367000D01*
X-66537000Y2367000D01*
G37*
X-66537000Y2367000D02*
X-75755394Y2367000D01*
X-76443000Y3054606D01*
X-76443000Y5415000D01*
X-66537000Y5415000D01*
X-66537000Y2367000D01*
M02*
