M48
;DRILL file {KiCad 4.0.7-e2-6376~61~ubuntu18.04.1} date Mon May 28 17:39:51 2018
;FORMAT={-:-/ absolute / inch / decimal}
FMAT,2
INCH,TZ
T1C0.037
T2C0.055
T3C0.138
T4C0.177
%
G90
G05
M72
T1
X-0.9748Y2.2435
X-0.9748Y2.0565
X-0.5614Y2.2435
X-0.5614Y2.0565
T2
X-2.3346Y1.8433
X-2.3346Y1.2433
X-0.7346Y1.8433
X-0.7346Y1.2433
T3
X-5.7193Y2.1192
X-5.7193Y0.9774
X-4.1929Y0.3543
X-4.1929Y-0.0394
X-1.8701Y0.3543
X-1.8701Y-0.0394
X-1.6051Y2.1192
X-1.6051Y0.9774
T4
X-6.1024Y0.9449
X-6.1024Y0.3543
X0.0394Y1.5354
X0.0394Y0.9449
T0
M30
