G04 #@! TF.FileFunction,Soldermask,Top*
%FSLAX46Y46*%
G04 Gerber Fmt 4.6, Leading zero omitted, Abs format (unit mm)*
G04 Created by KiCad (PCBNEW 4.0.7-e2-6376~61~ubuntu18.04.1) date Tue May 29 09:04:43 2018*
%MOMM*%
%LPD*%
G01*
G04 APERTURE LIST*
%ADD10C,0.100000*%
%ADD11C,0.150000*%
%ADD12R,2.200000X2.000000*%
%ADD13O,2.200000X2.000000*%
%ADD14R,2.400000X2.100000*%
%ADD15R,2.000000X2.400000*%
%ADD16C,8.400000*%
%ADD17C,7.400000*%
%ADD18R,2.100000X2.400000*%
%ADD19O,5.900000X5.900000*%
%ADD20O,2.100000X2.100000*%
%ADD21R,2.100000X2.100000*%
%ADD22R,1.900000X3.000000*%
%ADD23C,6.400000*%
%ADD24R,1.750000X1.750000*%
%ADD25C,1.750000*%
%ADD26C,1.350000*%
%ADD27R,2.400000X2.000000*%
%ADD28R,2.150000X0.950000*%
%ADD29C,2.400000*%
%ADD30R,2.400000X2.400000*%
%ADD31O,6.400000X5.400000*%
%ADD32C,4.400000*%
%ADD33R,6.400000X5.400000*%
%ADD34R,2.000000X2.600000*%
%ADD35O,2.000000X2.600000*%
%ADD36O,2.000000X2.800000*%
%ADD37O,2.900000X3.400000*%
%ADD38O,3.400000X2.900000*%
%ADD39R,2.900000X3.400000*%
%ADD40R,0.950000X2.150000*%
%ADD41C,1.840000*%
%ADD42C,3.400000*%
%ADD43R,3.400000X3.400000*%
%ADD44R,3.900000X2.200000*%
G04 APERTURE END LIST*
D10*
D11*
X-4000000Y48500000D02*
G75*
G03X1000000Y43500000I5000000J0D01*
G01*
X5500000Y39000000D02*
G75*
G03X1000000Y43500000I-4500000J0D01*
G01*
X-150000000Y-500000D02*
G75*
G03X-155000000Y4500000I-5000000J0D01*
G01*
X-159500000Y9000000D02*
G75*
G03X-155000000Y4500000I4500000J0D01*
G01*
X-5500000Y-11000000D02*
G75*
G03X-2500000Y-8000000I0J3000000D01*
G01*
X1000000Y-4500000D02*
G75*
G03X-2500000Y-8000000I0J-3500000D01*
G01*
X1000000Y-4500000D02*
G75*
G03X5500000Y0I0J4500000D01*
G01*
X-155000000Y52500000D02*
G75*
G03X-151500000Y56000000I0J3500000D01*
G01*
X-155000000Y52500000D02*
G75*
G03X-159500000Y48000000I0J-4500000D01*
G01*
X-148500000Y59000000D02*
G75*
G03X-151500000Y56000000I0J-3000000D01*
G01*
X-147000000Y-11000000D02*
X-5500000Y-11000000D01*
X5500000Y0D02*
X5500000Y39000000D01*
X-150000000Y-8000000D02*
X-150000000Y-500000D01*
X-150000000Y-8000000D02*
G75*
G03X-147000000Y-11000000I3000000J0D01*
G01*
X-4000000Y56000000D02*
X-4000000Y48500000D01*
X-4000000Y56000000D02*
G75*
G03X-7000000Y59000000I-3000000J0D01*
G01*
X-159500000Y48000000D02*
X-159500000Y9000000D01*
X-7000000Y59000000D02*
X-148500000Y59000000D01*
D12*
X-14594000Y44023000D03*
D13*
X-14594000Y41483000D03*
X-6974000Y38943000D03*
X-14594000Y38943000D03*
X-6974000Y41483000D03*
X-6974000Y44023000D03*
D14*
X-88476000Y54564000D03*
X-84476000Y54564000D03*
D15*
X-48376000Y35038000D03*
X-48376000Y39038000D03*
D16*
X1000000Y0D03*
D14*
X-80412000Y35260000D03*
X-84412000Y35260000D03*
D17*
X-155000000Y24000000D03*
X1000000Y24000000D03*
X-155000000Y9000000D03*
X1000000Y39000000D03*
D16*
X-155000000Y48000000D03*
D18*
X-75808000Y45198000D03*
X-75808000Y49198000D03*
X-78348000Y49198000D03*
X-78348000Y45198000D03*
X-32374000Y36562000D03*
X-32374000Y40562000D03*
D19*
X-40770000Y53827000D03*
X-40770000Y24827000D03*
X-145270000Y24827000D03*
D20*
X-144000000Y48987000D03*
X-146540000Y48987000D03*
X-144000000Y46447000D03*
X-146540000Y46447000D03*
X-144000000Y43907000D03*
X-146540000Y43907000D03*
X-144000000Y41367000D03*
X-146540000Y41367000D03*
X-144000000Y38827000D03*
X-146540000Y38827000D03*
X-144000000Y36287000D03*
X-146540000Y36287000D03*
X-144000000Y33747000D03*
X-146540000Y33747000D03*
D21*
X-144000000Y31207000D03*
D20*
X-146540000Y31207000D03*
D19*
X-145270000Y53827000D03*
D15*
X-53456000Y35038000D03*
X-53456000Y39038000D03*
D18*
X-49392000Y21830000D03*
X-49392000Y25830000D03*
X-50916000Y35038000D03*
X-50916000Y39038000D03*
D22*
X-8014000Y52532000D03*
X-11014000Y52532000D03*
X-8014000Y56342000D03*
X-11014000Y56342000D03*
D18*
X-39232000Y39038000D03*
X-39232000Y35038000D03*
X-41772000Y39038000D03*
X-41772000Y35038000D03*
X-73268000Y54278000D03*
X-73268000Y50278000D03*
D14*
X-77808000Y40848000D03*
X-73808000Y40848000D03*
D18*
X-65902000Y48944000D03*
X-65902000Y44944000D03*
X-46598000Y21830000D03*
X-46598000Y25830000D03*
X-45836000Y35038000D03*
X-45836000Y39038000D03*
D23*
X-134000000Y11000000D03*
X-20000000Y11000000D03*
D12*
X-12308000Y32212000D03*
D13*
X-9768000Y32212000D03*
X-7228000Y32212000D03*
D21*
X-21200000Y49520000D03*
D20*
X-23740000Y49520000D03*
X-26280000Y49520000D03*
X-28820000Y49520000D03*
X-31360000Y49520000D03*
X-33900000Y49520000D03*
X-36440000Y49520000D03*
X-38980000Y49520000D03*
X-41520000Y49520000D03*
X-44060000Y49520000D03*
X-46600000Y49520000D03*
X-49140000Y49520000D03*
X-51680000Y49520000D03*
X-54220000Y49520000D03*
X-56760000Y49520000D03*
D21*
X-21200000Y28880000D03*
D20*
X-23740000Y28880000D03*
X-26280000Y28880000D03*
X-28820000Y28880000D03*
X-31360000Y28880000D03*
X-33900000Y28880000D03*
X-36440000Y28880000D03*
X-38980000Y28880000D03*
X-41520000Y28880000D03*
X-44060000Y28880000D03*
X-46600000Y28880000D03*
X-49140000Y28880000D03*
X-51680000Y28880000D03*
X-54220000Y28880000D03*
X-56760000Y28880000D03*
D24*
X-16510000Y54610000D03*
D25*
X-18510000Y54610000D03*
X-20510000Y54610000D03*
X-22510000Y54610000D03*
D26*
X-14260000Y52235000D03*
X-14260000Y56985000D03*
X-24760000Y52235000D03*
X-24760000Y56985000D03*
D21*
X-11684000Y19304000D03*
D20*
X-11684000Y21844000D03*
X-11684000Y24384000D03*
D21*
X-59552000Y18750000D03*
D20*
X-62092000Y18750000D03*
X-64632000Y18750000D03*
D21*
X-7874000Y24384000D03*
D20*
X-5334000Y24384000D03*
X-7874000Y21844000D03*
X-5334000Y21844000D03*
D18*
X-8128000Y17494000D03*
X-8128000Y13494000D03*
X-5334000Y17494000D03*
X-5334000Y13494000D03*
D15*
X-85206000Y24243000D03*
X-85206000Y28243000D03*
X-87873000Y30275000D03*
X-87873000Y26275000D03*
X-64632000Y23894000D03*
X-64632000Y27894000D03*
D27*
X-73998000Y19766000D03*
X-69998000Y19766000D03*
D18*
X-82666000Y24243000D03*
X-82666000Y28243000D03*
D14*
X-69998000Y22306000D03*
X-73998000Y22306000D03*
X-68474000Y31958000D03*
X-72474000Y31958000D03*
X-78126000Y31450000D03*
X-82126000Y31450000D03*
D18*
X-62092000Y23894000D03*
X-62092000Y27894000D03*
D28*
X-68044000Y25259000D03*
X-68044000Y26529000D03*
X-68044000Y27799000D03*
X-68044000Y29069000D03*
X-75444000Y29069000D03*
X-75444000Y27799000D03*
X-75444000Y26529000D03*
X-75444000Y25259000D03*
D15*
X-88762000Y45198000D03*
X-88762000Y49198000D03*
D29*
X-21590000Y24050000D03*
D30*
X-21590000Y19050000D03*
D31*
X-92500000Y-6000000D03*
X-92500000Y4000000D03*
D32*
X-106500000Y-1000000D03*
D33*
X-92500000Y14000000D03*
D32*
X-106500000Y9000000D03*
D31*
X-61500000Y-6000000D03*
X-61500000Y4000000D03*
D32*
X-47500000Y-1000000D03*
D33*
X-61500000Y14000000D03*
D32*
X-47500000Y9000000D03*
D29*
X-59300000Y31580000D03*
X-59300000Y46820000D03*
X-18660000Y31580000D03*
D34*
X-21200000Y46820000D03*
D35*
X-23740000Y46820000D03*
X-56760000Y31580000D03*
X-26280000Y46820000D03*
X-54220000Y31580000D03*
X-28820000Y46820000D03*
X-51680000Y31580000D03*
X-31360000Y46820000D03*
X-49140000Y31580000D03*
X-33900000Y46820000D03*
X-46600000Y31580000D03*
X-36440000Y46820000D03*
X-44060000Y31580000D03*
X-38980000Y46820000D03*
D36*
X-41520000Y31580000D03*
D35*
X-41520000Y46820000D03*
X-38980000Y31580000D03*
X-44060000Y46820000D03*
X-36440000Y31580000D03*
X-46600000Y46820000D03*
X-33900000Y31580000D03*
X-49140000Y46820000D03*
X-31360000Y31580000D03*
X-51680000Y46820000D03*
X-28820000Y31580000D03*
X-54220000Y46820000D03*
X-26280000Y31580000D03*
X-56760000Y46820000D03*
X-23740000Y31580000D03*
X-21200000Y31580000D03*
D29*
X-18660000Y46820000D03*
D37*
X-118300000Y53400000D03*
X-133700000Y53400000D03*
X-128500000Y24000000D03*
X-123500000Y24000000D03*
D38*
X-92000000Y43500000D03*
X-92000000Y51500000D03*
X-92000000Y47500000D03*
D37*
X-113000000Y50000000D03*
D39*
X-113000000Y44000000D03*
D40*
X-85841000Y40958000D03*
X-84571000Y40958000D03*
X-83301000Y40958000D03*
X-82031000Y40958000D03*
X-82031000Y48358000D03*
X-83301000Y48358000D03*
X-84571000Y48358000D03*
X-85841000Y48358000D03*
D14*
X-73808000Y37800000D03*
X-77808000Y37800000D03*
X-81936000Y37800000D03*
X-85936000Y37800000D03*
D41*
X-92064000Y24084000D03*
X-92064000Y26624000D03*
X-92064000Y29164000D03*
X-34152000Y53802000D03*
X-31612000Y53802000D03*
X-29072000Y53802000D03*
D42*
X-100472000Y36076000D03*
D43*
X-110072000Y36076000D03*
D42*
X-100472000Y23776000D03*
X-110072000Y23776000D03*
D18*
X-68442000Y48944000D03*
X-68442000Y44944000D03*
X-70982000Y44976000D03*
X-70982000Y48976000D03*
D15*
X-34914000Y35038000D03*
X-34914000Y39038000D03*
D44*
X-80674000Y52024000D03*
X-85674000Y52024000D03*
X-7014000Y27894000D03*
X-12014000Y27894000D03*
X-10062000Y48849000D03*
X-15062000Y48849000D03*
M02*
